<?xml version="1.0" encoding="UTF-8" standalone="no"?>
<svg
   height="128"
   viewBox="0 0 33.866627 33.866627"
   width="128"
   version="1.1"
   id="svg644"
   sodipodi:docname="android.svg"
   inkscape:version="1.2.2 (b0a8486541, 2022-12-01)"
   xmlns:inkscape="http://www.inkscape.org/namespaces/inkscape"
   xmlns:sodipodi="http://sodipodi.sourceforge.net/DTD/sodipodi-0.dtd"
   xmlns="http://www.w3.org/2000/svg"
   xmlns:svg="http://www.w3.org/2000/svg">
  <defs
     id="defs648" />
  <sodipodi:namedview
     id="namedview646"
     pagecolor="#ffffff"
     borderopacity="0.25"
     inkscape:showpageshadow="2"
     inkscape:pageopacity="0"
     inkscape:pagecheckerboard="true"
     inkscape:deskcolor="#b2b2b2"
     showgrid="false"
     showborder="true"
     inkscape:zoom="3.9455595"
     inkscape:cx="62.475297"
     inkscape:cy="81.990907"
     inkscape:window-width="1920"
     inkscape:window-height="1048"
     inkscape:window-x="0"
     inkscape:window-y="32"
     inkscape:window-maximized="1"
     inkscape:current-layer="svg644"
     bordercolor="#000000" />
  <metadata
     id="metadata620" />
  <g
     transform="matrix(0.12800039,0,0,0.12800039,-8.5729682,-31.372777)"
     id="g642"
     fill="#d0d0d0">
    <g
       transform="matrix(1.32125,0,0,1.32125,480.53,-75.04)"
       id="g638" />
    <path
       id="path655"
       d="m 263.837,306.59 21.9331,-37.9944 c 1.2377,-2.12998 0.48933,-4.83565 -1.61189,-6.07335 -2.1012,-1.23768 -4.83565,-0.5181 -6.04456,1.61189 l -22.221,38.4837 c -16.9536,-7.74281 -36.0371,-12.0604 -56.5599,-12.0604 -20.5227,0 -39.6063,4.31754 -56.5599,12.0604 l -22.221,-38.4837 c -1.2377,-2.12999 -3.94336,-2.84957 -6.07335,-1.61189 -2.13,1.2377 -2.84959,3.94337 -1.61189,6.07335 l 21.9331,37.9944 c -37.8217,20.494 -63.4392,58.7762 -67.6703,103.592 h 264.407 c -4.2312,-44.8161 -29.8487,-83.0984 -67.6991,-103.592 z m -125.209,66.4614 c -6.13092,0 -11.0817,-4.97957 -11.0817,-11.0817 0,-6.13093 4.97957,-11.0817 11.0817,-11.0817 6.13092,0 11.0817,4.97956 11.0817,11.0817 0.0289,6.10212 -4.95079,11.0817 -11.0817,11.0817 z m 121.381,0 c -6.13091,0 -11.0817,-4.97957 -11.0817,-11.0817 0,-6.13093 4.97958,-11.0817 11.0817,-11.0817 6.13093,0 11.0817,4.97956 11.0817,11.0817 0.0288,6.10212 -4.95077,11.0817 -11.0817,11.0817 z m -9.87329,79.84178 c -9.52772,0 -19.9954,7.11198 -19.9954,19.9954 0,11.74018 8.91603,19.97506 19.97466,19.97506 13.62869,0 20.28343,-10.95604 20.28343,-19.90067 0,-10.97594 -8.5692,-20.06979 -20.26269,-20.06979 z m 0.0312,8.00546 c 6.58868,0 11.50331,5.31029 11.50331,12.0141 0,6.82008 -5.21712,12.0828 -11.48373,12.0828 -5.81725,0 -11.47209,-4.73404 -11.47209,-11.96814 0,-7.35469 5.37833,-12.12876 11.45251,-12.12876 z m 36.8,-21.06073 a 5.6681625,5.6681625 0 0 1 -5.66816,5.66817 5.6681625,5.6681625 0 0 1 -5.66817,-5.66817 5.6681625,5.6681625 0 0 1 5.66817,-5.66816 5.6681625,5.6681625 0 0 1 5.66816,5.66816 z m 23.81419,13.06849 c -9.09767,0 -18.45257,7.29023 -18.45257,20.05076 0,11.66566 8.2251,19.90542 18.45257,19.90542 8.44221,0 12.2048,-5.66652 12.2048,-5.66652 v 2.47002 c 0,1.16746 1.1038,2.47003 2.47002,2.47003 h 6.10241 V 434.5991 h -8.57243 v 24.04636 c 0,0 -3.79409,-5.73917 -12.20479,-5.73917 z m 1.52703,7.84341 c 7.48932,0 11.41786,6.58657 11.41786,12.20452 0,6.25749 -4.6644,12.20026 -11.40198,12.20029 -5.6322,0 -11.27402,-4.56146 -11.27402,-12.28287 0,-6.96996 4.85515,-12.12194 11.25814,-12.12194 z m -32.76534,31.38582 c -1.31705,0 -2.47002,-0.94467 -2.47002,-2.47002 v -35.88793 h 8.57243 v 38.358 z m -71.48491,0 c -1.31705,0 -2.47002,-0.94467 -2.47002,-2.47002 v -35.88793 h 8.57243 v 6.393 c 1.47551,-3.58138 4.65954,-6.82888 10.31597,-6.82888 1.57686,0 3.05122,0.2906 3.05122,0.2906 v 8.86299 c 0,0 -1.84101,-0.72647 -4.06829,-0.72647 -6.01478,0 -9.2989,5.68439 -9.2989,11.03616 v 19.33055 z M 175.36617,452.9064 c -9.09765,0 -18.45244,7.29023 -18.45244,20.05076 0,11.66566 8.2251,19.90542 18.45244,19.90542 8.44224,0 12.20484,-5.66652 12.20484,-5.66652 v 2.47002 c 0,1.16746 1.1038,2.47003 2.47002,2.47003 h 6.10241 V 434.5991 h -8.57243 v 24.04636 c 0,0 -3.79413,-5.73917 -12.20484,-5.73917 z m 1.52705,7.84341 c 7.48932,0 11.41787,6.58657 11.41787,12.20452 0,6.25749 -4.66443,12.20026 -11.40199,12.20029 -5.6322,0 -11.27401,-4.56146 -11.27401,-12.28287 0,-6.96996 4.85512,-12.12194 11.25813,-12.12194 z m -58.77285,31.38582 c -1.31704,0 -2.47002,-0.94467 -2.47002,-2.47002 v -35.88793 h 8.57243 v 4.74675 c 1.94253,-2.91978 5.73758,-5.63022 11.56268,-5.63022 9.5208,0 14.59056,7.58955 14.59056,14.68649 v 24.5549 h -5.95712 c -1.56203,0 -2.6153,-1.30764 -2.6153,-2.61531 v -20.05076 c 0,-3.93386 -2.41026,-8.71142 -7.9845,-8.71142 -6.01478,0 -9.59627,5.68439 -9.59627,11.03614 v 20.3413 z M 85.428685,452.9064 c -9.097678,0 -18.452578,7.29023 -18.452578,20.05076 0,11.66566 8.225099,19.90542 18.452578,19.90542 8.442233,0 12.204809,-5.66652 12.204809,-5.66652 v 2.47002 c 0,1.16746 1.103799,2.47003 2.470026,2.47003 h 6.1024 V 453.7781 h -8.572426 v 4.86741 c 0,0 -3.794101,-5.73919 -12.204809,-5.73919 z m 1.527021,7.84341 c 7.489321,0 11.417873,6.58657 11.417873,12.20452 0,6.25749 -4.664409,12.20026 -11.401991,12.20029 -5.632198,0 -11.274015,-4.56146 -11.274015,-12.28287 0,-6.96994 4.855145,-12.12194 11.258133,-12.12194 z" />
  </g>
</svg>
