<?xml version="1.0" encoding="UTF-8" standalone="no"?>
<svg
   width="128"
   height="128"
   version="1.1"
   id="svg14"
   sodipodi:docname="arduino.svg"
   inkscape:version="1.2.2 (b0a8486541, 2022-12-01)"
   fill="#d0d0d0"
   xmlns:inkscape="http://www.inkscape.org/namespaces/inkscape"
   xmlns:sodipodi="http://sodipodi.sourceforge.net/DTD/sodipodi-0.dtd"
   xmlns="http://www.w3.org/2000/svg"
   xmlns:svg="http://www.w3.org/2000/svg"
   xmlns:rdf="http://www.w3.org/1999/02/22-rdf-syntax-ns#"
   xmlns:cc="http://creativecommons.org/ns#"
   xmlns:dc="http://purl.org/dc/elements/1.1/">
  <defs
     id="defs18" />
  <sodipodi:namedview
     id="namedview16"
     pagecolor="#ffffff"
     bordercolor="#ffffff"
     borderopacity="0.25"
     inkscape:showpageshadow="2"
     inkscape:pageopacity="0"
     inkscape:pagecheckerboard="true"
     inkscape:deskcolor="#c5c5c5"
     showgrid="false"
     inkscape:zoom="3.5142856"
     inkscape:cx="66.727644"
     inkscape:cy="61.890246"
     inkscape:window-width="1920"
     inkscape:window-height="1048"
     inkscape:window-x="0"
     inkscape:window-y="32"
     inkscape:window-maximized="1"
     inkscape:current-layer="svg14"
     showborder="false" />
  <g
     id="g8"
     transform="matrix(0.17721838,0,0,0.17721838,0.39194929,0.30563345)" />
  <g
     id="path10"
     transform="matrix(0.17778328,0,0,0.17778328,-30.024181,-1.2537196e-4)">
    <path
       id="path439"
       style="color:#000000;-inkscape-stroke:none"
       d="m 250.41253,601.18799 -6.4,-23 h -40.6 l -6.6,23 h -21.7 l 34.4,-116 h 30.6 l 34.4,116 z m -26.4,-95 -15.3,54.1 h 30.4 z m 122.4,95 c 0,0 -11.7,-27.6 -18.3,-41 -3.83,-5.76 -11.4,-8.02 -18,-7.1 -0.6,15.7 -0.48,48.1 -0.48,48.1 h -21.9 v -116 c 0,0 33,-0.97 49.4,1.2 34.7,3.92 37,54.4 2.13,59.7 6.54,2.6 10.5,8.65 13.3,14.8 l 17.5,36.2 c 1.23,2.48 1.2,4.4 -2.34,4.38 z m -5.42,-82.1 c -0.1,-17.9 -18,-15.9 -31.3,-16 v 32.8 c 15.7,0.53 31,-1.07 31.3,-16.8 z m 127.42,52.1 c -10.6,24.5 -33.8,30.2 -55.8,29.8 h -26.9 v -116 l 40.9,0.2 c 50.6,1.65 52.4,56.2 41.7,86.4 z m -28,-61.3 c -10.2,-8.76 -21.4,-6.97 -32.8,-6.97 v 79.7 c 10,0 20.9,0.8 29.4,-5.4 18.1,-11.4 15.8,-54.6 3.35,-67.3 z m 133,48.3 c 2.17,58.6 -81.5,58.4 -84,12.7 -1.53,-14 -0.27,-28 -0.68,-42 v -44.2 h 21.9 l 0.4,83 c 2.57,22.9 33,20.9 37.6,8.2 4.66,-10.1 2.5,-21.5 2.98,-32.3 v -58.9 h 21.9 v 73.5 z m 21,-56 v -17.9 h 73.5 v 17.9 h -25.6 v 80.4 h 25.6 v 18.1 h -73.5 v -18.1 h 25.6 v -80.4 z m 155,99 -37.6,-84.4 v 84.4 h -19.9 v -116 h 26.9 l 37.4,83.6 c 0.1,-6 0.04,-83.6 0.04,-83.6 h 19.9 v 116 z m 117,-10 c -24.3,20.9 -66.7,16.3 -75.1,-24.9 -11.5,-62.6 22.4,-98.6 69.6,-77.6 29,16.3 27.4,83.4 5.5,103 z m -29.3,-88.7 c -20.7,-0.55 -23.7,20.6 -24.5,30.8 -0.17,19.3 -1.88,51.4 24.9,50 8.3,0 15.5,-6.02 18.2,-13.7 5.45,-12.1 9.56,-68.1 -18.6,-67.1 z m -148.79,-269.94557 v 33.89197 h -32.89515 v 31.89832 h 32.89515 v 33.89197 h 31.89832 v -33.89197 h 34.88879 v -31.89832 h -34.88879 v -33.89197 z m -399.72584,37.38085 v 24.92056 h 119.6187 V 269.92327 Z M 705.58976,116.19259 c -32.44114,0.23469 -64.84268,9.17751 -93.1231,28.32768 -35.99885,22.84342 -61.45116,53.33832 -82.83556,84.62088 C 496.821,182.00619 453.26584,137.34656 389.81117,122.92504 h -0.002 c -15.09375,-3.42931 -30.13336,-4.68164 -44.6389,-4.65898 l -2.53101,0.004 -0.24141,0.0428 c -116.81176,-5.92016 -208.33229,124.76604 -160.6033,232.3686 46.93041,115.462 212.92228,145.23286 296.6501,52.94063 19.47127,-19.24723 35.13826,-40.42405 49.2337,-61.79326 32.0519,51.67377 79.60329,96.97245 144.11289,111.5604 0.0312,0.007 0.0603,0.0182 0.0915,0.0253 114.88107,32.95271 234.14602,-75.2885 214.92429,-192.88905 C 872.61644,172.42008 788.9987,115.58921 705.58976,116.19259 Z m -7.15104,60.52582 c 57.58283,-2.25452 121.1706,36.34504 130.30924,93.18733 l 0.008,0.0409 0.006,0.0429 c 11.73555,71.6921 -72.21919,147.59275 -141.92066,126.58478 l -0.99877,-0.29983 -1.01629,-0.22974 c -53.25749,-12.01586 -95.43277,-58.30961 -121.32069,-111.23923 23.5946,-37.38652 47.24361,-69.64798 80.71732,-90.80236 l 0.44194,-0.28036 0.43222,-0.29398 c 15.62073,-10.66782 34.14741,-15.9589 53.34169,-16.71041 z m -362.94465,0.1616 c 2.1896,-0.01 4.38876,0.0699 6.59228,0.24531 l 3.7225,0.29788 1.43877,-0.25116 c 10.29716,0.0996 20.30681,1.00785 29.53087,3.10339 49.71647,11.2992 87.19925,54.27241 118.20135,103.25096 -18.48468,29.70351 -36.48836,57.35365 -58.50492,78.93588 l -0.66,0.64638 -0.61912,0.68726 c -51.86853,57.66561 -170.04285,36.52708 -199.06663,-35.5741 l -0.21221,-0.52761 -0.23169,-0.51984 c -27.96834,-62.39091 31.93143,-149.98367 99.8088,-150.29435 z" />
  </g>
  <title
     id="title12">wiki:Behnam N</title>
  <metadata
     id="metadata124">
    <rdf:RDF>
      <cc:Work
         rdf:about="">
        <dc:title>wiki:Behnam N</dc:title>
      </cc:Work>
    </rdf:RDF>
  </metadata>
</svg>
