<?xml version="1.0" encoding="UTF-8" standalone="no"?>
<svg
   width="280pt"
   height="482pt"
   version="1.1"
   viewBox="0 0 280 482"
   id="svg380"
   fill="#6F89A3"
   sodipodi:docname="noun-gaming-mouse-1554899(1).svg"
   inkscape:version="1.2.2 (b0a8486541, 2022-12-01)"
   xmlns:inkscape="http://www.inkscape.org/namespaces/inkscape"
   xmlns:sodipodi="http://sodipodi.sourceforge.net/DTD/sodipodi-0.dtd"
   xmlns="http://www.w3.org/2000/svg"
   xmlns:svg="http://www.w3.org/2000/svg">
  <sodipodi:namedview
     id="namedview382"
     pagecolor="#ffffff"
     bordercolor="#000000"
     borderopacity="0.25"
     inkscape:showpageshadow="2"
     inkscape:pageopacity="0.0"
     inkscape:pagecheckerboard="0"
     inkscape:deskcolor="#d1d1d1"
     inkscape:document-units="pt"
     showgrid="false"
     inkscape:zoom="0.93321429"
     inkscape:cx="466.13088"
     inkscape:cy="363.26062"
     inkscape:window-width="1876"
     inkscape:window-height="969"
     inkscape:window-x="0"
     inkscape:window-y="0"
     inkscape:window-maximized="1"
     inkscape:current-layer="svg380" />
  <defs
     id="defs350">
    <symbol
       id="u"
       overflow="visible">
      <path
         d="m 18.766,-1.125 c -0.96875,0.5 -1.9805,0.875 -3.0312,1.125 -1.043,0.25781 -2.1367,0.39062 -3.2812,0.39062 -3.3984,0 -6.0898,-0.94531 -8.0781,-2.8438 -1.9922,-1.9062 -2.9844,-4.4844 -2.9844,-7.7344 0,-3.2578 0.99219,-5.8359 2.9844,-7.7344 1.9883,-1.9062 4.6797,-2.8594 8.0781,-2.8594 1.1445,0 2.2383,0.13281 3.2812,0.39062 1.0508,0.25 2.0625,0.625 3.0312,1.125 v 4.2188 c -0.98047,-0.65625 -1.9453,-1.1406 -2.8906,-1.4531 -0.94922,-0.3125 -1.9492,-0.46875 -3,-0.46875 -1.875,0 -3.3516,0.60547 -4.4219,1.8125 -1.0742,1.1992 -1.6094,2.8555 -1.6094,4.9688 0,2.1055 0.53516,3.7617 1.6094,4.9688 1.0703,1.1992 2.5469,1.7969 4.4219,1.7969 1.0508,0 2.0508,-0.14844 3,-0.45312 0.94531,-0.3125 1.9102,-0.80078 2.8906,-1.4688 z"
         id="path287" />
    </symbol>
    <symbol
       id="b"
       overflow="visible">
      <path
         d="m 13.734,-11.141 c -0.4375,-0.19531 -0.87109,-0.34375 -1.2969,-0.4375 -0.41797,-0.10156 -0.83984,-0.15625 -1.2656,-0.15625 -1.2617,0 -2.2305,0.40625 -2.9062,1.2188 -0.67969,0.80469 -1.0156,1.9531 -1.0156,3.4531 v 7.0625 H 2.3591 v -15.312 h 4.8906 v 2.5156 c 0.625,-1 1.3438,-1.7266 2.1562,-2.1875 0.82031,-0.46875 1.8008,-0.70312 2.9375,-0.70312 0.16406,0 0.34375,0.01172 0.53125,0.03125 0.19531,0.01172 0.47656,0.03906 0.84375,0.07813 z"
         id="path290" />
    </symbol>
    <symbol
       id="a"
       overflow="visible">
      <path
         d="m 17.641,-7.7031 v 1.4062 H 6.188 c 0.125,1.1484 0.53906,2.0078 1.25,2.5781 0.70703,0.57422 1.7031,0.85938 2.9844,0.85938 1.0312,0 2.082,-0.14844 3.1562,-0.45312 1.082,-0.3125 2.1914,-0.77344 3.3281,-1.3906 v 3.7656 c -1.1562,0.4375 -2.3125,0.76562 -3.4688,0.98438 -1.1562,0.22656 -2.3125,0.34375 -3.4688,0.34375 -2.7734,0 -4.9297,-0.70312 -6.4688,-2.1094 -1.5312,-1.4062 -2.2969,-3.3789 -2.2969,-5.9219 0,-2.5 0.75391,-4.4609 2.2656,-5.8906 1.5078,-1.4375 3.582,-2.1562 6.2188,-2.1562 2.4062,0 4.332,0.73047 5.7812,2.1875 1.4453,1.4492 2.1719,3.3828 2.1719,5.7969 z m -5.0312,-1.625 c 0,-0.92578 -0.27344,-1.6719 -0.8125,-2.2344 -0.54297,-0.57031 -1.25,-0.85938 -2.125,-0.85938 -0.94922,0 -1.7188,0.26562 -2.3125,0.79688 -0.5937,0.53126 -0.96484,1.2969 -1.1094,2.2969 z"
         id="path293" />
    </symbol>
    <symbol
       id="k"
       overflow="visible">
      <path
         d="m 9.2188,-6.8906 c -1.0234,0 -1.793,0.17188 -2.3125,0.51562 -0.51172,0.34375 -0.76562,0.85547 -0.76562,1.5312 0,0.625 0.20703,1.1172 0.625,1.4688 0.41406,0.34375 0.98828,0.51562 1.7188,0.51562 0.92578,0 1.7031,-0.32812 2.3281,-0.98438 0.63281,-0.66406 0.95312,-1.4922 0.95312,-2.4844 v -0.5625 z m 7.4688,-1.8438 V 0 h -4.9219 v -2.2656 c -0.65625,0.92969 -1.3984,1.6055 -2.2188,2.0312 -0.82422,0.41406 -1.8242,0.625 -3,0.625 -1.5859,0 -2.8711,-0.45703 -3.8594,-1.375 -0.99219,-0.92578 -1.4844,-2.1289 -1.4844,-3.6094 0,-1.7891 0.61328,-3.1016 1.8438,-3.9375 1.2383,-0.84375 3.1797,-1.2656 5.8281,-1.2656 h 2.8906 v -0.39062 c 0,-0.76953 -0.30859,-1.332 -0.92188,-1.6875 -0.61719,-0.36328 -1.5703,-0.54688 -2.8594,-0.54688 -1.0547,0 -2.0312,0.10547 -2.9375,0.3125 -0.89844,0.21094 -1.7305,0.52344 -2.5,0.9375 v -3.7344 c 1.0391,-0.25 2.0859,-0.44141 3.1406,-0.57812 1.0625,-0.13281 2.125,-0.20312 3.1875,-0.20312 2.7578,0 4.75,0.54688 5.9688,1.6406 1.2266,1.0859 1.8438,2.8555 1.8438,5.3125 z"
         id="path296" />
    </symbol>
    <symbol
       id="d"
       overflow="visible">
      <path
         d="m 7.7031,-19.656 v 4.3438 H 12.75 v 3.5 H 7.7031 v 6.5 c 0,0.71094 0.14062,1.1875 0.42188,1.4375 0.28126,0.25 0.83594,0.375 1.6719,0.375 h 2.5156 v 3.5 h -4.1875 c -1.9375,0 -3.3125,-0.39844 -4.125,-1.2031 -0.80469,-0.8125 -1.2031,-2.1797 -1.2031,-4.1094 v -6.5 h -2.4219 v -3.5 h 2.4219 v -4.3438 z"
         id="path299" />
    </symbol>
    <symbol
       id="j"
       overflow="visible">
      <path
         d="m 12.766,-13.078 v -8.2031 h 4.9219 V -1e-4 H 12.766 v -2.2188 c -0.66797,0.90625 -1.4062,1.5703 -2.2188,1.9844 -0.8126,0.4141 -1.7578,0.625 -2.8281,0.625 -1.8867,0 -3.4336,-0.75 -4.6406,-2.25 -1.2109,-1.5 -1.8125,-3.4258 -1.8125,-5.7812 0,-2.3633 0.60156,-4.2969 1.8125,-5.7969 1.207,-1.5 2.7539,-2.25 4.6406,-2.25 1.0625,0 2,0.21484 2.8125,0.64062 0.82031,0.42969 1.5664,1.0859 2.2344,1.9688 z m -3.2188,9.9219 c 1.0391,0 1.8359,-0.37891 2.3906,-1.1406 0.55078,-0.76953 0.82812,-1.8828 0.82812,-3.3438 0,-1.457 -0.27734,-2.5664 -0.82812,-3.3281 -0.55469,-0.76953 -1.3516,-1.1562 -2.3906,-1.1562 -1.043,0 -1.8398,0.38672 -2.3906,1.1562 -0.55469,0.76172 -0.82812,1.8711 -0.82812,3.3281 0,1.4609 0.27344,2.5742 0.82812,3.3438 0.55078,0.76172 1.3477,1.1406 2.3906,1.1406 z"
         id="path302" />
    </symbol>
    <symbol
       id="i"
       overflow="visible">
      <path
         d="m 10.5,-3.1562 c 1.0508,0 1.8516,-0.37891 2.4062,-1.1406 0.55078,-0.76953 0.82812,-1.8828 0.82812,-3.3438 0,-1.457 -0.27734,-2.5664 -0.82812,-3.3281 -0.55469,-0.76953 -1.3555,-1.1562 -2.4062,-1.1562 -1.0547,0 -1.8594,0.38672 -2.4219,1.1562 -0.55469,0.77344 -0.82812,1.8828 -0.82812,3.3281 0,1.4492 0.27344,2.5586 0.82812,3.3281 0.5625,0.77344 1.3672,1.1562 2.4219,1.1562 z m -3.25,-9.9219 c 0.67578,-0.88281 1.4219,-1.5391 2.2344,-1.9688 0.82031,-0.42578 1.7656,-0.64062 2.8281,-0.64062 1.8945,0 3.4453,0.75 4.6562,2.25 1.207,1.5 1.8125,3.4336 1.8125,5.7969 0,2.3555 -0.60547,4.2812 -1.8125,5.7812 -1.2109,1.5 -2.7617,2.25 -4.6562,2.25 -1.0625,0 -2.0078,-0.21094 -2.8281,-0.625 C 8.6719,-0.6602 7.9258,-1.32032 7.25,-2.21882 V -2e-5 H 2.3594 v -21.281 H 7.25 Z"
         id="path305" />
    </symbol>
    <symbol
       id="h"
       overflow="visible">
      <path
         d="m 0.34375,-15.312 h 4.8906 l 4.125,10.391 3.5,-10.391 h 4.8906 l -6.4375,16.766 c -0.64844,1.6953 -1.4023,2.8828 -2.2656,3.5625 -0.86719,0.6875 -2,1.0312 -3.4062,1.0312 H 2.79685 V 2.8289 h 1.5312 c 0.83203,0 1.4375,-0.13672 1.8125,-0.40625 C 6.52336,2.16093 6.82024,1.69218 7.03117,1.01645 L 7.17179,0.59457 Z"
         id="path308" />
    </symbol>
    <symbol
       id="g"
       overflow="visible">
      <path
         d="M 14.953,-3.7188 H 6.7342 L 5.4217,0 H 0.1405 L 7.703,-20.406 h 6.2656 L 21.5311,0 H 16.2499 Z M 8.0468,-7.5 h 5.5781 l -2.7812,-8.125 z"
         id="path311" />
    </symbol>
    <symbol
       id="t"
       overflow="visible">
      <path
         d="M 2.3594,-21.281 H 7.25 V 0 H 2.3594 Z"
         id="path314" />
    </symbol>
    <symbol
       id="c"
       overflow="visible">
      <path
         d="m 9.6406,-12.188 c -1.0859,0 -1.9141,0.39062 -2.4844,1.1719 -0.57422,0.78125 -0.85938,1.9062 -0.85938,3.375 0,1.4688 0.28516,2.5938 0.85938,3.375 0.57031,0.77344 1.3984,1.1562 2.4844,1.1562 1.0625,0 1.875,-0.38281 2.4375,-1.1562 0.57031,-0.78125 0.85938,-1.9062 0.85938,-3.375 0,-1.4688 -0.28906,-2.5938 -0.85938,-3.375 -0.5625,-0.78125 -1.375,-1.1719 -2.4375,-1.1719 z m 0,-3.5 c 2.6328,0 4.6914,0.71484 6.1719,2.1406 1.4766,1.418 2.2188,3.3867 2.2188,5.9062 0,2.5117 -0.74219,4.4805 -2.2188,5.9062 C 14.332,-0.317 12.2734,0.39 9.6406,0.39 6.9922,0.39 4.9258,-0.31703 3.4375,-1.735 1.9453,-3.1608 1.2031,-5.1295 1.2031,-7.6412 c 0,-2.5195 0.74219,-4.4883 2.2344,-5.9062 1.4883,-1.4258 3.5547,-2.1406 6.2031,-2.1406 z"
         id="path317" />
    </symbol>
    <symbol
       id="f"
       overflow="visible">
      <path
         d="M 17.75,-9.3281 V 0 h -4.9219 v -7.1406 c 0,-1.3203 -0.03125,-2.2344 -0.09375,-2.7344 -0.0625,-0.5 -0.16797,-0.86719 -0.3125,-1.1094 -0.1875,-0.3125 -0.44922,-0.55469 -0.78125,-0.73438 -0.32422,-0.17578 -0.69531,-0.26562 -1.1094,-0.26562 -1.0234,0 -1.8242,0.39844 -2.4062,1.1875 -0.58594,0.78125 -0.875,1.8711 -0.875,3.2656 V -1e-4 H 2.3594 v -15.312 H 7.25 v 2.2344 c 0.73828,-0.88281 1.5195,-1.5391 2.3438,-1.9688 0.83203,-0.42578 1.75,-0.64062 2.75,-0.64062 1.7695,0 3.1133,0.54688 4.0312,1.6406 0.91406,1.0859 1.375,2.6562 1.375,4.7188 z"
         id="path320" />
    </symbol>
    <symbol
       id="e"
       overflow="visible">
      <path
         d="m 12.422,-21.281 v 3.2188 H 9.7189 c -0.6875,0 -1.1719,0.125 -1.4531,0.375 -0.27344,0.25 -0.40625,0.6875 -0.40625,1.3125 v 1.0625 h 4.1875 v 3.5 H 7.85955 V -2e-4 h -4.8906 v -11.812 h -2.4375 v -3.5 h 2.4375 v -1.0625 c 0,-1.6641 0.46094,-2.8984 1.3906,-3.7031 0.92578,-0.80078 2.3672,-1.2031 4.3281,-1.2031 z"
         id="path323" />
    </symbol>
    <symbol
       id="s"
       overflow="visible">
      <path
         d="m 0.42188,-15.312 h 4.8906 l 3.8281,10.578 3.7969,-10.578 h 4.9062 L 11.81248,0 h -5.375 z"
         id="path326" />
    </symbol>
    <symbol
       id="r"
       overflow="visible">
      <path
         d="m 16.547,-12.766 c 0.61328,-0.94531 1.3477,-1.6719 2.2031,-2.1719 0.85156,-0.5 1.7891,-0.75 2.8125,-0.75 1.7578,0 3.0977,0.54688 4.0156,1.6406 0.92578,1.0859 1.3906,2.6562 1.3906,4.7188 V -4e-4 h -4.9219 v -7.9844 -0.35938 c 0.0078,-0.13281 0.01563,-0.32031 0.01563,-0.5625 0,-1.082 -0.16406,-1.8633 -0.48438,-2.3438 -0.3125,-0.48828 -0.82422,-0.73438 -1.5312,-0.73438 -0.92969,0 -1.6484,0.38672 -2.1562,1.1562 -0.51172,0.76172 -0.77344,1.8672 -0.78125,3.3125 v 7.5156 h -4.9219 v -7.9844 c 0,-1.6953 -0.14844,-2.7852 -0.4375,-3.2656 -0.29297,-0.48828 -0.8125,-0.73438 -1.5625,-0.73438 -0.9375,0 -1.6641,0.38672 -2.1719,1.1562 -0.51172,0.76172 -0.76562,1.8594 -0.76562,3.2969 v 7.5312 h -4.9219 v -15.312 h 4.9219 v 2.2344 c 0.60156,-0.86328 1.2891,-1.5156 2.0625,-1.9531 0.78125,-0.4375 1.6406,-0.65625 2.5781,-0.65625 1.0625,0 2,0.25781 2.8125,0.76562 0.8125,0.51172 1.4258,1.2305 1.8438,2.1562 z"
         id="path329" />
    </symbol>
    <symbol
       id="q"
       overflow="visible">
      <path
         d="M 17.75,-9.3281 V 0 h -4.9219 v -7.1094 c 0,-1.3438 -0.03125,-2.2656 -0.09375,-2.7656 -0.0625,-0.5 -0.16797,-0.86719 -0.3125,-1.1094 -0.1875,-0.3125 -0.44922,-0.55469 -0.78125,-0.73438 -0.32422,-0.17578 -0.69531,-0.26562 -1.1094,-0.26562 -1.0234,0 -1.8242,0.39844 -2.4062,1.1875 -0.58594,0.78125 -0.875,1.8711 -0.875,3.2656 V -1e-4 H 2.3594 v -21.281 H 7.25 v 8.2031 c 0.73828,-0.88281 1.5195,-1.5391 2.3438,-1.9688 0.83203,-0.42578 1.75,-0.64062 2.75,-0.64062 1.7695,0 3.1133,0.54688 4.0312,1.6406 0.91406,1.0859 1.375,2.6562 1.375,4.7188 z"
         id="path332" />
    </symbol>
    <symbol
       id="p"
       overflow="visible">
      <path
         d="m 2.5781,-20.406 h 5.875 l 7.4219,14 v -14 h 4.9844 V 0 h -5.875 L 7.5625,-14 V 0 H 2.5781 Z"
         id="path335" />
    </symbol>
    <symbol
       id="o"
       overflow="visible">
      <path
         d="m 2.1875,-5.9688 v -9.3438 h 4.9219 v 1.5312 c 0,0.83594 -0.00781,1.875 -0.015625,3.125 -0.011719,1.25 -0.015625,2.0859 -0.015625,2.5 0,1.2422 0.03125,2.1328 0.09375,2.6719 0.070313,0.54297 0.17969,0.93359 0.32812,1.1719 0.20703,0.32422 0.47266,0.57422 0.79688,0.75 0.32031,0.16797 0.69141,0.25 1.1094,0.25 1.0195,0 1.8203,-0.39062 2.4062,-1.1719 0.58203,-0.78125 0.875,-1.8672 0.875,-3.2656 v -7.5625 h 4.8906 V -6e-4 H 12.6875 V -2.2194 C 11.94531,-1.32096 11.1641,-0.6608 10.3437,-0.235 9.51948,0.17906 8.6093,0.39 7.6093,0.39 5.8476,0.39 4.5038,-0.14906 3.5781,-1.235 2.64841,-2.317 2.1875,-3.8952 2.1875,-5.9694 Z"
         id="path338" />
    </symbol>
    <symbol
       id="n"
       overflow="visible">
      <path
         d="m 2.5781,-20.406 h 8.7344 c 2.5938,0 4.582,0.57812 5.9688,1.7344 1.3945,1.1484 2.0938,2.7891 2.0938,4.9219 0,2.1367 -0.69922,3.7812 -2.0938,4.9375 -1.3867,1.1562 -3.375,1.7344 -5.9688,1.7344 H 7.8281 V 3e-4 h -5.25 z m 5.25,3.8125 v 5.7031 H 10.75 c 1.0195,0 1.8047,-0.25 2.3594,-0.75 0.5625,-0.5 0.84375,-1.2031 0.84375,-2.1094 0,-0.91406 -0.28125,-1.6172 -0.84375,-2.1094 -0.55469,-0.48828 -1.3398,-0.73438 -2.3594,-0.73438 z"
         id="path341" />
    </symbol>
    <symbol
       id="m"
       overflow="visible">
      <path
         d="M 2.3594,-15.312 H 7.25 v 15.031 c 0,2.0508 -0.49609,3.6172 -1.4844,4.7031 -0.98047,1.082 -2.4062,1.625 -4.2812,1.625 H -0.9375 V 2.8283 h 0.85938 c 0.92578,0 1.5625,-0.21094 1.9062,-0.625 0.35156,-0.41797 0.53125,-1.2461 0.53125,-2.4844 z m 0,-5.9688 H 7.25 v 4 H 2.3594 Z"
         id="path344" />
    </symbol>
    <symbol
       id="l"
       overflow="visible">
      <path
         d="m 14.719,-14.828 v 3.9844 c -0.65625,-0.45703 -1.3242,-0.79688 -2,-1.0156 -0.66797,-0.21875 -1.3594,-0.32812 -2.0781,-0.32812 -1.3672,0 -2.4336,0.40234 -3.2031,1.2031 -0.76172,0.79297 -1.1406,1.9062 -1.1406,3.3438 0,1.4297 0.37891,2.543 1.1406,3.3438 0.76953,0.79297 1.8359,1.1875 3.2031,1.1875 0.75781,0 1.4844,-0.10938 2.1719,-0.32812 0.6875,-0.22656 1.3203,-0.56641 1.9062,-1.0156 v 4 c -0.76172,0.28125 -1.5391,0.48828 -2.3281,0.625 -0.78125,0.14453 -1.5742,0.21875 -2.375,0.21875 -2.7617,0 -4.9219,-0.70703 -6.4844,-2.125 -1.5547,-1.4141 -2.3281,-3.3828 -2.3281,-5.9062 0,-2.5312 0.77344,-4.5039 2.3281,-5.9219 1.5625,-1.4141 3.7227,-2.125 6.4844,-2.125 0.80078,0 1.5938,0.07422 2.375,0.21875 0.78125,0.13672 1.5547,0.35156 2.3281,0.64062 z"
         id="path347" />
    </symbol>
  </defs>
  <g
     id="g378"
     transform="translate(-211.09461,-38.733406)">
    <path
       d="m 225.9,388.06 c -0.61719,-1.9023 -1.9023,-13.047 -2.8555,-21.953 1.0625,-3.6953 2.2969,-7.8945 3.8086,-12.77 3.8086,-12.656 6.7188,-23.406 8.6797,-32.199 0.28125,1.0625 0.67188,2.0703 1.0625,3.1914 -0.67188,5.6016 0.50391,11.48 2.5742,17.078 0.50391,8.2891 5.4883,17.473 9.1836,24.191 1.793,3.3047 3.3047,6.1602 3.5859,7.6172 0.72656,3.7539 1.1758,33.098 1.3984,47.207 0.0547,3.3047 0.11328,5.9375 0.11328,7.5039 0.0547,2.0703 -0.28125,2.6328 -0.28125,2.6328 -0.83984,0 -3.5859,-2.5195 -6.0469,-6.5508 l -1.6797,-2.7422 c -4.5898,-7.5586 -18.645,-30.574 -19.543,-33.207 z"
       id="path352" />
    <path
       d="m 235.87,300.37 c -0.28125,-1.0625 -2.4648,-13.105 -4.3672,-23.742 -2.0703,-11.312 -4.0312,-21.953 -4.4258,-23.742 -0.50391,-2.2383 -0.39062,-2.2969 0.50391,-3.3047 0.50391,-0.55859 0.78516,-1.2305 0.78516,-1.9609 0,-0.95313 -0.44922,-1.8477 -0.89453,-2.8555 -0.28125,-0.50391 -0.55859,-1.1211 -0.67188,-1.5664 -0.22266,-0.78516 -0.72656,-1.3984 -1.3984,-1.793 -0.95313,-0.50391 -1.2305,-0.72656 -1.2305,-0.72656 -0.28125,-1.1211 -1.457,-10.754 -2.6875,-20.832 -1.1758,-10.078 -2.4062,-20.719 -2.7422,-23.742 0.67188,-0.11328 2.6328,0.16797 3.6953,-1.0078 0.50391,-0.61719 0.78516,-1.457 0.67188,-2.2383 -4.6484,-36.512 -3.4727,-63 -3.3047,-65.91 0.0547,-1.0078 0.22266,-1.9609 0.50391,-2.8555 0.22266,8.0625 1.1758,23.129 4.2578,49 4.4805,37.633 9.9688,80.641 17.023,114.69 6.4961,31.191 11.199,46.871 11.258,47.039 0.11328,0.28125 0.28125,0.55859 0.55859,0.72656 l 16.238,11.312 0.78516,7.6719 c -2.9688,-0.72656 -7.5039,-1.9023 -8.9023,-2.6875 -1.9609,-1.0625 -11.09,-10.305 -17.414,-18.871 -4.0312,-5.4883 -6.2734,-13.273 -7.3359,-17.922 0.78516,-4.0312 1.3438,-7.5586 1.5664,-10.527 l 0.0547,-0.67188 c 0.16797,-1.1758 -0.83984,-2.5195 -1.8477,-3.0781 -0.23047,-0.12109 -0.56641,-0.28906 -0.67969,-0.40234 z"
       id="path354" />
    <path
       d="m 260.17,354.3 c 2.0156,1.1211 8.1211,2.5742 10.527,3.1367 l 1.793,17.695 c -2.6875,-0.72656 -7.8945,-2.6328 -12.375,-6.7773 -5.543,-5.1523 -19.039,-22.289 -20.777,-37.742 0.78516,1.3984 1.5664,2.8008 2.5195,4.0312 6.1602,8.2891 15.512,18.086 18.312,19.656 z"
       id="path356" />
    <path
       d="m 272.83,378.1 11.367,112 c -4.1992,-2.4648 -7.8398,-4.8164 -11.367,-7.0547 -8.5117,-5.543 -20.215,-25.258 -31.527,-44.352 l -0.83984,-1.3984 c -8.9609,-15.121 -16.129,-30.352 -19.992,-38.527 -1.1758,-2.5742 -2.0703,-4.4258 -2.5195,-5.2656 -0.95312,-1.793 -1.6797,-3.1914 3.0781,-20.215 0.72656,6.5508 1.625,13.887 2.2383,15.68 0.83984,2.5742 10.473,18.535 19.824,33.77 l 1.6797,2.7422 c 0.83984,1.3984 4.9844,7.8945 8.457,7.8945 0.22266,0 0.44922,0 0.72656,-0.11328 2.4062,-0.67187 2.3516,-4.2578 2.2969,-5.375 l -0.11328,-7.5039 c -0.22266,-15.289 -0.67188,-43.68 -1.457,-47.711 -0.33594,-1.8477 -1.8477,-4.5938 -3.8633,-8.3438 -1.5117,-2.8008 -3.2461,-5.9922 -4.8164,-9.3516 4.8164,7.5039 10.023,13.383 12.207,15.457 5.6055,5.2031 12.156,7.1055 14.621,7.668 z"
       id="path358" />
    <path
       d="m 227.3,172.74 c -3.8086,-32.367 -4.3125,-47.992 -4.3125,-53.703 2.1289,-2.5195 4.7617,-4.0898 6.2148,-4.8164 24.754,-10.977 42.672,-24.695 56.953,-36.734 15.062,-12.656 27.328,-25.535 31.641,-31.695 1.6797,-2.4648 2.7422,-3.0234 2.8008,-3.1914 0.11328,0.16797 0.39062,0.61719 0.61719,1.5117 1.7344,6.9453 3.6406,12.488 5.7109,16.969 0.16797,0.39062 0.50391,0.72656 0.83984,1.0078 -0.67188,5.7695 -1.3438,21.895 -1.3438,67.594 0,30.855 -0.61719,56.055 -1.1211,74.426 -0.83984,32.648 -1.0078,43.062 1.793,45.754 2.4648,2.4062 11.816,10.023 18.762,14.391 v 56.449 l -63.336,-28.672 -35.281,-44.184 c -0.22266,-0.28125 -0.55859,-0.50391 -0.95312,-0.55859 l -9.2383,-1.2305 c -3.6992,-24.203 -6.9453,-49.793 -9.7461,-73.316 z"
       id="path360" />
    <path
       d="m 352.8,193.35 16.238,-10.695 v 19.879 l -17.023,12.207 -17.023,-12.207 v -19.879 l 16.238,10.695 c 0.50391,0.28125 1.0664,0.28125 1.5703,0 z"
       id="path362" />
    <path
       d="m 352.8,227.85 c -0.50391,0.33594 -1.0625,0.33594 -1.5664,0 l -16.238,-10.695 v 19.938 l 17.023,12.152 17.023,-12.152 v -19.938 z m 0,0 c -0.50391,0.33594 -1.0625,0.33594 -1.5664,0 l -16.238,-10.695 v 19.938 l 17.023,12.152 17.023,-12.152 v -19.938 z m 22.117,-32.09 c -1.0625,-21.449 -2.2969,-45.754 -2.2969,-67.984 0,-45.305 -2.0703,-60.48 -3.1367,-65.238 -1.2305,-0.28125 -2.1289,-1.3984 -2.1289,-2.6875 -0.22266,-0.44922 -2.4062,-1.5117 -5.9375,-0.72656 -5.4336,1.1758 -10.977,1.457 -11.258,1.457 h -0.11328 c -2.8008,0 -5.6016,-0.39062 -8.3438,-0.78516 -2.6875,-0.39062 -5.207,-0.72656 -7.6719,-0.72656 -1.1758,0 -1.625,0.16797 -1.7344,0.22266 0,0 -0.0547,0.22266 -0.0547,0.55859 0,1.1758 -0.72656,2.1836 -1.793,2.5742 -0.44922,4.5938 -1.2305,19.488 -1.2305,67.258 0,30.91 -0.61719,56.113 -1.1211,74.48 -0.61719,24.246 -1.0625,41.719 0.95312,43.68 4.7617,4.6484 20.887,16.801 23.742,16.801 2.7422,0 17.305,-11.145 22.566,-16.742 2.082,-2.4102 0.79297,-27.723 -0.44141,-52.141 z m -44.629,-81.309 c 0,-11.199 9.1289,-20.273 20.328,-20.273 11.1991,0 20.273,9.0703 20.273,20.273 v 33.434 c 0,11.199 -9.0703,20.328 -20.273,20.328 -11.199,0 -20.328,-9.1289 -20.328,-20.328 z m 41.551,123.31 c 0,0.44922 -0.22266,0.89453 -0.55859,1.1758 l -18.48,13.16 c -0.22266,0.16797 -0.50391,0.28125 -0.78516,0.28125 -0.28125,0 -0.55859,-0.11328 -0.83984,-0.28125 l -18.426,-13.16 c -0.33594,-0.28125 -0.55859,-0.72656 -0.55859,-1.1758 v -23.184 c 0,-0.50391 0.28125,-1.0078 0.72656,-1.2305 0.44922,-0.28125 1.0078,-0.22266 1.457,0.0547 l 17.641,11.648 17.641,-11.648 c 0.44922,-0.28125 1.0078,-0.33594 1.457,-0.0547 0.44922,0.22266 0.72656,0.72656 0.72656,1.2305 z m 0,-34.492 c 0,0.44922 -0.22266,0.89453 -0.55859,1.1211 l -18.48,13.215 c -0.22266,0.16797 -0.50391,0.22266 -0.78516,0.22266 -0.28125,0 -0.55859,-0.0547 -0.83984,-0.22266 l -18.426,-13.215 c -0.33594,-0.22266 -0.55859,-0.67188 -0.55859,-1.1211 v -23.238 c 0,-0.50391 0.28125,-0.95312 0.72656,-1.2305 0.44922,-0.22266 1.0078,-0.16797 1.457,0.11328 l 17.641,11.594 17.641,-11.594 c 0.44922,-0.28125 1.0078,-0.33594 1.457,-0.11328 0.44922,0.28125 0.72656,0.72656 0.72656,1.2305 z m -20.609,24.582 -16.238,-10.695 v 19.938 l 17.023,12.152 17.023,-12.152 V 217.156 L 352.8,227.851 c -0.50391,0.33594 -1.0664,0.33594 -1.5703,0 z m -0.61328,-62.441 c 9.6328,0 17.473,-7.8398 17.473,-17.527 v -33.434 c 0,-9.6328 -7.8398,-17.473 -17.473,-17.473 -9.6875,0 -17.527,7.8398 -17.527,17.473 v 33.434 c -0.004,9.6875 7.8398,17.527 17.527,17.527 z"
       id="path364" />
    <path
       d="m 465.58,328.93 v 0.22266 c 0,1.7344 -3.3594,15.734 -9.5742,25.09 -6.1602,9.2383 -12.77,15.176 -14.391,16.016 -1.2305,0.61719 -5.543,2.4062 -8.1758,3.4727 l 1.5117,-18.535 c 1.9609,-0.39062 6.0469,-1.2305 8.7344,-2.2383 3.9766,-1.5117 13.496,-9.5195 18.762,-18.199 1.1172,-1.8555 2.1836,-3.8711 3.1328,-5.8281 z"
       id="path366" />
    <path
       d="m 433.16,343.6 -12.32,145.88 c -4.9844,2.6328 -11.199,5.6562 -18.594,9.2969 -5.0391,2.4648 -10.695,5.207 -16.91,8.3438 -19.879,9.8555 -30.07,10.641 -32.703,10.641 -3.8086,0 -18.367,-4.0312 -38.977,-12.879 -11.145,-4.8164 -19.488,-9.1289 -26.434,-13.047 l -14.84,-145.94 c -0.0547,-0.39063 -0.28125,-0.78516 -0.61719,-1.0078 l -16.406,-11.367 c -0.78516,-2.8008 -5.207,-18.199 -11.031,-46.312 -2.4648,-11.871 -4.7031,-24.863 -6.832,-38.305 l 7.8945,1.1211 35.168,44.016 c 0.11328,0.16797 0.33594,0.28125 0.50391,0.39062 l 65.633,29.734 c 0.16797,0.0547 0.39062,0.11328 0.55859,0.11328 0.28125,0 0.55859,-0.0547 0.78516,-0.22266 0.39062,-0.22266 0.61719,-0.67188 0.61719,-1.1758 v -57.012 c 1.793,0.95312 3.2461,1.5664 4.1445,1.5664 0.89453,0 2.2969,-0.61719 3.9219,-1.5117 v 56.953 c 0,0.50391 0.22266,0.95312 0.67188,1.1758 0.22266,0.16797 0.44922,0.22266 0.72656,0.22266 0.22266,0 0.39062,-0.0547 0.61719,-0.11328 l 64.902,-30.465 c 0.22266,-0.11328 0.39062,-0.22266 0.50391,-0.44922 l 33.711,-44.801 9.3516,-3.1367 c -6.2148,39.312 -15.289,80.137 -16.406,85.176 l -17.078,12.098 c -0.33984,0.23047 -0.5625,0.62109 -0.5625,1.0156 z"
       id="path368" />
    <path
       d="m 375.42,127.78 c 0,-44.969 -2.0156,-60.648 -3.2461,-66.023 0.27734,-0.28125 0.5,-0.61719 0.66797,-1.0664 0.95312,-2.9688 1.625,-5.543 2.2969,-7.8945 0.95312,-3.5273 1.7344,-6.2734 2.9688,-9.1836 1.1758,1.0078 3.0781,3.1367 4.9844,5.207 4.5352,4.9844 11.367,12.488 22.176,21.785 29.062,24.641 54.602,37.184 61.77,40.488 l 2.1289,0.95312 c 3.4141,1.5117 4.5938,2.0156 7.7852,5.3203 0.44922,0.50391 0.89453,1.0078 1.2305,1.5664 -0.11328,1.9023 -0.22266,4.4258 -0.39062,7.4492 -1.0625,21.168 -3.5273,70.84 -8.9609,108.19 -0.33594,2.5195 -0.72656,5.0391 -1.1211,7.6172 l -11.148,3.75 c -0.28125,0.11328 -0.50391,0.28125 -0.67188,0.50391 l -33.77,44.855 -62.609,29.398 0.004,-56.391 c 6.3828,-4.0898 14.785,-11.145 17.863,-14.504 2.8008,-2.9688 2.0703,-19.711 0.33594,-54.207 -1.0625,-21.395 -2.293,-45.641 -2.293,-67.816 z"
       id="path370" />
    <path
       d="m 471.52,330.78 c 2.1289,8.2305 6.3828,22.062 10.137,34.105 -0.61719,5.8789 -2.1836,17.246 -5.8242,25.145 -4.7031,10.191 -11.648,22.344 -15.398,28.84 l -1.1758,2.0156 c -0.39062,0.78516 -0.83984,1.5664 -1.2305,2.3516 -0.72656,1.2891 -1.6797,3.0234 -2.2969,3.8633 -0.28125,-0.78516 -0.61719,-2.4648 -0.83984,-6.1055 -0.83984,-13.609 0.39062,-43.902 0.72656,-49.391 0.11328,-2.0703 1.9609,-6.3828 3.9219,-10.977 3.2461,-7.5586 6.8867,-16.07 6.6641,-22.23 1.3984,-4.4805 2.1836,-8.1211 2.1836,-9.2383 0,-1.793 -0.55859,-3.9219 -0.78516,-4.8164 0.50391,-1.2891 0.95312,-2.4648 1.3984,-3.5859 0.67188,2.7422 1.5117,6.0469 2.5195,10.023 z"
       id="path372" />
    <path
       d="m 471.63,234.96 c 5.375,-37.465 7.8945,-87.191 8.9609,-108.47 0.0547,-0.16797 0.0547,-0.33594 0.0547,-0.50391 0.39062,2.8008 0.61719,6.2734 0.78516,11.031 0.72656,26.992 -1.457,48.887 -3.9219,74.258 l -0.39062,3.6406 c -1.5117,15.512 -3.4727,30.801 -5.0391,43.062 -1.1211,8.9023 -2.0703,16.52 -2.6328,22.121 -1.3438,13.383 -3.0781,29.176 -3.0781,29.176 0,0.33594 0,0.61719 0.0547,0.95312 0,0 0.39062,1.793 1.3438,5.6016 -1.3438,4.0312 -4.1445,11.594 -7.7266,17.473 -5.0391,8.2891 -14.223,15.848 -17.359,17.023 -2.1289,0.83984 -5.4336,1.5664 -7.4492,1.9609 l 0.67188,-7.7852 16.969,-11.984 c 0.28125,-0.22266 0.44922,-0.50391 0.55859,-0.83984 0.10937,-0.50781 11.703,-51.918 18.199,-96.715 z"
       id="path374" />
    <path
       d="m 487.48,383.08 c 1.625,4.9297 1.2891,5.7109 -3.0234,15.457 l -0.61719,1.457 c -14.336,32.648 -32.762,60.871 -39.762,71.512 l -1.793,2.7422 c -3.8633,5.9922 -7.2227,7.7266 -12.824,10.641 -1.3438,0.72656 -2.8008,1.457 -4.3672,2.3516 -0.39062,0.22266 -0.89453,0.44922 -1.3438,0.67188 l 9.4062,-111.05 c 2.1289,-0.89453 8.1211,-3.3594 9.6875,-4.1445 2.1289,-1.0625 9.0703,-7.2812 15.512,-16.91 0.22266,-0.39062 0.44922,-0.78516 0.67188,-1.1758 -0.67188,1.6797 -1.3984,3.3594 -2.0703,4.8711 -2.2383,5.2656 -3.9766,9.4062 -4.1445,11.93 -0.33594,5.543 -1.5664,36.008 -0.72656,49.727 0.44922,6.4414 1.1758,8.7344 2.9688,9.1289 0.16797,0.0547 0.33594,0.0547 0.44922,0.0547 1.793,0 3.0781,-2.3516 4.9844,-5.7695 0.39062,-0.78516 0.78516,-1.5117 1.2305,-2.2969 l 1.1758,-2.0156 c 3.7539,-6.5508 10.754,-18.762 15.512,-29.062 2.7422,-6.0469 4.3672,-13.777 5.3203,-19.938 1.457,4.707 2.8008,8.8516 3.7539,11.816 z"
       id="path376" />
  </g>
</svg>
