<?xml version="1.0" encoding="UTF-8" standalone="no"?>
<svg
   viewBox="0 0 128 128"
   version="1.1"
   id="svg4"
   sodipodi:docname="devify.svg"
   width="128"
   height="128"
   inkscape:version="1.2.2 (b0a8486541, 2022-12-01)"
   xmlns:inkscape="http://www.inkscape.org/namespaces/inkscape"
   xmlns:sodipodi="http://sodipodi.sourceforge.net/DTD/sodipodi-0.dtd"
   xmlns="http://www.w3.org/2000/svg"
   xmlns:svg="http://www.w3.org/2000/svg">
  <defs
     id="defs8">
    <linearGradient
       id="linearGradient3042"
       inkscape:swatch="solid">
      <stop
         style="stop-color:#fafafa;stop-opacity:1;"
         offset="0"
         id="stop3040" />
    </linearGradient>
    <linearGradient
       id="linearGradient3036"
       inkscape:swatch="solid">
      <stop
         style="stop-color:#fafafa;stop-opacity:1;"
         offset="0"
         id="stop3034" />
    </linearGradient>
    <linearGradient
       id="linearGradient3030"
       inkscape:swatch="solid">
      <stop
         style="stop-color:#fafafa;stop-opacity:1;"
         offset="0"
         id="stop3028" />
    </linearGradient>
  </defs>
  <sodipodi:namedview
     id="namedview6"
     pagecolor="#ffffff"
     bordercolor="#000000"
     borderopacity="0.25"
     inkscape:showpageshadow="2"
     inkscape:pageopacity="0.0"
     inkscape:pagecheckerboard="true"
     inkscape:deskcolor="#d1d1d1"
     showgrid="false"
     inkscape:zoom="3.170932"
     inkscape:cx="22.86394"
     inkscape:cy="80.733362"
     inkscape:window-width="1520"
     inkscape:window-height="911"
     inkscape:window-x="191"
     inkscape:window-y="62"
     inkscape:window-maximized="0"
     inkscape:current-layer="svg4"
     showguides="true" />
  <path
     id="path930"
     style="stroke-width:6.2;opacity:0.5"
     d="M 64 4 A 62 62 0 0 0 2 66 A 62 62 0 0 0 64 128 A 62 62 0 0 0 126 66 A 62 62 0 0 0 64 4 z M 42.400391 28 L 71.199219 28 A 14.399999 14.399999 0 0 1 85.599609 42.400391 L 85.599609 85.599609 A 14.399999 14.399999 0 0 1 71.199219 100 L 42.400391 100 L 42.400391 28 z M 56.800781 42.400391 L 56.800781 85.599609 L 71.199219 85.599609 L 71.199219 42.400391 L 56.800781 42.400391 z " />
  <path
     id="path863"
     style="stroke-width:6.2"
     d="M 64 2 A 62 62 0 0 0 2 64 A 62 62 0 0 0 64 126 A 62 62 0 0 0 126 64 A 62 62 0 0 0 64 2 z M 42.400391 28 L 71.199219 28 A 14.399999 14.399999 0 0 1 85.599609 42.400391 L 85.599609 85.599609 A 14.399999 14.399999 0 0 1 71.199219 100 L 42.400391 100 L 42.400391 28 z M 56.800781 42.400391 L 56.800781 85.599609 L 71.199219 85.599609 L 71.199219 42.400391 L 56.800781 42.400391 z "
     fill="#d0d0d0" />
</svg>
