<?xml version="1.0" encoding="UTF-8" standalone="no"?>
<svg
   version="1.1"
   x="0px"
   y="0px"
   viewBox="0 0 84.819999 84.695"
   xml:space="preserve"
   id="svg14"
   fill="#d0d0d0"
   sodipodi:docname="generic_mouse.svg"
   width="84.82"
   height="84.695"
   inkscape:version="1.2.2 (b0a8486541, 2022-12-01)"
   xmlns:inkscape="http://www.inkscape.org/namespaces/inkscape"
   xmlns:sodipodi="http://sodipodi.sourceforge.net/DTD/sodipodi-0.dtd"
   xmlns="http://www.w3.org/2000/svg"
   xmlns:svg="http://www.w3.org/2000/svg"><defs
     id="defs18" /><sodipodi:namedview
     id="namedview16"
     pagecolor="#ffffff"
     bordercolor="#000000"
     borderopacity="0.25"
     inkscape:showpageshadow="2"
     inkscape:pageopacity="0.0"
     inkscape:pagecheckerboard="0"
     inkscape:deskcolor="#d1d1d1"
     showgrid="false"
     inkscape:zoom="10.459563"
     inkscape:cx="34.370461"
     inkscape:cy="48.80701"
     inkscape:window-width="1876"
     inkscape:window-height="994"
     inkscape:window-x="0"
     inkscape:window-y="0"
     inkscape:window-maximized="1"
     inkscape:current-layer="svg14" /><style
     type="text/css"
     id="style2">
	.st0{fill:none;stroke:#000000;stroke-linejoin:round;stroke-miterlimit:10;}
	.st1{fill:none;stroke:#000000;stroke-width:0.5;stroke-linejoin:round;stroke-miterlimit:10;}
	.st2{fill:none;stroke:#000000;stroke-width:0.75;stroke-linejoin:round;stroke-miterlimit:10;}
	.st3{fill:none;stroke:#000000;stroke-linecap:round;stroke-linejoin:round;stroke-miterlimit:10;}
	.st4{fill:none;stroke:#000000;stroke-width:0.5;stroke-linecap:round;stroke-linejoin:round;stroke-miterlimit:10;}
	.st5{fill:none;stroke:#000000;stroke-miterlimit:10;}
	.st6{fill:none;stroke:#000000;stroke-width:0.5;stroke-miterlimit:10;}
</style><g
     id="g8"
     transform="translate(-7.5899987,-7.6525912)"><g
       id="g6"><path
         d="m 70.539978,64.87262 c -0.130005,-1.410031 -0.25,-2.749997 -0.309998,-4.080014 -0.06,-1.580017 -0.119995,-2.589966 -0.169982,-3.200012 -0.159974,0.119995 -0.349976,0.200012 -0.570008,0.230042 -0.04999,0.679992 -0.109985,1.359985 -0.190002,2.019958 l -0.01996,0.140015 c -0.5,3.970031 -1.020019,8.070003 -1.020019,10.580013 0,2.820007 0.659973,5.200012 1.450012,5.200012 0.359985,0 0.639954,-0.26001 0.849976,-0.570007 0.22998,-1.26001 0.349975,-2.530029 0.349975,-3.820007 0,-2.299988 -0.190002,-4.429993 -0.369995,-6.5 z m -0.829956,11.390014 c -1.550049,0 -1.950012,-3.730041 -1.950012,-5.700012 0,-2.540039 0.520019,-6.66003 1.029968,-10.640011 l 0.01001,-0.150024 c 0.410034,-3.209961 0.390014,-6.73999 0.359985,-10.479981 0,-0.929992 -0.0099,-1.880005 -0.0099,-2.839965 0,-4.340027 0.109985,-7.590027 0.179992,-9.54004 l 0.01001,-0.130004 -0.130005,-0.159974 c -0.07001,-0.09003 -0.110046,-0.210022 -0.110046,-0.330017 0.01001,-0.08002 0.330017,-7.919983 -0.349976,-10.599975 -0.630005,-2.450012 -1.770019,-5.5 -5.080017,-7.480042 -2.97998,-1.789978 -6.690002,-2.690003 -11.019958,-2.690003 H 52.52002 c -0.05005,0.280029 -0.100037,0.640015 -0.100037,0.940003 0,0.790039 0.320007,2.360047 0.780029,3.360047 0.469971,1.039978 0.619995,1.869995 0.859986,4.959961 0.23999,3.119995 0.150024,6.179992 -0.08002,10.110046 -0.169983,2.859985 -0.899964,5.72998 -2.119995,8.309998 -0.729981,1.549987 -1.380005,1.679992 -2.089966,1.679992 -0.670044,0 -1.27002,-0.550049 -1.900025,-1.730041 -0.559997,-1.079956 -1.349975,-3.139954 -1.890014,-6.849976 -0.519959,-3.630005 -0.419983,-8.460022 -0.289978,-10.73999 0.130005,-2.02002 0.270019,-3.710022 0.859985,-5.390015 0.580017,-1.669983 0.840027,-3.21997 0.840027,-3.789978 0,-0.300048 -0.03003,-0.610047 -0.06,-0.860047 h -0.98999 c -1.940002,0 -5.720031,0.290039 -9.240051,2.200013 -2.899963,1.590027 -6.289978,5.549988 -6.289978,11.5 v 7.320008 c 0,0.130004 -0.06,0.260009 -0.150024,0.359985 l -0.08997,0.09003 c 0.02997,1.700012 0.149963,7.809997 0.119995,10.51001 l -0.01001,1.349975 c -0.03998,2.820008 -0.08002,6 0.340027,9.650025 0.119995,1.079956 0.269959,2.190002 0.409973,3.320007 0.410034,3.299984 0.850037,6.709957 0.850037,9.189999 0,3.529968 -0.660034,5.46997 -1.860047,5.46997 -0.339966,0 -0.649963,-0.169983 -0.909973,-0.390014 0.119995,0.700012 0.409973,1.820007 1.02002,3.320007 0.759948,1.869995 3.079956,7.570007 9.379943,10.910034 6.630005,3.509949 15.79004,1.409973 16.170044,1.320007 5.409974,-1.540039 8.369995,-3.600036 10.899964,-7.590026 1.679993,-2.659974 2.809997,-5.309998 3.410034,-7.989991 -0.200013,0.119995 -0.420044,0.200012 -0.679993,0.200012 z M 30.929993,61.882633 c -0.140015,-1.130005 -0.279969,-2.23999 -0.409973,-3.320007 -0.03003,-0.290039 -0.04004,-0.549988 -0.07001,-0.830017 -0.190002,-0.02002 -0.369995,-0.08002 -0.530029,-0.169983 -0.219971,2.839966 -0.829956,11.769955 -0.829956,14.709957 0,1.930054 0.190002,2.280029 0.339966,2.540039 0.08002,0.140015 0.09003,0.320007 0.01001,0.469971 0.25,0.320007 0.619995,0.700012 0.97998,0.700012 0.619995,0 1.360046,-1.299988 1.360046,-4.969971 0,-2.450012 -0.430053,-5.850036 -0.850036,-9.130001 z m -0.529969,-4.670044 c -0.270019,-3.109985 -0.25,-5.889953 -0.220031,-8.359985 l 0.01001,-1.359986 c 0,-0.150024 0.01001,-0.330017 0.01001,-0.5 -0.08002,1.690003 -0.190002,3.059998 -0.290039,4.27002 -0.119995,1.429993 -0.219971,2.659973 -0.219971,4.019958 0,1.02002 0.03998,1.080018 0.169983,1.25 0.07001,0.100037 0.119995,0.25 0.109986,0.369996 v 0.08002 c 0.130005,0.09998 0.280029,0.190002 0.430053,0.22998 z M 49.940002,33.052616 c -0.369995,0 -0.679992,0.309998 -0.679992,0.679993 0,0.369995 0.309997,0.669983 0.679992,0.669983 0.369995,0 0.669983,-0.299988 0.669983,-0.669983 0,-0.369995 -0.299987,-0.679993 -0.669983,-0.679993 z m 1.150025,3.409973 h -1.970032 c -1.219971,0 -1.390014,0.290039 -1.390014,0.610047 0,0.709961 0.540039,2.339965 0.900024,3.269958 0.450012,1.140015 0.97998,2.26001 1.219971,2.600037 0.240051,-0.28003 0.780029,-1.220032 1.290039,-2.580017 C 51.669983,38.942631 52,37.902592 52,37.132633 c 0,-0.5 -0.48999,-0.670044 -0.909973,-0.670044 z m 0,0 h -1.970032 c -1.219971,0 -1.390014,0.290039 -1.390014,0.610047 0,0.709961 0.540039,2.339965 0.900024,3.269958 0.450012,1.140015 0.97998,2.26001 1.219971,2.600037 0.240051,-0.28003 0.780029,-1.220032 1.290039,-2.580017 C 51.669983,38.942631 52,37.902592 52,37.132633 c 0,-0.5 -0.48999,-0.670044 -0.909973,-0.670044 z m -1.150025,-3.409973 c -0.369995,0 -0.679992,0.309998 -0.679992,0.679993 0,0.369995 0.309997,0.669983 0.679992,0.669983 0.369995,0 0.669983,-0.299988 0.669983,-0.669983 0,-0.369995 -0.299987,-0.679993 -0.669983,-0.679993 z m 3.619996,-8.22998 c -0.25,-3.200013 -0.390015,-3.860047 -0.820008,-4.790039 -0.47998,-1.059998 -0.820007,-2.729981 -0.820007,-3.570008 0,-0.309997 0.04999,-0.659974 0.09003,-0.940003 H 47.83002 c 0.02997,0.25 0.06,0.559998 0.06,0.860047 0,0.699951 -0.299988,2.329956 -0.869995,3.949951 -0.570008,1.630005 -0.710022,3.28003 -0.830017,5.26001 -0.130005,2.26001 -0.229981,7.050049 0.289978,10.640015 0.520019,3.640014 1.290038,5.640014 1.840026,6.679992 0.52002,0.989991 1,1.470032 1.450013,1.470032 0.48999,0 0.97998,0 1.639953,-1.400024 1.190002,-2.51001 1.910034,-5.320008 2.070007,-8.119995 0.230042,-3.909974 0.320008,-6.950013 0.08002,-10.039978 z m -1.950013,15.71997 c -0.04999,0.119995 -1.119995,2.960022 -1.769958,2.960022 -0.140015,0 -0.5,0 -1.670044,-2.980041 -0.329956,-0.829956 -0.940002,-2.609986 -0.940002,-3.449951 0,-1.110047 1.320007,-1.110047 1.890014,-1.110047 h 1.970032 c 0.829956,0 1.409973,0.480042 1.409973,1.170044 0,0.849976 -0.340027,1.929993 -0.890015,3.409973 z M 48.76001,33.732609 c 0,-0.650025 0.529968,-1.179993 1.179992,-1.179993 0.640015,0 1.169983,0.529968 1.169983,1.179993 0,0.640014 -0.529968,1.169983 -1.169983,1.169983 -0.650024,0 -1.179992,-0.529969 -1.179992,-1.169983 z m 4.25,-5.710022 c 0,1.720031 -1.390015,3.110046 -3.109986,3.110046 -1.710022,0 -3.100036,-1.390014 -3.100036,-3.110046 v -4.389954 c 0,-1.720032 1.390014,-3.110046 3.100036,-3.110046 1.719971,0 3.109986,1.390014 3.109986,3.110046 z m -3.109986,-7 c -1.430053,0 -2.600036,1.170044 -2.600036,2.610046 v 4.389954 c 0,1.440002 1.169983,2.610046 2.600036,2.610046 1.440003,0 2.609986,-1.170044 2.609986,-2.610046 v -4.389954 c 0,-1.440002 -1.169983,-2.610046 -2.609986,-2.610046 z m 1.190003,15.440002 h -1.970032 c -1.219971,0 -1.390014,0.290039 -1.390014,0.610047 0,0.709961 0.540039,2.339965 0.900024,3.269958 0.450012,1.140015 0.97998,2.26001 1.219971,2.600037 0.240051,-0.28003 0.780029,-1.220032 1.290039,-2.580017 C 51.669983,38.942631 52,37.902592 52,37.132633 c 0,-0.5 -0.48999,-0.670044 -0.909973,-0.670044 z m -0.480042,-2.72998 c 0,-0.369995 -0.299987,-0.679993 -0.669983,-0.679993 -0.369995,0 -0.679992,0.309998 -0.679992,0.679993 0,0.369995 0.309997,0.669983 0.679992,0.669983 0.369996,0 0.669983,-0.299988 0.669983,-0.669983 z m 0.480042,2.72998 h -1.970032 c -1.219971,0 -1.390014,0.290039 -1.390014,0.610047 0,0.709961 0.540039,2.339965 0.900024,3.269958 0.450012,1.140015 0.97998,2.26001 1.219971,2.600037 0.240051,-0.28003 0.780029,-1.220032 1.290039,-2.580017 C 51.669983,38.942631 52,37.902592 52,37.132633 c 0,-0.5 -0.48999,-0.670044 -0.909973,-0.670044 z m 0,0 h -1.970032 c -1.219971,0 -1.390014,0.290039 -1.390014,0.610047 0,0.709961 0.540039,2.339965 0.900024,3.269958 0.450012,1.140015 0.97998,2.26001 1.219971,2.600037 0.240051,-0.28003 0.780029,-1.220032 1.290039,-2.580017 C 51.669983,38.942631 52,37.902592 52,37.132633 c 0,-0.5 -0.48999,-0.670044 -0.909973,-0.670044 z M 49.390015,7.6525912 v 7.3500358 h 1.21997 V 7.6525912 Z M 70.289978,55.142643 c 0,-0.210022 -0.109985,-1.640015 -0.219971,-3.150024 -0.150024,-2.160035 -0.350036,-4.78003 -0.419983,-6.289978 v 0.75 c 0,0.95996 0.0099,1.899963 0.0099,2.829956 0.02002,2.809997 0.04004,5.5 -0.119995,8.040039 0.170044,-0.06 0.320007,-0.190003 0.470032,-0.390015 -0.01,-0.130005 -0.01997,-0.190002 -0.01997,-0.190002 -0.01001,-0.109986 0.01001,-0.220032 0.06,-0.320008 0,0 0.23999,-0.440002 0.23999,-1.279968 z"
         id="path4" /></g></g></svg>
