<?xml version="1.0" encoding="UTF-8" standalone="no"?>
<!-- Created with Inkscape (http://www.inkscape.org/) -->

<svg
   id="svg4026"
   sodipodi:docname="1482104496.svg"
   viewBox="0 0 128 128"
   version="1.1"
   inkscape:version="1.2.2 (b0a8486541, 2022-12-01)"
   width="128"
   height="128"
   xmlns:inkscape="http://www.inkscape.org/namespaces/inkscape"
   xmlns:sodipodi="http://sodipodi.sourceforge.net/DTD/sodipodi-0.dtd"
   xmlns="http://www.w3.org/2000/svg"
   xmlns:svg="http://www.w3.org/2000/svg"
   xmlns:rdf="http://www.w3.org/1999/02/22-rdf-syntax-ns#"
   xmlns:cc="http://creativecommons.org/ns#"
   xmlns:dc="http://purl.org/dc/elements/1.1/">
  <defs
     id="defs3023" />
  <sodipodi:namedview
     id="base"
     bordercolor="#666666"
     inkscape:pageshadow="2"
     inkscape:window-y="32"
     pagecolor="#ffffff"
     inkscape:window-height="1048"
     inkscape:window-maximized="1"
     inkscape:zoom="4.5439504"
     inkscape:window-x="0"
     showgrid="false"
     borderopacity="1.0"
     inkscape:current-layer="layer1"
     inkscape:cx="52.267296"
     inkscape:cy="84.838074"
     inkscape:window-width="1920"
     inkscape:pageopacity="0.0"
     inkscape:document-units="px"
     fit-margin-top="0"
     fit-margin-left="0"
     fit-margin-right="0"
     fit-margin-bottom="0"
     inkscape:showpageshadow="2"
     inkscape:pagecheckerboard="true"
     inkscape:deskcolor="#d1d1d1"
     showguides="false" />
  <g
     id="layer1"
     inkscape:label="Layer 1"
     inkscape:groupmode="layer"
     transform="translate(32.935298,-798.16272)">
    <path
       id="path1000"
       style="fill-opacity:1;stroke:none;stroke-width:0.69423"
       d="m -22.546255,850.81369 -10.389043,5.99858 v 11.9958 l 10.389043,5.99858 10.389043,-5.99858 v -11.9958 z m 107.221918,0 -10.38904,5.99858 v 11.9958 l 10.38904,5.99858 10.389038,-5.99858 v -11.9958 z m -107.221918,5.74909 c 3.450704,0 6.248069,2.79738 6.248069,6.24807 0,3.45071 -2.797365,6.24807 -6.248069,6.24807 -3.450704,0 -6.24807,-2.79736 -6.24807,-6.24807 0,-3.45069 2.797366,-6.24807 6.24807,-6.24807 z m 107.221918,0 c 3.450717,0 6.248069,2.79738 6.248069,6.24807 0,3.45071 -2.797352,6.24807 -6.248069,6.24807 -3.450692,0 -6.24807,-2.79736 -6.24807,-6.24807 0,-3.45069 2.797379,-6.24807 6.24807,-6.24807 z M 2.1409415,845.37917 c -2.301725,0 -4.5019237,0.91465 -6.1016301,2.42844 -1.5997065,1.51381 -2.604764,3.73339 -2.2115022,6.1274 l 2.7769198,16.90558 c 0.3493602,2.12676 1.2150788,4.11252 2.6182772,5.61621 1.4031991,1.5037 3.3931301,2.48947 5.6948553,2.48947 H 57.212904 c 2.301713,0 4.291654,-0.98577 5.694853,-2.48947 1.403205,-1.50369 2.267562,-3.48945 2.616919,-5.61621 l 2.776921,-16.90558 c 0.393266,-2.39401 -0.610437,-4.61359 -2.210144,-6.1274 -1.599707,-1.51379 -3.799916,-2.42844 -6.101629,-2.42844 z m 2.996579,7.50093 c 1.725352,0 3.124035,1.3987 3.124035,3.12404 0,1.72535 -1.398683,3.12403 -3.124035,3.12403 -1.7253531,0 -3.1240348,-1.39868 -3.1240348,-3.12403 0,-1.72534 1.3986817,-3.12404 3.1240348,-3.12404 z m 12.9639305,0 c 1.725351,0 3.124034,1.3987 3.124034,3.12404 0,1.72535 -1.398683,3.12403 -3.124034,3.12403 -1.725353,0 -3.124035,-1.39868 -3.124035,-3.12403 0,-1.72534 1.398682,-3.12404 3.124035,-3.12404 z m 12.96393,0 c 1.725353,0 3.124035,1.3987 3.124035,3.12404 0,1.72535 -1.398682,3.12403 -3.124035,3.12403 -1.725352,0 -3.124034,-1.39868 -3.124034,-3.12403 0,-1.72534 1.398682,-3.12404 3.124034,-3.12404 z m 12.963932,0 c 1.725353,0 3.124035,1.3987 3.124035,3.12404 0,1.72535 -1.398682,3.12403 -3.124035,3.12403 -1.725353,0 -3.124035,-1.39868 -3.124035,-3.12403 0,-1.72534 1.398682,-3.12404 3.124035,-3.12404 z m 12.963931,0 c 1.725354,0 3.124033,1.3987 3.124033,3.12404 0,1.72535 -1.398679,3.12403 -3.124034,3.12403 -1.725351,0 -3.124035,-1.39868 -3.124035,-3.12403 0,-1.72534 1.398685,-3.12404 3.124036,-3.12404 z m -45.374436,12.31581 c 1.725353,0 3.124035,1.39868 3.124035,3.12403 0,1.72536 -1.398682,3.12404 -3.124035,3.12404 -1.7253525,0 -3.1240355,-1.39868 -3.1240355,-3.12404 0,-1.72535 1.398683,-3.12403 3.1240355,-3.12403 z m 12.963931,0 c 1.725354,0 3.124034,1.39868 3.124034,3.12403 0,1.72536 -1.39868,3.12404 -3.124034,3.12404 -1.725352,0 -3.124035,-1.39868 -3.124035,-3.12404 0,-1.72535 1.398683,-3.12403 3.124035,-3.12403 z m 12.96393,0 c 1.725352,0 3.124035,1.39868 3.124035,3.12403 0,1.72536 -1.398683,3.12404 -3.124035,3.12404 -1.725352,0 -3.124035,-1.39868 -3.124035,-3.12404 0,-1.72535 1.398683,-3.12403 3.124035,-3.12403 z m 12.963931,0 c 1.725353,0 3.124035,1.39868 3.124035,3.12403 0,1.72536 -1.398682,3.12404 -3.124035,3.12404 -1.725352,0 -3.124035,-1.39868 -3.124035,-3.12404 0,-1.72535 1.398683,-3.12403 3.124035,-3.12403 z"
       fill="#d0d0d0" />
  </g>
  <metadata
     id="metadata3021">
    <rdf:RDF>
      <cc:Work>
        <dc:format>image/svg+xml</dc:format>
        <dc:type
           rdf:resource="http://purl.org/dc/dcmitype/StillImage" />
        <cc:license
           rdf:resource="http://creativecommons.org/publicdomain/zero/1.0/" />
        <dc:publisher>
          <cc:Agent
             rdf:about="http://openclipart.org/">
            <dc:title>Openclipart</dc:title>
          </cc:Agent>
        </dc:publisher>
        <dc:title>DB9-Feale</dc:title>
        <dc:date>2010-08-18T08:21:28</dc:date>
        <dc:description>DB9-Male,9 pin,port,modem,bujung</dc:description>
        <dc:source>https://openclipart.org/detail/81241/db9-feale-by-aungkarns</dc:source>
        <dc:creator>
          <cc:Agent>
            <dc:title>aungkarns</dc:title>
          </cc:Agent>
        </dc:creator>
        <dc:subject>
          <rdf:Bag>
            <rdf:li>9 pin</rdf:li>
            <rdf:li>DB9-Male</rdf:li>
            <rdf:li>bujung</rdf:li>
            <rdf:li>modem</rdf:li>
            <rdf:li>port</rdf:li>
          </rdf:Bag>
        </dc:subject>
      </cc:Work>
      <cc:License
         rdf:about="http://creativecommons.org/publicdomain/zero/1.0/">
        <cc:permits
           rdf:resource="http://creativecommons.org/ns#Reproduction" />
        <cc:permits
           rdf:resource="http://creativecommons.org/ns#Distribution" />
        <cc:permits
           rdf:resource="http://creativecommons.org/ns#DerivativeWorks" />
      </cc:License>
    </rdf:RDF>
  </metadata>
</svg>
