<?xml version="1.0" encoding="UTF-8" standalone="no"?>
<svg
   version="1.1"
   id="Capa_1"
   x="0px"
   y="0px"
   viewBox="0 0 1100 1100.6629"
   enable-background="new 0 0 1200 1200"
   xml:space="preserve"
   sodipodi:docname="generic_keyboard.svg"
   width="1100"
   height="1100.663"
   inkscape:version="1.2.2 (b0a8486541, 2022-12-01)"
   xmlns:inkscape="http://www.inkscape.org/namespaces/inkscape"
   xmlns:sodipodi="http://sodipodi.sourceforge.net/DTD/sodipodi-0.dtd"
   xmlns="http://www.w3.org/2000/svg"
   xmlns:svg="http://www.w3.org/2000/svg"><defs
   id="defs7" /><sodipodi:namedview
   id="namedview5"
   pagecolor="#ffffff"
   bordercolor="#000000"
   borderopacity="0.25"
   inkscape:showpageshadow="2"
   inkscape:pageopacity="0.0"
   inkscape:pagecheckerboard="0"
   inkscape:deskcolor="#d1d1d1"
   showgrid="false"
   inkscape:zoom="0.72583333"
   inkscape:cx="295.52239"
   inkscape:cy="659.24225"
   inkscape:window-width="1876"
   inkscape:window-height="994"
   inkscape:window-x="0"
   inkscape:window-y="0"
   inkscape:window-maximized="1"
   inkscape:current-layer="Capa_1" />
<path
   d="m 537.68807,440.15298 0.707,29.681 c 0.078,3.264 -2.547,5.952 -5.812,5.952 h -41.988 c -3.265,0 -5.89,-2.688 -5.812,-5.952 l 0.708,-29.681 c 0.075,-3.156 2.655,-5.675 5.811,-5.675 h 40.574 c 3.157,0 5.736,2.52 5.812,5.675 z m -95.065,48.713 c -3.136,0 -5.707,2.487 -5.81,5.622 l -1.111,33.679 c -0.108,3.284 2.525,6.005 5.81,6.005 h 42.022 c 3.235,0 5.847,-2.641 5.813,-5.875 l -0.359,-33.679 c -0.034,-3.186 -2.627,-5.751 -5.813,-5.751 h -40.552 z m 70.56,58.386 h -41.532 c -3.184,0 -5.775,2.561 -5.813,5.744 l -0.354,29.681 c -0.038,3.237 2.575,5.882 5.813,5.882 h 42.219 c 3.236,0 5.849,-2.643 5.813,-5.879 l -0.334,-29.681 c -0.035,-3.184 -2.627,-5.747 -5.812,-5.747 z m 83.047,-112.774 h -39.642 c -3.265,0 -5.89,2.688 -5.812,5.952 l 0.708,29.681 c 0.075,3.156 2.655,5.675 5.811,5.675 h 39.971 c 3.29,0 5.924,-2.728 5.809,-6.016 l -1.036,-29.681 c -0.108,-3.13 -2.677,-5.611 -5.809,-5.611 z m -22.484,54.388 c -3.211,0 -5.813,2.603 -5.813,5.813 v 33.679 c 0,3.211 2.603,5.813 5.813,5.813 h 40.781 c 3.305,0 5.945,-2.751 5.808,-6.053 l -1.388,-33.679 c -0.128,-3.115 -2.691,-5.574 -5.808,-5.574 h -39.393 z m -300.873,-54.388 h -39.354 c -3.054,0 -5.587,2.362 -5.799,5.409 l -2.071,29.681 c -0.234,3.362 2.43,6.218 5.799,6.218 h 39.401 c 3.057,0 5.592,-2.368 5.8,-5.418 l 2.024,-29.681 c 0.229,-3.358 -2.434,-6.209 -5.8,-6.209 z m 235.011,54.388 c -3.235,0 -5.847,2.641 -5.813,5.875 l 0.358,33.679 c 0.034,3.186 2.627,5.751 5.813,5.751 h 40.797 c 3.211,0 5.813,-2.603 5.813,-5.813 v -33.679 c 0,-3.21 -2.603,-5.813 -5.813,-5.813 z m 73.672,58.386 h -43.664 c -3.236,0 -5.849,2.643 -5.813,5.879 l 0.334,29.681 c 0.036,3.185 2.628,5.748 5.813,5.748 h 43.667 c 3.236,0 5.85,-2.643 5.813,-5.879 l -0.338,-29.681 c -0.035,-3.186 -2.627,-5.748 -5.812,-5.748 z m -269.749,-58.386 c -3.027,0 -5.548,2.323 -5.794,5.34 l -2.749,33.679 c -0.277,3.386 2.397,6.286 5.794,6.286 h 40.36 c 3.073,0 5.615,-2.391 5.802,-5.458 l 2.062,-33.679 c 0.204,-3.344 -2.452,-6.169 -5.802,-6.169 h -39.673 z m 25.959,-54.388 h -40.129 c -3.057,0 -5.592,2.368 -5.8,5.418 l -2.024,29.681 c -0.229,3.358 2.433,6.209 5.8,6.209 h 1.808 c 0.543,0 1.074,-0.109 1.602,-0.231 0.626,-0.144 1.282,-0.202 1.96,-0.15 0.582,0.048 1.128,0.194 1.654,0.381 h 33.443 c 3.082,0 5.629,-2.406 5.804,-5.483 l 1.686,-29.681 c 0.189,-3.335 -2.464,-6.144 -5.804,-6.144 z m -91.878,54.388 c -3.009,0 -5.521,2.296 -5.79,5.293 l -3.027,33.679 c -0.306,3.402 2.374,6.333 5.79,6.333 h 41.406 c 3.027,0 5.548,-2.323 5.794,-5.34 l 2.749,-33.679 c 0.276,-3.386 -2.397,-6.286 -5.794,-6.286 z m 92.127,58.386 c -3.081,0 -5.627,2.404 -5.804,5.48 l -1.706,29.681 c -0.192,3.336 2.462,6.147 5.804,6.147 h 43.586 c 3.084,0 5.631,-2.408 5.804,-5.487 l 1.667,-29.681 c 0.187,-3.333 -2.465,-6.139 -5.804,-6.139 h -43.547 z m 76.737,-58.386 c -0.491,0.118 -0.996,0.199 -1.521,0.199 -0.097,0 -0.194,-0.003 -0.294,-0.005 -0.454,-0.02 -0.895,-0.087 -1.319,-0.194 h -35.386 c -3.072,0 -5.614,2.391 -5.802,5.458 l -2.063,33.679 c -0.205,3.344 2.452,6.169 5.802,6.169 h 42.62 c 3.136,0 5.707,-2.487 5.81,-5.622 l 1.111,-33.679 c 0.108,-3.284 -2.525,-6.005 -5.81,-6.005 z m 51.838,-54.388 h -39.14 c -3.111,0 -5.671,2.45 -5.808,5.558 l -1.306,29.681 c -0.146,3.308 2.497,6.069 5.808,6.069 h 39.738 c 3.157,0 5.737,-2.519 5.812,-5.675 l 0.707,-29.681 c 0.078,-3.264 -2.547,-5.952 -5.811,-5.952 z m -63.873,0 h -40.204 c -3.083,0 -5.629,2.406 -5.804,5.484 l -1.686,29.681 c -0.19,3.335 2.464,6.143 5.804,6.143 h 1.559 c 0.82,-0.298 1.714,-0.443 2.65,-0.388 0.333,0.02 0.655,0.073 0.968,0.148 0.542,0.129 1.087,0.241 1.644,0.241 h 33.764 c 3.111,0 5.671,-2.45 5.808,-5.558 l 1.306,-29.681 c 0.145,-3.308 -2.498,-6.07 -5.809,-6.07 z m 3.592,112.774 c -3.084,0 -5.631,2.408 -5.804,5.487 l -1.667,29.681 c -0.187,3.334 2.465,6.139 5.804,6.139 h 41.947 c 3.184,0 5.775,-2.561 5.813,-5.744 l 0.353,-29.681 c 0.039,-3.237 -2.575,-5.882 -5.813,-5.882 z m -332.552998,-71.466 h 66.635998 c 2.976,0 5.472,-2.248 5.782,-5.208 l 3.107,-29.681 c 0.359,-3.431 -2.332,-6.419 -5.782,-6.419 H 77.641072 c -2.919,0 -5.385,2.164 -5.764,5.059 l -3.886,29.681 c -0.454,3.481 2.255,6.568 5.765,6.568 z m -17.999,125.854 c -2.919,0 -5.385,2.164 -5.764,5.059 l -4.724,36.078 c -0.455,3.481 2.254,6.568 5.764,6.568 h 54.002998 c 3.002,0 5.511,-2.286 5.788,-5.276 l 3.347,-36.078 c 0.316,-3.408 -2.366,-6.35 -5.788,-6.35 H 55.757072 Z m 775.266998,-106.529 2.509,33.679 c 0.226,3.035 2.754,5.381 5.797,5.381 h 43.8 c 3.418,0 6.098,-2.934 5.79,-6.337 l -3.049,-33.679 c -0.271,-2.995 -2.782,-5.289 -5.79,-5.289 h -43.26 c -3.38,0 -6.048,2.874 -5.797,6.245 z m -770.675998,32.493 c -0.456,3.481 2.254,6.568 5.764,6.568 h 83.523998 c 2.947,0 5.427,-2.204 5.773,-5.13 l 3.984,-33.679 c 0.409,-3.457 -2.292,-6.496 -5.773,-6.496 H 70.521072 c -2.919,0 -5.385,2.164 -5.764,5.059 z m 123.269998,55.863 3.71,-29.681 c 0.434,-3.47 -2.272,-6.534 -5.768,-6.534 H 62.877072 c -2.919,0 -5.385,2.164 -5.764,5.059 l -3.886,29.681 c -0.455,3.48 2.254,6.568 5.764,6.568 H 177.84907 c 2.932,-10e-4 5.405,-2.184 5.769,-5.093 z m 464.668,-36.215 h -42.02 c -3.237,0 -5.85,2.643 -5.813,5.879 l 0.338,29.681 c 0.036,3.185 2.628,5.747 5.813,5.747 h 42.373 c 3.263,0 5.887,-2.686 5.811,-5.948 l -0.69,-29.681 c -0.074,-3.157 -2.654,-5.678 -5.812,-5.678 z m 381.74393,-53.273 c -0.354,-2.918 -2.831,-5.113 -5.771,-5.113 H 904.89107 c -3.417,0 -6.097,2.934 -5.789,6.337 l 3.049,33.679 c 0.271,2.995 2.782,5.289 5.79,5.289 H 1028.349 c 3.488,0 6.191,-3.051 5.771,-6.514 z m -34.91093,107.661 c -3.572,0 -6.299,3.192 -5.742,6.72 l 5.696,36.078 c 0.446,2.826 2.882,4.907 5.74193,4.907 h 41.516 c 3.489,0 6.191,-3.051 5.771,-6.514 l -4.381,-36.078 c -0.354,-2.918 -2.831,-5.113 -5.771,-5.113 z m 41.99993,-49.275 c -0.354,-2.918 -2.831,-5.113 -5.771,-5.113 h -43.68793 c -3.571,0 -6.297,3.189 -5.743,6.717 l 4.669,29.681 c 0.444,2.827 2.88,4.91 5.742,4.91 h 42.62393 c 3.489,0 6.191,-3.051 5.771,-6.514 z m -311.66693,-117.887 h -40.055 c -3.345,0 -6,2.816 -5.803,6.155 l 1.746,29.681 c 0.181,3.073 2.725,5.472 5.803,5.472 h 40.014 c 3.342,0 5.996,-2.811 5.804,-6.147 l -1.706,-29.681 c -0.177,-3.076 -2.722,-5.48 -5.803,-5.48 z m -93.393,60.441 1.388,33.679 c 0.128,3.115 2.691,5.574 5.809,5.574 h 41.85 c 3.305,0 5.946,-2.753 5.808,-6.055 l -1.403,-33.679 c -0.13,-3.114 -2.692,-5.571 -5.808,-5.571 h -41.835 c -3.305,-0.001 -5.945,2.75 -5.809,6.052 z m 66.565,0.002 1.403,33.679 c 0.13,3.114 2.692,5.571 5.808,5.571 h 41.535 c 3.381,0 6.048,-2.874 5.797,-6.245 l -2.508,-33.679 c -0.226,-3.035 -2.754,-5.382 -5.797,-5.382 h -40.43 c -3.305,10e-4 -5.946,2.754 -5.808,6.056 z m 161.839,-55.398 c -0.385,-2.888 -2.849,-5.045 -5.762,-5.045 h -38.641 c -3.419,0 -6.099,2.935 -5.79,6.34 l 2.699,29.681 c 0.272,2.994 2.783,5.287 5.79,5.287 h 39.9 c 3.516,0 6.227,-3.097 5.762,-6.582 z m 23.124,36.263 h 41.678 c 3.526,0 6.241,-3.114 5.759,-6.607 l -4.093,-29.681 c -0.397,-2.877 -2.855,-5.019 -5.759,-5.019 h -41.543 c -3.516,0 -6.227,3.097 -5.762,6.582 l 3.958,29.681 c 0.385,2.887 2.849,5.044 5.762,5.044 z m -119.747,19.325 2.509,33.679 c 0.226,3.035 2.754,5.381 5.797,5.381 h 42.409 c 3.38,0 6.048,-2.874 5.797,-6.245 l -2.508,-33.679 c -0.226,-3.035 -2.754,-5.382 -5.797,-5.382 h -42.409 c -3.382,10e-4 -6.049,2.875 -5.798,6.246 z m 27.414,-60.633 h -41.054 c -3.342,0 -5.995,2.811 -5.804,6.147 l 1.706,29.681 c 0.177,3.076 2.723,5.48 5.804,5.48 h 42.047 c 3.418,0 6.099,-2.935 5.789,-6.34 l -2.699,-29.681 c -0.272,-2.994 -2.782,-5.287 -5.789,-5.287 z m -130.609,0 h -39.695 c -3.29,0 -5.924,2.728 -5.809,6.016 l 1.036,29.681 c 0.11,3.13 2.678,5.61 5.81,5.61 0.547,0 1.081,-0.108 1.613,-0.236 0.358,-0.086 0.727,-0.144 1.11,-0.16 0.089,-0.003 0.181,-0.005 0.273,-0.005 0.77,0 1.503,0.154 2.192,0.401 h 35.217 c 3.345,0 6,-2.816 5.803,-6.154 l -1.746,-29.681 c -0.181,-3.072 -2.726,-5.472 -5.804,-5.472 z m -206.086,-13.08 h 51.105 v -34.237 l -3.414,-2.234 c -3.078,-2.014 -6.676,-3.086 -10.354,-3.086 h -24.82 c -3.678,0 -7.276,1.072 -10.354,3.086 l -2.163,1.415 z m 64.185,0 h 50.505 v -34.46 l -4.783,-2.682 c -2.826,-1.584 -6.01,-2.416 -9.249,-2.416 h -24.338 c -3.779,0 -7.471,1.132 -10.601,3.25 l -1.534,1.038 z m 128.894,0 h 55.07 l -2.383,-33.84 -5.891,-3.302 c -2.825,-1.584 -6.01,-2.415 -9.248,-2.415 h -24.744 c -3.403,0 -6.742,0.918 -9.667,2.657 l -3.627,2.157 z m -65.31,0 h 52.226 l -0.482,-34.213 -5.223,-2.928 c -2.825,-1.584 -6.01,-2.416 -9.249,-2.416 h -24.155 c -3.678,0 -7.276,1.072 -10.353,3.085 l -2.764,1.807 z m 133.494,0 h 48.437 l -3.238,-33.779 -7.106,-3.67 c -2.683,-1.385 -5.658,-2.108 -8.678,-2.108 h -18.522 c -3.163,0 -6.276,0.793 -9.053,2.308 l -4.297,2.343 z m 127.694,0 h 49.287 l -5.079,-33.702 -6.132,-3.439 c -2.826,-1.584 -6.011,-2.417 -9.25,-2.417 h -18.856 c -3.163,0 -6.277,0.794 -9.054,2.308 l -4.099,2.235 z m 62.512,0 H 1021.169 l -5.804,-35.14 -4.346,-4.417 H 908.33507 l -7.607,4.39 z m -128.63,0 h 52.986 l -3.062,-33.679 -6.551,-3.571 c -2.777,-1.514 -5.89,-2.307 -9.053,-2.307 h -23.973 c -3.089,0 -6.132,0.757 -8.861,2.204 l -4.822,2.557 z m -698.407998,-36.185 -4.737,36.185 h 45.046998 l 3.806,-34.721 -3.665,-2.179 c -2.925,-1.739 -6.264,-2.657 -9.667,-2.657 H 82.237072 l -1.75,3.955 -1.495,-0.662 c -0.003,0.027 0.002,0.052 -0.002,0.079 z m 53.469998,36.185 h 51.502 l 2.362,-35.425 -1.6,-1.047 c -3.078,-2.013 -6.676,-3.086 -10.354,-3.086 h -23.985 c -3.319,0 -6.579,0.873 -9.454,2.532 l -4.71,2.718 z m 256.872,0 h 52.147 v -34.317 l -3.644,-2.307 c -3.026,-1.916 -6.534,-2.933 -10.117,-2.933 h -22.628 c -3.49,0 -6.912,0.966 -9.887,2.79 l -4.409,2.704 z m 709.38693,272.014 -6.734,16.151 c -2.432,5.83 -7.93,9.6 -14.008,9.6 H 19.812072 c -6.941,0 -13.0210003,-4.911 -14.7840003,-11.945 l -4.52700002,-18.061 c -0.493,-1.973 -0.623,-3.999 -0.386,-6.02 L 34.047072,395.54298 c 0.945,-8.007 7.467,-14.043 15.17,-14.043 h 17.441 c -0.305,0.623 -0.541,1.29 -0.635,2.017 l -35.391,270.321 c -0.421,3.206 1.565,6.155 4.552,7.078 1.129,0.929 2.555,1.509 4.131,1.509 H 1055.475 c 0.13,0 0.251,-0.031 0.379,-0.038 0.139,0.009 0.272,0.038 0.413,0.038 0.263,0 0.529,-0.015 0.797,-0.049 3.584,-0.434 6.139,-3.694 5.702,-7.281 l -27.85,-229.384 0.218,-0.036 -0.84,-5.085 -4.52,-37.229 c -0.08,-0.665 -0.284,-1.279 -0.542,-1.861 h 19.207 c 7.644,0 14.158,5.986 15.157,13.921 l 36.275,289.495 c 0.36,2.895 -0.038,5.83 -1.152,8.496 z m -25.775,-3.86 c -347.10093,-9.015 -698.68293,-8.943 -1045.784928,0.002 347.102998,8.944 698.684998,9.016 1045.784928,-0.002 z m -748.95093,-268.154 h 52.244 l 1.512,-35.249 -1.871,-1.224 c -3.077,-2.013 -6.676,-3.085 -10.353,-3.085 h -27.324 c -4.364,0 -8.594,1.509 -11.972,4.272 l -0.794,0.649 z m -62.84,0 h 49.747 l 1.466,-35.196 -1.642,-1.111 c -3.13,-2.118 -6.822,-3.25 -10.601,-3.25 h -22.808 c -3.582,0 -7.09,1.017 -10.116,2.933 l -2.884,1.826 z m -64.083,0 h 50.951 l 3.124,-34.388 -4.568,-2.637 c -2.875,-1.659 -6.136,-2.533 -9.455,-2.533 h -23.393 c -3.581,0 -7.089,1.017 -10.115,2.932 l -4.283,2.711 z m 120.294,161.682 1.706,-29.681 c 0.192,-3.336 -2.462,-6.147 -5.804,-6.147 h -39.032 c -3.055,0 -5.589,2.365 -5.8,5.413 l -2.047,29.681 c -0.232,3.36 2.431,6.213 5.799,6.213 h 39.374 c 3.082,0 5.628,-2.403 5.804,-5.479 z m -96.284,-94.214 h -42.582 c -2.946,0 -5.427,2.204 -5.773,5.13 l -3.983,33.679 c -0.409,3.457 2.292,6.496 5.773,6.496 h 43.539 c 3.009,0 5.52,-2.296 5.79,-5.293 l 3.027,-33.679 c 0.305,-3.402 -2.375,-6.333 -5.791,-6.333 z m 79.214,160.478 h 402.491 c 3.304,0 5.943,-2.749 5.808,-6.05 l -1.472,-36.078 c -0.127,-3.116 -2.69,-5.576 -5.808,-5.576 h -398.763 c -3.07,0 -5.611,2.387 -5.802,5.451 l -2.255,36.078 c -0.21,3.346 2.448,6.175 5.801,6.175 z m -84.287,0 h 59.532 c 3.07,0 5.611,-2.387 5.802,-5.451 l 2.255,-36.078 c 0.209,-3.347 -2.449,-6.176 -5.802,-6.176 h -58.44 c -3.002,0 -5.511,2.287 -5.788,5.276 l -3.347,36.078 c -0.317,3.409 2.365,6.351 5.788,6.351 z m 31.415,-60.785 c 3.055,0 5.589,-2.365 5.8,-5.413 l 2.047,-29.681 c 0.232,-3.36 -2.431,-6.213 -5.799,-6.213 h -43.011 c -2.932,0 -5.405,2.183 -5.768,5.092 l -3.711,29.681 c -0.434,3.47 2.272,6.534 5.769,6.534 z m 702.784,-112.773 H 1021.26 c 3.488,0 6.191,-3.051 5.771,-6.514 l -3.604,-29.681 c -0.354,-2.918 -2.831,-5.113 -5.771,-5.113 h -71.54293 c -3.526,0 -6.24,3.114 -5.758,6.608 l 4.093,29.681 c 0.396,2.876 2.854,5.019 5.758,5.019 z m -238.427,112.537 c 0.359,-0.086 0.728,-0.144 1.111,-0.16 0.862,-0.031 1.693,0.116 2.465,0.396 h 1.603 c 3.342,0 5.996,-2.811 5.804,-6.147 l -1.706,-29.681 c -0.177,-3.076 -2.723,-5.48 -5.804,-5.48 h -42.256 c -3.263,0 -5.887,2.686 -5.811,5.949 l 0.691,29.681 c 0.073,3.157 2.654,5.678 5.812,5.678 h 36.478 c 0.547,0 1.082,-0.108 1.613,-0.236 z m -581.93,61.021 h 61.346 c 3.003,0 5.511,-2.286 5.788,-5.276 l 3.347,-36.078 c 0.316,-3.408 -2.366,-6.35 -5.789,-6.35 h -61.346 c -3.002,0 -5.511,2.287 -5.788,5.276 l -3.347,36.078 c -0.316,3.408 2.366,6.35 5.789,6.35 z m 726.765,-5.077 c 0.371,2.902 2.841,5.077 5.767,5.077 h 45.462 c 3.478,0 6.178,-3.034 5.774,-6.489 l -4.222,-36.078 c -0.343,-2.929 -2.825,-5.138 -5.774,-5.138 h -45.845 c -3.503,0 -6.21,3.075 -5.767,6.549 z m 116.445,-62.424 -4.669,-29.681 c -0.445,-2.827 -2.88,-4.91 -5.742,-4.91 h -90.059 c -3.453,0 -6.144,2.992 -5.781,6.425 l 3.142,29.681 c 0.313,2.957 2.807,5.201 5.781,5.201 h 91.586 c 3.57,0 6.297,-3.189 5.742,-6.716 z m -764.308,-147.365 h -40.41 c -2.976,0 -5.472,2.248 -5.781,5.208 l -3.107,29.681 c -0.359,3.431 2.332,6.418 5.782,6.418 h 41.446 c 3.054,0 5.587,-2.362 5.799,-5.409 l 2.071,-29.681 c 0.234,-3.36 -2.43,-6.217 -5.8,-6.217 z m 718.195,209.729 c 0.343,2.929 2.825,5.137 5.774,5.137 h 43.081 c 3.572,0 6.299,-3.192 5.742,-6.72 l -5.697,-36.078 c -0.446,-2.826 -2.881,-4.907 -5.742,-4.907 h -41.607 c -3.478,0 -6.178,3.034 -5.774,6.489 z m -70.28,-62.073 -3.143,-29.681 c -0.313,-2.957 -2.807,-5.201 -5.781,-5.201 h -40.442 c -3.363,0 -6.024,2.845 -5.8,6.2 l 1.979,29.681 c 0.203,3.054 2.74,5.426 5.8,5.426 h 41.607 c 3.452,0 6.144,-2.991 5.78,-6.425 z m -129.153,67.21 h 43.741 c 3.425,0 6.107,-2.946 5.788,-6.356 l -3.382,-36.078 c -0.28,-2.987 -2.788,-5.271 -5.788,-5.271 h -41.831 c -3.304,0 -5.943,2.75 -5.809,6.05 l 1.472,36.078 c 0.127,3.117 2.691,5.577 5.809,5.577 z m 62.806,-66.984 -1.979,-29.681 c -0.203,-3.054 -2.74,-5.427 -5.8,-5.427 h -42.539 c -3.342,0 -5.995,2.811 -5.804,6.147 l 1.706,29.681 c 0.177,3.076 2.723,5.48 5.804,5.48 h 42.812 c 3.363,-10e-4 6.024,-2.845 5.8,-6.2 z m 5.75,66.984 h 41.406 c 3.503,0 6.21,-3.075 5.766,-6.549 l -4.605,-36.078 c -0.37,-2.903 -2.841,-5.077 -5.766,-5.077 h -33.609 c -0.355,0.085 -0.715,0.159 -1.091,0.184 -0.148,0.01 -0.294,0.015 -0.442,0.015 -0.523,0 -1.026,-0.081 -1.517,-0.199 h -3.524 c -3.425,0 -6.107,2.946 -5.788,6.356 l 3.382,36.078 c 0.28,2.987 2.788,5.27 5.788,5.27 z"
   fill="#d0d0d0"
   id="path2" />
</svg>
