<svg version="1.1" id="Capa_1" xmlns="http://www.w3.org/2000/svg" xmlns:xlink="http://www.w3.org/1999/xlink" x="0px" y="0px" viewBox="0 0 1200 1200" enable-background="new 0 0 1200 1200" xml:space="preserve">
<path d="M587.688,489.822l0.707,29.681c0.078,3.264-2.547,5.952-5.812,5.952h-41.988&#xA;&#9;c-3.265,0-5.89-2.688-5.812-5.952l0.708-29.681c0.075-3.156,2.655-5.675,5.811-5.675h40.574&#xA;&#9;C585.033,484.147,587.612,486.667,587.688,489.822z M492.623,538.535c-3.136,0-5.707,2.487-5.81,5.622l-1.111,33.679&#xA;&#9;c-0.108,3.284,2.525,6.005,5.81,6.005h42.022c3.235,0,5.847-2.641,5.813-5.875l-0.359-33.679c-0.034-3.186-2.627-5.751-5.813-5.751&#xA;&#9;H492.623z M563.183,596.921h-41.532c-3.184,0-5.775,2.561-5.813,5.744l-0.354,29.681c-0.038,3.237,2.575,5.882,5.813,5.882h42.219&#xA;&#9;c3.236,0,5.849-2.643,5.813-5.879l-0.334-29.681C568.96,599.484,566.368,596.921,563.183,596.921z M646.23,484.147h-39.642&#xA;&#9;c-3.265,0-5.89,2.688-5.812,5.952l0.708,29.681c0.075,3.156,2.655,5.675,5.811,5.675h39.971c3.29,0,5.924-2.728,5.809-6.016&#xA;&#9;l-1.036-29.681C651.931,486.628,649.362,484.147,646.23,484.147z M623.746,538.535c-3.211,0-5.813,2.603-5.813,5.813v33.679&#xA;&#9;c0,3.211,2.603,5.813,5.813,5.813h40.781c3.305,0,5.945-2.751,5.808-6.053l-1.388-33.679c-0.128-3.115-2.691-5.574-5.808-5.574&#xA;&#9;H623.746z M322.873,484.147h-39.354c-3.054,0-5.587,2.362-5.799,5.409l-2.071,29.681c-0.234,3.362,2.43,6.218,5.799,6.218h39.401&#xA;&#9;c3.057,0,5.592-2.368,5.8-5.418l2.024-29.681C328.902,486.998,326.239,484.147,322.873,484.147z M557.884,538.535&#xA;&#9;c-3.235,0-5.847,2.641-5.813,5.875l0.358,33.679c0.034,3.186,2.627,5.751,5.813,5.751h40.797c3.211,0,5.813-2.603,5.813-5.813&#xA;&#9;v-33.679c0-3.21-2.603-5.813-5.813-5.813H557.884z M631.556,596.921h-43.664c-3.236,0-5.849,2.643-5.813,5.879l0.334,29.681&#xA;&#9;c0.036,3.185,2.628,5.748,5.813,5.748h43.667c3.236,0,5.85-2.643,5.813-5.879l-0.338-29.681&#xA;&#9;C637.333,599.483,634.741,596.921,631.556,596.921z M361.807,538.535c-3.027,0-5.548,2.323-5.794,5.34l-2.749,33.679&#xA;&#9;c-0.277,3.386,2.397,6.286,5.794,6.286h40.36c3.073,0,5.615-2.391,5.802-5.458l2.062-33.679c0.204-3.344-2.452-6.169-5.802-6.169&#xA;&#9;H361.807z M387.766,484.147h-40.129c-3.057,0-5.592,2.368-5.8,5.418l-2.024,29.681c-0.229,3.358,2.433,6.209,5.8,6.209h1.808&#xA;&#9;c0.543,0,1.074-0.109,1.602-0.231c0.626-0.144,1.282-0.202,1.96-0.15c0.582,0.048,1.128,0.194,1.654,0.381h33.443&#xA;&#9;c3.082,0,5.629-2.406,5.804-5.483l1.686-29.681C393.759,486.956,391.106,484.147,387.766,484.147z M295.888,538.535&#xA;&#9;c-3.009,0-5.521,2.296-5.79,5.293l-3.027,33.679c-0.306,3.402,2.374,6.333,5.79,6.333h41.406c3.027,0,5.548-2.323,5.794-5.34&#xA;&#9;l2.749-33.679c0.276-3.386-2.397-6.286-5.794-6.286H295.888z M388.015,596.921c-3.081,0-5.627,2.404-5.804,5.48l-1.706,29.681&#xA;&#9;c-0.192,3.336,2.462,6.147,5.804,6.147h43.586c3.084,0,5.631-2.408,5.804-5.487l1.667-29.681c0.187-3.333-2.465-6.139-5.804-6.139&#xA;&#9;H388.015z M464.752,538.535c-0.491,0.118-0.996,0.199-1.521,0.199c-0.097,0-0.194-0.003-0.294-0.005&#xA;&#9;c-0.454-0.02-0.895-0.087-1.319-0.194h-35.386c-3.072,0-5.614,2.391-5.802,5.458l-2.063,33.679&#xA;&#9;c-0.205,3.344,2.452,6.169,5.802,6.169h42.62c3.136,0,5.707-2.487,5.81-5.622l1.111-33.679c0.108-3.284-2.525-6.005-5.81-6.005&#xA;&#9;H464.752z M516.59,484.147H477.45c-3.111,0-5.671,2.45-5.808,5.558l-1.306,29.681c-0.146,3.308,2.497,6.069,5.808,6.069h39.738&#xA;&#9;c3.157,0,5.737-2.519,5.812-5.675l0.707-29.681C522.479,486.835,519.854,484.147,516.59,484.147z M452.717,484.147h-40.204&#xA;&#9;c-3.083,0-5.629,2.406-5.804,5.484l-1.686,29.681c-0.19,3.335,2.464,6.143,5.804,6.143h1.559c0.82-0.298,1.714-0.443,2.65-0.388&#xA;&#9;c0.333,0.02,0.655,0.073,0.968,0.148c0.542,0.129,1.087,0.241,1.644,0.241h33.764c3.111,0,5.671-2.45,5.808-5.558l1.306-29.681&#xA;&#9;C458.671,486.909,456.028,484.147,452.717,484.147z M456.309,596.921c-3.084,0-5.631,2.408-5.804,5.487l-1.667,29.681&#xA;&#9;c-0.187,3.334,2.465,6.139,5.804,6.139h41.947c3.184,0,5.775-2.561,5.813-5.744l0.353-29.681c0.039-3.237-2.575-5.882-5.813-5.882&#xA;&#9;H456.309z M123.756,525.455h66.636c2.976,0,5.472-2.248,5.782-5.208l3.107-29.681c0.359-3.431-2.332-6.419-5.782-6.419h-65.858&#xA;&#9;c-2.919,0-5.385,2.164-5.764,5.059l-3.886,29.681C117.537,522.368,120.246,525.455,123.756,525.455z M105.757,651.309&#xA;&#9;c-2.919,0-5.385,2.164-5.764,5.059l-4.724,36.078c-0.455,3.481,2.254,6.568,5.764,6.568h54.003c3.002,0,5.511-2.286,5.788-5.276&#xA;&#9;l3.347-36.078c0.316-3.408-2.366-6.35-5.788-6.35H105.757z M881.024,544.78l2.509,33.679c0.226,3.035,2.754,5.381,5.797,5.381h43.8&#xA;&#9;c3.418,0,6.098-2.934,5.79-6.337l-3.049-33.679c-0.271-2.995-2.782-5.289-5.79-5.289h-43.26&#xA;&#9;C883.441,538.535,880.773,541.409,881.024,544.78z M110.348,577.273c-0.456,3.481,2.254,6.568,5.764,6.568h83.524&#xA;&#9;c2.947,0,5.427-2.204,5.773-5.13l3.984-33.679c0.409-3.457-2.292-6.496-5.773-6.496h-83.099c-2.919,0-5.385,2.164-5.764,5.059&#xA;&#9;L110.348,577.273z M233.618,633.136l3.71-29.681c0.434-3.47-2.272-6.534-5.768-6.534H112.877c-2.919,0-5.385,2.164-5.764,5.059&#xA;&#9;l-3.886,29.681c-0.455,3.48,2.254,6.568,5.764,6.568h118.858C230.781,638.228,233.254,636.045,233.618,633.136z M698.286,596.921&#xA;&#9;h-42.02c-3.237,0-5.85,2.643-5.813,5.879l0.338,29.681c0.036,3.185,2.628,5.747,5.813,5.747h42.373c3.263,0,5.887-2.686,5.811-5.948&#xA;&#9;l-0.69-29.681C704.024,599.442,701.444,596.921,698.286,596.921z M1080.03,543.648c-0.354-2.918-2.831-5.113-5.771-5.113H954.891&#xA;&#9;c-3.417,0-6.097,2.934-5.789,6.337l3.049,33.679c0.271,2.995,2.782,5.289,5.79,5.289h120.408c3.488,0,6.191-3.051,5.771-6.514&#xA;&#9;L1080.03,543.648z M1045.119,651.309c-3.572,0-6.299,3.192-5.742,6.72l5.696,36.078c0.446,2.826,2.882,4.907,5.742,4.907h41.516&#xA;&#9;c3.489,0,6.191-3.051,5.771-6.514l-4.381-36.078c-0.354-2.918-2.831-5.113-5.771-5.113H1045.119z M1087.119,602.034&#xA;&#9;c-0.354-2.918-2.831-5.113-5.771-5.113h-43.688c-3.571,0-6.297,3.189-5.743,6.717l4.669,29.681c0.444,2.827,2.88,4.91,5.742,4.91&#xA;&#9;h42.624c3.489,0,6.191-3.051,5.771-6.514L1087.119,602.034z M775.452,484.147h-40.055c-3.345,0-6,2.816-5.803,6.155l1.746,29.681&#xA;&#9;c0.181,3.073,2.725,5.472,5.803,5.472h40.014c3.342,0,5.996-2.811,5.804-6.147l-1.706-29.681&#xA;&#9;C781.078,486.551,778.533,484.147,775.452,484.147z M682.059,544.588l1.388,33.679c0.128,3.115,2.691,5.574,5.809,5.574h41.85&#xA;&#9;c3.305,0,5.946-2.753,5.808-6.055l-1.403-33.679c-0.13-3.114-2.692-5.571-5.808-5.571h-41.835&#xA;&#9;C684.563,538.535,681.923,541.286,682.059,544.588z M748.624,544.59l1.403,33.679c0.13,3.114,2.692,5.571,5.808,5.571h41.535&#xA;&#9;c3.381,0,6.048-2.874,5.797-6.245l-2.508-33.679c-0.226-3.035-2.754-5.382-5.797-5.382h-40.43&#xA;&#9;C751.127,538.535,748.486,541.288,748.624,544.59z M910.463,489.192c-0.385-2.888-2.849-5.045-5.762-5.045H866.06&#xA;&#9;c-3.419,0-6.099,2.935-5.79,6.34l2.699,29.681c0.272,2.994,2.783,5.287,5.79,5.287h39.9c3.516,0,6.227-3.097,5.762-6.582&#xA;&#9;L910.463,489.192z M933.587,525.455h41.678c3.526,0,6.241-3.114,5.759-6.607l-4.093-29.681c-0.397-2.877-2.855-5.019-5.759-5.019&#xA;&#9;h-41.543c-3.516,0-6.227,3.097-5.762,6.582l3.958,29.681C928.21,523.298,930.674,525.455,933.587,525.455z M813.84,544.78&#xA;&#9;l2.509,33.679c0.226,3.035,2.754,5.381,5.797,5.381h42.409c3.38,0,6.048-2.874,5.797-6.245l-2.508-33.679&#xA;&#9;c-0.226-3.035-2.754-5.382-5.797-5.382h-42.409C816.256,538.535,813.589,541.409,813.84,544.78z M841.254,484.147H800.2&#xA;&#9;c-3.342,0-5.995,2.811-5.804,6.147l1.706,29.681c0.177,3.076,2.723,5.48,5.804,5.48h42.047c3.418,0,6.099-2.935,5.789-6.34&#xA;&#9;l-2.699-29.681C846.771,486.44,844.261,484.147,841.254,484.147z M710.645,484.147H670.95c-3.29,0-5.924,2.728-5.809,6.016&#xA;&#9;l1.036,29.681c0.11,3.13,2.678,5.61,5.81,5.61c0.547,0,1.081-0.108,1.613-0.236c0.358-0.086,0.727-0.144,1.11-0.16&#xA;&#9;c0.089-0.003,0.181-0.005,0.273-0.005c0.77,0,1.503,0.154,2.192,0.401h35.217c3.345,0,6-2.816,5.803-6.154l-1.746-29.681&#xA;&#9;C716.268,486.547,713.723,484.147,710.645,484.147z M504.559,471.067h51.105V436.83l-3.414-2.234&#xA;&#9;c-3.078-2.014-6.676-3.086-10.354-3.086h-24.82c-3.678,0-7.276,1.072-10.354,3.086l-2.163,1.415V471.067z M568.744,471.067h50.505&#xA;&#9;v-34.46l-4.783-2.682c-2.826-1.584-6.01-2.416-9.249-2.416h-24.338c-3.779,0-7.471,1.132-10.601,3.25l-1.534,1.038V471.067z&#xA;&#9; M697.638,471.067h55.07l-2.383-33.84l-5.891-3.302c-2.825-1.584-6.01-2.415-9.248-2.415h-24.744c-3.403,0-6.742,0.918-9.667,2.657&#xA;&#9;l-3.627,2.157L697.638,471.067z M632.328,471.067h52.226l-0.482-34.213l-5.223-2.928c-2.825-1.584-6.01-2.416-9.249-2.416h-24.155&#xA;&#9;c-3.678,0-7.276,1.072-10.353,3.085l-2.764,1.807V471.067z M765.822,471.067h48.437l-3.238-33.779l-7.106-3.67&#xA;&#9;c-2.683-1.385-5.658-2.108-8.678-2.108h-18.522c-3.163,0-6.276,0.793-9.053,2.308l-4.297,2.343L765.822,471.067z M893.516,471.067&#xA;&#9;h49.287l-5.079-33.702l-6.132-3.439c-2.826-1.584-6.011-2.417-9.25-2.417h-18.856c-3.163,0-6.277,0.794-9.054,2.308l-4.099,2.235&#xA;&#9;L893.516,471.067z M956.028,471.067h115.141l-5.804-35.14l-4.346-4.417H958.335l-7.607,4.39L956.028,471.067z M827.398,471.067&#xA;&#9;h52.986l-3.062-33.679l-6.551-3.571c-2.777-1.514-5.89-2.307-9.053-2.307h-23.973c-3.089,0-6.132,0.757-8.861,2.204l-4.822,2.557&#xA;&#9;L827.398,471.067z M128.99,434.882l-4.737,36.185H169.3l3.806-34.721l-3.665-2.179c-2.925-1.739-6.264-2.657-9.667-2.657h-27.537&#xA;&#9;l-1.75,3.955l-1.495-0.662C128.989,434.83,128.994,434.855,128.99,434.882z M182.46,471.067h51.502l2.362-35.425l-1.6-1.047&#xA;&#9;c-3.078-2.013-6.676-3.086-10.354-3.086h-23.985c-3.319,0-6.579,0.873-9.454,2.532l-4.71,2.718L182.46,471.067z M439.332,471.067&#xA;&#9;h52.147V436.75l-3.644-2.307c-3.026-1.916-6.534-2.933-10.117-2.933h-22.628c-3.49,0-6.912,0.966-9.887,2.79l-4.409,2.704&#xA;&#9;L439.332,471.067z M1148.719,743.081l-6.734,16.151c-2.432,5.83-7.93,9.6-14.008,9.6H69.812c-6.941,0-13.021-4.911-14.784-11.945&#xA;&#9;l-4.527-18.061c-0.493-1.973-0.623-3.999-0.386-6.02l33.932-287.594c0.945-8.007,7.467-14.043,15.17-14.043h17.441&#xA;&#9;c-0.305,0.623-0.541,1.29-0.635,2.017L80.632,703.507c-0.421,3.206,1.565,6.155,4.552,7.078c1.129,0.929,2.555,1.509,4.131,1.509&#xA;&#9;h1016.16c0.13,0,0.251-0.031,0.379-0.038c0.139,0.009,0.272,0.038,0.413,0.038c0.263,0,0.529-0.015,0.797-0.049&#xA;&#9;c3.584-0.434,6.139-3.694,5.702-7.281l-27.85-229.384l0.218-0.036l-0.84-5.085l-4.52-37.229c-0.08-0.665-0.284-1.279-0.542-1.861&#xA;&#9;h19.207c7.644,0,14.158,5.986,15.157,13.921l36.275,289.495C1150.231,737.48,1149.833,740.415,1148.719,743.081z M1122.944,739.221&#xA;&#9;c-347.101-9.015-698.683-8.943-1045.785,0.002C424.262,748.167,775.844,748.239,1122.944,739.221z M373.993,471.067h52.244&#xA;&#9;l1.512-35.249l-1.871-1.224c-3.077-2.013-6.676-3.085-10.353-3.085h-27.324c-4.364,0-8.594,1.509-11.972,4.272l-0.794,0.649&#xA;&#9;L373.993,471.067z M311.153,471.067H360.9l1.466-35.196l-1.642-1.111c-3.13-2.118-6.822-3.25-10.601-3.25h-22.808&#xA;&#9;c-3.582,0-7.09,1.017-10.116,2.933l-2.884,1.826L311.153,471.067z M247.07,471.067h50.951l3.124-34.388l-4.568-2.637&#xA;&#9;c-2.875-1.659-6.136-2.533-9.455-2.533h-23.393c-3.581,0-7.089,1.017-10.115,2.932l-4.283,2.711L247.07,471.067z M367.364,632.749&#xA;&#9;l1.706-29.681c0.192-3.336-2.462-6.147-5.804-6.147h-39.032c-3.055,0-5.589,2.365-5.8,5.413l-2.047,29.681&#xA;&#9;c-0.232,3.36,2.431,6.213,5.799,6.213h39.374C364.642,638.228,367.188,635.825,367.364,632.749z M271.08,538.535h-42.582&#xA;&#9;c-2.946,0-5.427,2.204-5.773,5.13l-3.983,33.679c-0.409,3.457,2.292,6.496,5.773,6.496h43.539c3.009,0,5.52-2.296,5.79-5.293&#xA;&#9;l3.027-33.679C277.176,541.466,274.496,538.535,271.08,538.535z M350.294,699.013h402.491c3.304,0,5.943-2.749,5.808-6.05&#xA;&#9;l-1.472-36.078c-0.127-3.116-2.69-5.576-5.808-5.576H352.55c-3.07,0-5.611,2.387-5.802,5.451l-2.255,36.078&#xA;&#9;C344.283,696.184,346.941,699.013,350.294,699.013z M266.007,699.013h59.532c3.07,0,5.611-2.387,5.802-5.451l2.255-36.078&#xA;&#9;c0.209-3.347-2.449-6.176-5.802-6.176h-58.44c-3.002,0-5.511,2.287-5.788,5.276l-3.347,36.078&#xA;&#9;C259.902,696.071,262.584,699.013,266.007,699.013z M297.422,638.228c3.055,0,5.589-2.365,5.8-5.413l2.047-29.681&#xA;&#9;c0.232-3.36-2.431-6.213-5.799-6.213h-43.011c-2.932,0-5.405,2.183-5.768,5.092l-3.711,29.681c-0.434,3.47,2.272,6.534,5.769,6.534&#xA;&#9;H297.422z M1000.206,525.455h71.054c3.488,0,6.191-3.051,5.771-6.514l-3.604-29.681c-0.354-2.918-2.831-5.113-5.771-5.113h-71.543&#xA;&#9;c-3.526,0-6.24,3.114-5.758,6.608l4.093,29.681C994.844,523.312,997.302,525.455,1000.206,525.455z M761.779,637.992&#xA;&#9;c0.359-0.086,0.728-0.144,1.111-0.16c0.862-0.031,1.693,0.116,2.465,0.396h1.603c3.342,0,5.996-2.811,5.804-6.147l-1.706-29.681&#xA;&#9;c-0.177-3.076-2.723-5.48-5.804-5.48h-42.256c-3.263,0-5.887,2.686-5.811,5.949l0.691,29.681c0.073,3.157,2.654,5.678,5.812,5.678&#xA;&#9;h36.478C760.713,638.228,761.248,638.12,761.779,637.992z M179.849,699.013h61.346c3.003,0,5.511-2.286,5.788-5.276l3.347-36.078&#xA;&#9;c0.316-3.408-2.366-6.35-5.789-6.35h-61.346c-3.002,0-5.511,2.287-5.788,5.276l-3.347,36.078&#xA;&#9;C173.744,696.071,176.426,699.013,179.849,699.013z M906.614,693.936c0.371,2.902,2.841,5.077,5.767,5.077h45.462&#xA;&#9;c3.478,0,6.178-3.034,5.774-6.489l-4.222-36.078c-0.343-2.929-2.825-5.138-5.774-5.138h-45.845c-3.503,0-6.21,3.075-5.767,6.549&#xA;&#9;L906.614,693.936z M1023.059,631.512l-4.669-29.681c-0.445-2.827-2.88-4.91-5.742-4.91h-90.059c-3.453,0-6.144,2.992-5.781,6.425&#xA;&#9;l3.142,29.681c0.313,2.957,2.807,5.201,5.781,5.201h91.586C1020.887,638.228,1023.614,635.039,1023.059,631.512z M258.751,484.147&#xA;&#9;h-40.41c-2.976,0-5.472,2.248-5.781,5.208l-3.107,29.681c-0.359,3.431,2.332,6.418,5.782,6.418h41.446&#xA;&#9;c3.054,0,5.587-2.362,5.799-5.409l2.071-29.681C264.785,487.004,262.121,484.147,258.751,484.147z M976.946,693.876&#xA;&#9;c0.343,2.929,2.825,5.137,5.774,5.137h43.081c3.572,0,6.299-3.192,5.742-6.72l-5.697-36.078c-0.446-2.826-2.881-4.907-5.742-4.907&#xA;&#9;h-41.607c-3.478,0-6.178,3.034-5.774,6.489L976.946,693.876z M906.666,631.803l-3.143-29.681c-0.313-2.957-2.807-5.201-5.781-5.201&#xA;&#9;H857.3c-3.363,0-6.024,2.845-5.8,6.2l1.979,29.681c0.203,3.054,2.74,5.426,5.8,5.426h41.607&#xA;&#9;C904.338,638.228,907.03,635.237,906.666,631.803z M777.513,699.013h43.741c3.425,0,6.107-2.946,5.788-6.356l-3.382-36.078&#xA;&#9;c-0.28-2.987-2.788-5.271-5.788-5.271h-41.831c-3.304,0-5.943,2.75-5.809,6.05l1.472,36.078&#xA;&#9;C771.831,696.553,774.395,699.013,777.513,699.013z M840.319,632.029l-1.979-29.681c-0.203-3.054-2.74-5.427-5.8-5.427h-42.539&#xA;&#9;c-3.342,0-5.995,2.811-5.804,6.147l1.706,29.681c0.177,3.076,2.723,5.48,5.804,5.48h42.812&#xA;&#9;C837.882,638.228,840.543,635.384,840.319,632.029z M846.069,699.013h41.406c3.503,0,6.21-3.075,5.766-6.549l-4.605-36.078&#xA;&#9;c-0.37-2.903-2.841-5.077-5.766-5.077h-33.609c-0.355,0.085-0.715,0.159-1.091,0.184c-0.148,0.01-0.294,0.015-0.442,0.015&#xA;&#9;c-0.523,0-1.026-0.081-1.517-0.199h-3.524c-3.425,0-6.107,2.946-5.788,6.356l3.382,36.078&#xA;&#9;C840.561,696.73,843.069,699.013,846.069,699.013z" fill="#6F89A3" />
</svg>
