<?xml version="1.0" encoding="UTF-8" standalone="no"?>
<svg
   version="1.1"
   x="0px"
   y="0px"
   viewBox="0 0 90.019996 90.019997"
   xml:space="preserve"
   id="svg52"
   fill="#d0d0d0"
   sodipodi:docname="ps4_controller.svg"
   width="90.019997"
   height="90.019997"
   inkscape:version="1.2.2 (b0a8486541, 2022-12-01)"
   xmlns:inkscape="http://www.inkscape.org/namespaces/inkscape"
   xmlns:sodipodi="http://sodipodi.sourceforge.net/DTD/sodipodi-0.dtd"
   xmlns="http://www.w3.org/2000/svg"
   xmlns:svg="http://www.w3.org/2000/svg"><defs
     id="defs56" /><sodipodi:namedview
     id="namedview54"
     pagecolor="#ffffff"
     bordercolor="#000000"
     borderopacity="0.25"
     inkscape:showpageshadow="2"
     inkscape:pageopacity="0.0"
     inkscape:pagecheckerboard="0"
     inkscape:deskcolor="#d1d1d1"
     showgrid="false"
     inkscape:zoom="6.968"
     inkscape:cx="19.159013"
     inkscape:cy="40.829506"
     inkscape:window-width="1876"
     inkscape:window-height="1036"
     inkscape:window-x="0"
     inkscape:window-y="0"
     inkscape:window-maximized="1"
     inkscape:current-layer="svg52" /><g
     id="g46"
     transform="translate(-4.9861416,-5.357892)"><g
       id="g44"><g
         id="g6"><g
           id="g4"><path
             d="m 88.3,38.9 c 0,-5.5 -4.5,-10 -10,-10 -5.5,0 -10,4.5 -10,10 0,5.5 4.5,10 10,10 5.5,0 10,-4.4 10,-10 z m -3.3,-3 c 1.6,0 2.9,1.3 2.9,2.9 0,1.6 -1.3,2.9 -2.9,2.9 -1.6,0 -2.9,-1.3 -2.9,-2.9 0,-1.6 1.3,-2.9 2.9,-2.9 z m -6.6,-6.7 c 1.6,0 2.9,1.3 2.9,2.9 0,1.6 -1.3,2.9 -2.9,2.9 -1.6,0 -2.9,-1.3 -2.9,-2.9 0,-1.6 1.2,-2.9 2.9,-2.9 z m -6.7,12.5 c -1.6,0 -2.9,-1.3 -2.9,-2.9 0,-1.6 1.3,-2.9 2.9,-2.9 1.6,0 2.9,1.3 2.9,2.9 0,1.6 -1.3,2.9 -2.9,2.9 z m 3.7,3.7 c 0,-1.6 1.3,-2.9 2.9,-2.9 1.6,0 2.9,1.3 2.9,2.9 0,1.6 -1.3,2.9 -2.9,2.9 -1.6,0 -2.9,-1.3 -2.9,-2.9 z"
             id="path2" /></g></g><g
         id="g12"><g
           id="g10"><path
             d="m 22.1,28.9 c -5.5,0 -10,4.5 -10,10 0,5.5 4.5,10 10,10 5.5,0 10,-4.5 10,-10 0,-5.5 -4.5,-10 -10,-10 z m -1.3,1.4 1.2,-1 c 0,0 0.1,0 0.1,0 l 1.1,1 c 0.1,0 0,0.1 -0.1,0.1 h -2.3 c -0.1,0 -0.1,-0.1 0,-0.1 z m -1,2.4 c 0,-0.5 0.4,-0.9 0.8,-0.9 h 2.9 c 0.5,0 0.8,0.4 0.8,0.9 v 2.6 c 0,0.3 -0.1,0.5 -0.2,0.7 -0.5,0.5 -1.5,1.6 -2.1,1.6 -0.6,0 -1.5,-1.1 -2,-1.6 -0.1,-0.2 -0.2,-0.4 -0.2,-0.6 z m -6.2,7.4 c 0,0.1 -0.1,0.1 -0.1,0.1 l -1,-1.2 c 0,0 0,-0.1 0,-0.1 l 1,-1.1 c 0,-0.1 0.1,0 0.1,0.1 z M 19,41 c -0.2,0.1 -0.4,0.2 -0.6,0.2 h -2.6 c -0.5,0 -0.9,-0.4 -0.9,-0.8 v -2.9 c 0,-0.5 0.4,-0.8 0.9,-0.8 h 2.6 c 0.3,0 0.5,0.1 0.7,0.2 0.5,0.5 1.6,1.5 1.6,2.1 -0.1,0.6 -1.2,1.6 -1.7,2 z m 4.4,6.4 -1.2,1 c 0,0 -0.1,0 -0.1,0 l -1.1,-1 c -0.1,0 0,-0.1 0.1,-0.1 h 2.3 z m 0.9,-2.1 c 0,0.5 -0.4,0.9 -0.8,0.9 h -2.9 c -0.5,0 -0.8,-0.4 -0.8,-0.9 v -2.6 c 0,-0.3 0.1,-0.5 0.2,-0.7 0.5,-0.5 1.5,-1.6 2.1,-1.6 0.6,0 1.5,1.1 2,1.6 0.1,0.2 0.2,0.4 0.2,0.6 z m 5,-4.9 c 0,0.5 -0.4,0.8 -0.9,0.8 h -2.6 c -0.3,0 -0.5,-0.1 -0.7,-0.2 -0.5,-0.5 -1.6,-1.5 -1.6,-2.1 0,-0.6 1.1,-1.5 1.6,-2 0.2,-0.1 0.4,-0.2 0.6,-0.2 h 2.6 c 0.5,0 0.9,0.4 0.9,0.8 v 2.9 z M 30.6,40 c 0,0.1 -0.1,0 -0.1,-0.1 v -2.3 c 0,-0.1 0.1,-0.1 0.1,-0.1 l 1,1.2 c 0,0 0,0.1 0,0.1 z"
             id="path8" /></g></g><g
         id="g16"><path
           d="m 38.1,41.8 h 24.1 c 1.4,0 2.5,-1.1 2.5,-2.5 L 64.6,25 H 35.8 l -0.2,14.2 c 0,1.5 1.1,2.6 2.5,2.6 z"
           id="path14" /></g><g
         id="g20"><circle
           cx="35.700001"
           cy="51.299999"
           r="4.3000002"
           id="circle18" /></g><g
         id="g26"><g
           id="g24"><path
             d="m 90.6,41 c -1.1,-6.6 -3.1,-10.7 -4.9,-13.3 -1.5,-3 -1.9,-3.1 -1.9,-3.1 -0.1,0 -0.3,-0.1 -0.4,-0.1 V 24 C 83.4,23.7 83.3,23.4 83,23.3 82.2,22.9 80.4,22 77.7,22 c -2.5,0 -4.2,0.5 -5,0.7 -0.3,0.1 -0.5,0.4 -0.5,0.7 v 0.7 c -0.1,0 -0.1,0 -0.2,0 -1.5,0 -2,0.9 -2,0.9 h -4.5 l 0.2,14.9 c 0,1.5 -1.2,2.7 -2.6,2.7 H 37.5 c -1.5,0 -2.6,-1.2 -2.6,-2.7 L 35,25 h -5 c 0,0 -0.5,-0.9 -2,-0.9 0,0 0,0 0,0 V 23.4 C 28,23.1 27.8,22.8 27.5,22.7 26.7,22.4 25,22 22.5,22 c -2.7,0 -4.6,0.9 -5.3,1.3 -0.3,0.1 -0.4,0.4 -0.4,0.7 v 0.4 c -0.2,0 -0.4,0.1 -0.6,0.1 0,0 -0.4,0.1 -1.9,3.1 -1.8,2.6 -3.7,6.7 -4.9,13.3 C 9.3,41 4.7,55 5,66.1 c 0.3,11.1 4.9,12.3 8,12.6 3.1,0.3 7.8,-1.2 10.6,-7.8 2.8,-6.6 4.2,-12.3 6.1,-12.6 H 30 c 1.5,1.4 3.6,2.3 5.9,2.3 2.3,0 4.4,-0.9 5.9,-2.3 h 4.1 c 0,-0.2 0.1,-1 4.1,-1 3.8,0 4.2,0.8 4.2,1 h 4.4 c 1.5,1.4 3.6,2.3 5.9,2.3 2.3,0 4.3,-0.9 5.9,-2.3 1.9,0.5 3.2,6.2 6,12.6 2.8,6.6 7.4,8.1 10.6,7.8 3.1,-0.3 7.7,-1.5 8,-12.6 C 95.2,55 90.6,41 90.6,41 Z M 30.5,28.6 c 0,-0.8 0.6,-1.4 1.4,-1.4 v 0 c 0.8,0 1.4,0.6 1.4,1.4 v 2.3 c 0,0.8 -0.6,1.4 -1.4,1.4 v 0 c -0.8,0 -1.4,-0.6 -1.4,-1.4 z M 11.3,77.3 C 5.9,76 6.3,65.5 6.4,65.5 c 0,0 0,5.1 6.8,6.5 6.8,1.4 8.7,-0.6 9.2,-1.4 -0.1,0.1 -2.8,8.9 -11.1,6.7 z M 35.9,59.6 c -4.5,0 -8.2,-3.6 -8.2,-8.2 0,-1.7 0.5,-3.3 1.4,-4.6 -1.9,1.7 -4.3,2.7 -7.1,2.7 -5.9,0 -10.6,-4.8 -10.6,-10.6 0,-5.9 4.8,-10.6 10.6,-10.6 5.8,0 10.6,4.8 10.6,10.6 0,2.3 -0.8,4.5 -2,6.2 1.4,-1.2 3.2,-1.9 5.2,-1.9 4.5,0 8.2,3.6 8.2,8.2 0,4.6 -3.6,8.2 -8.1,8.2 z m 14.2,-5 c -1.5,0 -2.6,-1.2 -2.6,-2.6 0,-1.4 1.2,-2.6 2.6,-2.6 1.4,0 2.6,1.2 2.6,2.6 0,1.4 -1.1,2.6 -2.6,2.6 z m 17,-26 c 0,-0.8 0.6,-1.4 1.4,-1.4 v 0 c 0.8,0 1.4,0.6 1.4,1.4 v 2.3 c 0,0.8 -0.6,1.4 -1.4,1.4 v 0 c -0.8,0 -1.4,-0.6 -1.4,-1.4 z m 5.5,22.8 c 0,4.5 -3.6,8.2 -8.2,8.2 -4.5,0 -8.2,-3.6 -8.2,-8.2 0,-4.6 3.6,-8.2 8.2,-8.2 2,0 3.8,0.7 5.2,1.9 -1.3,-1.7 -2,-3.9 -2,-6.2 0,-5.9 4.8,-10.6 10.6,-10.6 5.8,0 10.6,4.8 10.6,10.6 0,5.9 -4.8,10.6 -10.6,10.6 -2.7,0 -5.2,-1 -7,-2.7 0.9,1.4 1.4,2.9 1.4,4.6 z m 16.1,25.9 c -8.3,2.2 -11,-6.7 -11,-6.7 0.4,0.8 2.4,2.9 9.2,1.4 6.8,-1.5 6.8,-6.5 6.8,-6.5 -0.1,0 0.3,10.5 -5,11.8 z"
             id="path22" /></g></g><g
         id="g32"><g
           id="g30"><path
             d="m 35.8,44.9 c -3.6,0 -6.4,2.9 -6.4,6.4 0,3.5 2.9,6.4 6.4,6.4 3.5,0 6.4,-2.9 6.4,-6.4 0,-3.5 -2.9,-6.4 -6.4,-6.4 z m -0.1,11.7 c -2.9,0 -5.3,-2.4 -5.3,-5.3 0,-2.9 2.4,-5.3 5.3,-5.3 2.9,0 5.3,2.4 5.3,5.3 0,2.9 -2.3,5.3 -5.3,5.3 z"
             id="path28" /></g></g><g
         id="g38"><g
           id="g36"><path
             d="m 64.4,44.9 c -3.6,0 -6.4,2.9 -6.4,6.4 0,3.5 2.9,6.4 6.4,6.4 3.6,0 6.4,-2.9 6.4,-6.4 0,-3.5 -2.9,-6.4 -6.4,-6.4 z m 0,11.7 c -2.9,0 -5.3,-2.4 -5.3,-5.3 0,-2.9 2.4,-5.3 5.3,-5.3 2.9,0 5.3,2.4 5.3,5.3 0,2.9 -2.4,5.3 -5.3,5.3 z"
             id="path34" /></g></g><g
         id="g42"><circle
           cx="64.300003"
           cy="51.299999"
           r="4.3000002"
           id="circle40" /></g></g></g></svg>
