<?xml version="1.0" encoding="UTF-8" standalone="no"?>
<svg
   width="548pt"
   height="548pt"
   version="1.1"
   viewBox="0 0 548 548"
   id="svg242"
   fill="#d0d0d0"
   sodipodi:docname="ps5_controller.svg"
   inkscape:version="1.2.2 (b0a8486541, 2022-12-01)"
   xmlns:inkscape="http://www.inkscape.org/namespaces/inkscape"
   xmlns:sodipodi="http://sodipodi.sourceforge.net/DTD/sodipodi-0.dtd"
   xmlns="http://www.w3.org/2000/svg"
   xmlns:svg="http://www.w3.org/2000/svg">
  <sodipodi:namedview
     id="namedview244"
     pagecolor="#ffffff"
     bordercolor="#fe0028"
     borderopacity="0.25"
     inkscape:showpageshadow="2"
     inkscape:pageopacity="0.0"
     inkscape:pagecheckerboard="0"
     inkscape:deskcolor="#d1d1d1"
     inkscape:document-units="pt"
     showgrid="false"
     inkscape:zoom="0.93321429"
     inkscape:cx="212.7057"
     inkscape:cy="540.60467"
     inkscape:window-width="1876"
     inkscape:window-height="1036"
     inkscape:window-x="0"
     inkscape:window-y="0"
     inkscape:window-maximized="1"
     inkscape:current-layer="svg242" />
  <defs
     id="defs216">
    <symbol
       id="w"
       overflow="visible">
      <path
         d="m 18.766,-1.125 c -0.96875,0.5 -1.9805,0.875 -3.0312,1.125 -1.043,0.25781 -2.1367,0.39062 -3.2812,0.39062 -3.3984,0 -6.0898,-0.94531 -8.0781,-2.8438 -1.9922,-1.9062 -2.9844,-4.4844 -2.9844,-7.7344 0,-3.2578 0.99219,-5.8359 2.9844,-7.7344 1.9883,-1.9062 4.6797,-2.8594 8.0781,-2.8594 1.1445,0 2.2383,0.13281 3.2812,0.39062 1.0508,0.25 2.0625,0.625 3.0312,1.125 v 4.2188 c -0.98047,-0.65625 -1.9453,-1.1406 -2.8906,-1.4531 -0.94922,-0.3125 -1.9492,-0.46875 -3,-0.46875 -1.875,0 -3.3516,0.60547 -4.4219,1.8125 -1.0742,1.1992 -1.6094,2.8555 -1.6094,4.9688 0,2.1055 0.53516,3.7617 1.6094,4.9688 1.0703,1.1992 2.5469,1.7969 4.4219,1.7969 1.0508,0 2.0508,-0.14844 3,-0.45312 0.94531,-0.3125 1.9102,-0.80078 2.8906,-1.4688 z"
         id="path147" />
    </symbol>
    <symbol
       id="b"
       overflow="visible">
      <path
         d="m 13.734,-11.141 c -0.4375,-0.19531 -0.87109,-0.34375 -1.2969,-0.4375 -0.41797,-0.10156 -0.83984,-0.15625 -1.2656,-0.15625 -1.2617,0 -2.2305,0.40625 -2.9062,1.2188 -0.67969,0.80469 -1.0156,1.9531 -1.0156,3.4531 v 7.0625 H 2.3591 v -15.312 h 4.8906 v 2.5156 c 0.625,-1 1.3438,-1.7266 2.1562,-2.1875 0.82031,-0.46875 1.8008,-0.70312 2.9375,-0.70312 0.16406,0 0.34375,0.01172 0.53125,0.03125 0.19531,0.01172 0.47656,0.03906 0.84375,0.07813 z"
         id="path150" />
    </symbol>
    <symbol
       id="a"
       overflow="visible">
      <path
         d="m 17.641,-7.7031 v 1.4062 H 6.188 c 0.125,1.1484 0.53906,2.0078 1.25,2.5781 0.70703,0.57422 1.7031,0.85938 2.9844,0.85938 1.0312,0 2.082,-0.14844 3.1562,-0.45312 1.082,-0.3125 2.1914,-0.77344 3.3281,-1.3906 v 3.7656 c -1.1562,0.4375 -2.3125,0.76562 -3.4688,0.98438 -1.1562,0.22656 -2.3125,0.34375 -3.4688,0.34375 -2.7734,0 -4.9297,-0.70312 -6.4688,-2.1094 -1.5312,-1.4062 -2.2969,-3.3789 -2.2969,-5.9219 0,-2.5 0.75391,-4.4609 2.2656,-5.8906 1.5078,-1.4375 3.582,-2.1562 6.2188,-2.1562 2.4062,0 4.332,0.73047 5.7812,2.1875 1.4453,1.4492 2.1719,3.3828 2.1719,5.7969 z m -5.0312,-1.625 c 0,-0.92578 -0.27344,-1.6719 -0.8125,-2.2344 -0.54297,-0.57031 -1.25,-0.85938 -2.125,-0.85938 -0.94922,0 -1.7188,0.26562 -2.3125,0.79688 -0.5937,0.53126 -0.96484,1.2969 -1.1094,2.2969 z"
         id="path153" />
    </symbol>
    <symbol
       id="f"
       overflow="visible">
      <path
         d="m 9.2188,-6.8906 c -1.0234,0 -1.793,0.17188 -2.3125,0.51562 -0.51172,0.34375 -0.76562,0.85547 -0.76562,1.5312 0,0.625 0.20703,1.1172 0.625,1.4688 0.41406,0.34375 0.98828,0.51562 1.7188,0.51562 0.92578,0 1.7031,-0.32812 2.3281,-0.98438 0.63281,-0.66406 0.95312,-1.4922 0.95312,-2.4844 v -0.5625 z m 7.4688,-1.8438 V 0 h -4.9219 v -2.2656 c -0.65625,0.92969 -1.3984,1.6055 -2.2188,2.0312 -0.82422,0.41406 -1.8242,0.625 -3,0.625 -1.5859,0 -2.8711,-0.45703 -3.8594,-1.375 -0.99219,-0.92578 -1.4844,-2.1289 -1.4844,-3.6094 0,-1.7891 0.61328,-3.1016 1.8438,-3.9375 1.2383,-0.84375 3.1797,-1.2656 5.8281,-1.2656 h 2.8906 v -0.39062 c 0,-0.76953 -0.30859,-1.332 -0.92188,-1.6875 -0.61719,-0.36328 -1.5703,-0.54688 -2.8594,-0.54688 -1.0547,0 -2.0312,0.10547 -2.9375,0.3125 -0.89844,0.21094 -1.7305,0.52344 -2.5,0.9375 v -3.7344 c 1.0391,-0.25 2.0859,-0.44141 3.1406,-0.57812 1.0625,-0.13281 2.125,-0.20312 3.1875,-0.20312 2.7578,0 4.75,0.54688 5.9688,1.6406 1.2266,1.0859 1.8438,2.8555 1.8438,5.3125 z"
         id="path156" />
    </symbol>
    <symbol
       id="e"
       overflow="visible">
      <path
         d="m 7.7031,-19.656 v 4.3438 H 12.75 v 3.5 H 7.7031 v 6.5 c 0,0.71094 0.14062,1.1875 0.42188,1.4375 0.28126,0.25 0.83594,0.375 1.6719,0.375 h 2.5156 v 3.5 h -4.1875 c -1.9375,0 -3.3125,-0.39844 -4.125,-1.2031 -0.80469,-0.8125 -1.2031,-2.1797 -1.2031,-4.1094 v -6.5 h -2.4219 v -3.5 h 2.4219 v -4.3438 z"
         id="path159" />
    </symbol>
    <symbol
       id="g"
       overflow="visible">
      <path
         d="m 12.766,-13.078 v -8.2031 h 4.9219 V -1e-4 H 12.766 v -2.2188 c -0.66797,0.90625 -1.4062,1.5703 -2.2188,1.9844 -0.8126,0.4141 -1.7578,0.625 -2.8281,0.625 -1.8867,0 -3.4336,-0.75 -4.6406,-2.25 -1.2109,-1.5 -1.8125,-3.4258 -1.8125,-5.7812 0,-2.3633 0.60156,-4.2969 1.8125,-5.7969 1.207,-1.5 2.7539,-2.25 4.6406,-2.25 1.0625,0 2,0.21484 2.8125,0.64062 0.82031,0.42969 1.5664,1.0859 2.2344,1.9688 z m -3.2188,9.9219 c 1.0391,0 1.8359,-0.37891 2.3906,-1.1406 0.55078,-0.76953 0.82812,-1.8828 0.82812,-3.3438 0,-1.457 -0.27734,-2.5664 -0.82812,-3.3281 -0.55469,-0.76953 -1.3516,-1.1562 -2.3906,-1.1562 -1.043,0 -1.8398,0.38672 -2.3906,1.1562 -0.55469,0.76172 -0.82812,1.8711 -0.82812,3.3281 0,1.4609 0.27344,2.5742 0.82812,3.3438 0.55078,0.76172 1.3477,1.1406 2.3906,1.1406 z"
         id="path162" />
    </symbol>
    <symbol
       id="k"
       overflow="visible">
      <path
         d="m 10.5,-3.1562 c 1.0508,0 1.8516,-0.37891 2.4062,-1.1406 0.55078,-0.76953 0.82812,-1.8828 0.82812,-3.3438 0,-1.457 -0.27734,-2.5664 -0.82812,-3.3281 -0.55469,-0.76953 -1.3555,-1.1562 -2.4062,-1.1562 -1.0547,0 -1.8594,0.38672 -2.4219,1.1562 -0.55469,0.77344 -0.82812,1.8828 -0.82812,3.3281 0,1.4492 0.27344,2.5586 0.82812,3.3281 0.5625,0.77344 1.3672,1.1562 2.4219,1.1562 z m -3.25,-9.9219 c 0.67578,-0.88281 1.4219,-1.5391 2.2344,-1.9688 0.82031,-0.42578 1.7656,-0.64062 2.8281,-0.64062 1.8945,0 3.4453,0.75 4.6562,2.25 1.207,1.5 1.8125,3.4336 1.8125,5.7969 0,2.3555 -0.60547,4.2812 -1.8125,5.7812 -1.2109,1.5 -2.7617,2.25 -4.6562,2.25 -1.0625,0 -2.0078,-0.21094 -2.8281,-0.625 C 8.6719,-0.6602 7.9258,-1.32032 7.25,-2.21882 V -2e-5 H 2.3594 v -21.281 H 7.25 Z"
         id="path165" />
    </symbol>
    <symbol
       id="j"
       overflow="visible">
      <path
         d="m 0.34375,-15.312 h 4.8906 l 4.125,10.391 3.5,-10.391 h 4.8906 l -6.4375,16.766 c -0.64844,1.6953 -1.4023,2.8828 -2.2656,3.5625 -0.86719,0.6875 -2,1.0312 -3.4062,1.0312 H 2.79685 V 2.8289 h 1.5312 c 0.83203,0 1.4375,-0.13672 1.8125,-0.40625 C 6.52336,2.16093 6.82024,1.69218 7.03117,1.01645 L 7.17179,0.59457 Z"
         id="path168" />
    </symbol>
    <symbol
       id="i"
       overflow="visible">
      <path
         d="m 2.5781,-20.406 h 14.203 v 3.9688 H 7.828 v 3.7969 h 8.4219 v 3.9844 H 7.828 v 4.6719 h 9.25 V 4e-4 h -14.5 z"
         id="path171" />
    </symbol>
    <symbol
       id="v"
       overflow="visible">
      <path
         d="M 2.3594,-21.281 H 7.25 V 0 H 2.3594 Z"
         id="path174" />
    </symbol>
    <symbol
       id="u"
       overflow="visible">
      <path
         d="M 2.3594,-15.312 H 7.25 V 0 H 2.3594 Z m 0,-5.9688 H 7.25 v 4 H 2.3594 Z"
         id="path177" />
    </symbol>
    <symbol
       id="d"
       overflow="visible">
      <path
         d="M 17.75,-9.3281 V 0 h -4.9219 v -7.1406 c 0,-1.3203 -0.03125,-2.2344 -0.09375,-2.7344 -0.0625,-0.5 -0.16797,-0.86719 -0.3125,-1.1094 -0.1875,-0.3125 -0.44922,-0.55469 -0.78125,-0.73438 -0.32422,-0.17578 -0.69531,-0.26562 -1.1094,-0.26562 -1.0234,0 -1.8242,0.39844 -2.4062,1.1875 -0.58594,0.78125 -0.875,1.8711 -0.875,3.2656 V -1e-4 H 2.3594 v -15.312 H 7.25 v 2.2344 c 0.73828,-0.88281 1.5195,-1.5391 2.3438,-1.9688 0.83203,-0.42578 1.75,-0.64062 2.75,-0.64062 1.7695,0 3.1133,0.54688 4.0312,1.6406 0.91406,1.0859 1.375,2.6562 1.375,4.7188 z"
         id="path180" />
    </symbol>
    <symbol
       id="t"
       overflow="visible">
      <path
         d="m 10.75,-12.516 c 0.82031,0 1.4453,-0.17969 1.875,-0.54688 0.4375,-0.36328 0.65625,-0.89844 0.65625,-1.6094 0,-0.69531 -0.21875,-1.2266 -0.65625,-1.5938 -0.42969,-0.375 -1.0547,-0.5625 -1.875,-0.5625 H 7.8281 v 4.3125 z m 0.17188,8.9375 c 1.0625,0 1.8594,-0.22266 2.3906,-0.67188 0.53125,-0.44531 0.79688,-1.125 0.79688,-2.0312 0,-0.88281 -0.26562,-1.5469 -0.79688,-1.9844 -0.52344,-0.4375 -1.3203,-0.65625 -2.3906,-0.65625 h -3.0938 v 5.3438 z m 4.8906,-7.3438 c 1.1328,0.32422 2.0078,0.92969 2.625,1.8125 0.625,0.88672 0.9375,1.9688 0.9375,3.25 0,1.9688 -0.66797,3.4375 -2,4.4062 -1.3359,0.96875 -3.3555,1.4531 -6.0625,1.4531 h -8.7344 v -20.406 h 7.8906 c 2.832,0 4.8828,0.42969 6.1562,1.2812 1.2812,0.85547 1.9219,2.2266 1.9219,4.1094 0,1 -0.23438,1.8516 -0.70312,2.5469 -0.46875,0.6875 -1.1484,1.2031 -2.0312,1.5469 z"
         id="path183" />
    </symbol>
    <symbol
       id="s"
       overflow="visible">
      <path
         d="m 14.312,-14.828 v 3.7188 c -1.043,-0.4375 -2.0547,-0.76562 -3.0312,-0.98438 -0.98047,-0.21875 -1.9023,-0.32812 -2.7656,-0.32812 -0.92969,0 -1.6211,0.11719 -2.0781,0.34375 -0.44922,0.23047 -0.67188,0.58984 -0.67188,1.0781 0,0.38672 0.17188,0.68359 0.51562,0.89062 0.34375,0.21094 0.95703,0.36719 1.8438,0.46875 l 0.85938,0.125 c 2.5078,0.32422 4.1953,0.85156 5.0625,1.5781 0.86328,0.73047 1.2969,1.8711 1.2969,3.4219 0,1.6367 -0.60547,2.8672 -1.8125,3.6875 -1.1992,0.8125 -2.9922,1.2188 -5.375,1.2188 -1.0234,0 -2.0742,-0.078125 -3.1562,-0.23438 -1.0742,-0.15625 -2.1797,-0.39453 -3.3125,-0.71875 v -3.7188 c 0.96875,0.48047 1.9609,0.83984 2.9844,1.0781 1.0312,0.23047 2.0781,0.34375 3.1406,0.34375 0.95703,0 1.6758,-0.12891 2.1562,-0.39062 0.47656,-0.26953 0.71875,-0.66406 0.71875,-1.1875 0,-0.4375 -0.16797,-0.75781 -0.5,-0.96875 -0.33594,-0.21875 -0.99609,-0.38281 -1.9844,-0.5 L 7.34339,-6.01551 c -2.1797,-0.26953 -3.7031,-0.77344 -4.5781,-1.5156 -0.875,-0.73828 -1.3125,-1.8594 -1.3125,-3.3594 0,-1.625 0.55078,-2.8281 1.6562,-3.6094 1.1133,-0.78906 2.8203,-1.1875 5.125,-1.1875 0.89453,0 1.8359,0.07422 2.8281,0.21875 1,0.13672 2.082,0.35156 3.25,0.64062 z"
         id="path186" />
    </symbol>
    <symbol
       id="c"
       overflow="visible">
      <path
         d="m 9.6406,-12.188 c -1.0859,0 -1.9141,0.39062 -2.4844,1.1719 -0.57422,0.78125 -0.85938,1.9062 -0.85938,3.375 0,1.4688 0.28516,2.5938 0.85938,3.375 0.57031,0.77344 1.3984,1.1562 2.4844,1.1562 1.0625,0 1.875,-0.38281 2.4375,-1.1562 0.57031,-0.78125 0.85938,-1.9062 0.85938,-3.375 0,-1.4688 -0.28906,-2.5938 -0.85938,-3.375 -0.5625,-0.78125 -1.375,-1.1719 -2.4375,-1.1719 z m 0,-3.5 c 2.6328,0 4.6914,0.71484 6.1719,2.1406 1.4766,1.418 2.2188,3.3867 2.2188,5.9062 0,2.5117 -0.74219,4.4805 -2.2188,5.9062 C 14.332,-0.317 12.2734,0.39 9.6406,0.39 6.9922,0.39 4.9258,-0.31703 3.4375,-1.735 1.9453,-3.1608 1.2031,-5.1295 1.2031,-7.6412 c 0,-2.5195 0.74219,-4.4883 2.2344,-5.9062 1.4883,-1.4258 3.5547,-2.1406 6.2031,-2.1406 z"
         id="path189" />
    </symbol>
    <symbol
       id="h"
       overflow="visible">
      <path
         d="m 2.1875,-5.9688 v -9.3438 h 4.9219 v 1.5312 c 0,0.83594 -0.00781,1.875 -0.015625,3.125 -0.011719,1.25 -0.015625,2.0859 -0.015625,2.5 0,1.2422 0.03125,2.1328 0.09375,2.6719 0.070313,0.54297 0.17969,0.93359 0.32812,1.1719 0.20703,0.32422 0.47266,0.57422 0.79688,0.75 0.32031,0.16797 0.69141,0.25 1.1094,0.25 1.0195,0 1.8203,-0.39062 2.4062,-1.1719 0.58203,-0.78125 0.875,-1.8672 0.875,-3.2656 v -7.5625 h 4.8906 V -6e-4 H 12.6875 V -2.2194 C 11.94531,-1.32096 11.1641,-0.6608 10.3437,-0.235 9.51948,0.17906 8.6093,0.39 7.6093,0.39 5.8476,0.39 4.5038,-0.14906 3.5781,-1.235 2.64841,-2.317 2.1875,-3.8952 2.1875,-5.9694 Z"
         id="path192" />
    </symbol>
    <symbol
       id="r"
       overflow="visible">
      <path
         d="m 12.422,-21.281 v 3.2188 H 9.7189 c -0.6875,0 -1.1719,0.125 -1.4531,0.375 -0.27344,0.25 -0.40625,0.6875 -0.40625,1.3125 v 1.0625 h 4.1875 v 3.5 H 7.85955 V -2e-4 h -4.8906 v -11.812 h -2.4375 v -3.5 h 2.4375 v -1.0625 c 0,-1.6641 0.46094,-2.8984 1.3906,-3.7031 0.92578,-0.80078 2.3672,-1.2031 4.3281,-1.2031 z"
         id="path195" />
    </symbol>
    <symbol
       id="q"
       overflow="visible">
      <path
         d="m 16.547,-12.766 c 0.61328,-0.94531 1.3477,-1.6719 2.2031,-2.1719 0.85156,-0.5 1.7891,-0.75 2.8125,-0.75 1.7578,0 3.0977,0.54688 4.0156,1.6406 0.92578,1.0859 1.3906,2.6562 1.3906,4.7188 V -4e-4 h -4.9219 v -7.9844 -0.35938 c 0.0078,-0.13281 0.01563,-0.32031 0.01563,-0.5625 0,-1.082 -0.16406,-1.8633 -0.48438,-2.3438 -0.3125,-0.48828 -0.82422,-0.73438 -1.5312,-0.73438 -0.92969,0 -1.6484,0.38672 -2.1562,1.1562 -0.51172,0.76172 -0.77344,1.8672 -0.78125,3.3125 v 7.5156 h -4.9219 v -7.9844 c 0,-1.6953 -0.14844,-2.7852 -0.4375,-3.2656 -0.29297,-0.48828 -0.8125,-0.73438 -1.5625,-0.73438 -0.9375,0 -1.6641,0.38672 -2.1719,1.1562 -0.51172,0.76172 -0.76562,1.8594 -0.76562,3.2969 v 7.5312 h -4.9219 v -15.312 h 4.9219 v 2.2344 c 0.60156,-0.86328 1.2891,-1.5156 2.0625,-1.9531 0.78125,-0.4375 1.6406,-0.65625 2.5781,-0.65625 1.0625,0 2,0.25781 2.8125,0.76562 0.8125,0.51172 1.4258,1.2305 1.8438,2.1562 z"
         id="path198" />
    </symbol>
    <symbol
       id="p"
       overflow="visible">
      <path
         d="M 17.75,-9.3281 V 0 h -4.9219 v -7.1094 c 0,-1.3438 -0.03125,-2.2656 -0.09375,-2.7656 -0.0625,-0.5 -0.16797,-0.86719 -0.3125,-1.1094 -0.1875,-0.3125 -0.44922,-0.55469 -0.78125,-0.73438 -0.32422,-0.17578 -0.69531,-0.26562 -1.1094,-0.26562 -1.0234,0 -1.8242,0.39844 -2.4062,1.1875 -0.58594,0.78125 -0.875,1.8711 -0.875,3.2656 V -1e-4 H 2.3594 v -21.281 H 7.25 v 8.2031 c 0.73828,-0.88281 1.5195,-1.5391 2.3438,-1.9688 0.83203,-0.42578 1.75,-0.64062 2.75,-0.64062 1.7695,0 3.1133,0.54688 4.0312,1.6406 0.91406,1.0859 1.375,2.6562 1.375,4.7188 z"
         id="path201" />
    </symbol>
    <symbol
       id="o"
       overflow="visible">
      <path
         d="m 2.5781,-20.406 h 5.875 l 7.4219,14 v -14 h 4.9844 V 0 h -5.875 L 7.5625,-14 V 0 H 2.5781 Z"
         id="path204" />
    </symbol>
    <symbol
       id="n"
       overflow="visible">
      <path
         d="m 2.5781,-20.406 h 8.7344 c 2.5938,0 4.582,0.57812 5.9688,1.7344 1.3945,1.1484 2.0938,2.7891 2.0938,4.9219 0,2.1367 -0.69922,3.7812 -2.0938,4.9375 -1.3867,1.1562 -3.375,1.7344 -5.9688,1.7344 H 7.8281 V 3e-4 h -5.25 z m 5.25,3.8125 v 5.7031 H 10.75 c 1.0195,0 1.8047,-0.25 2.3594,-0.75 0.5625,-0.5 0.84375,-1.2031 0.84375,-2.1094 0,-0.91406 -0.28125,-1.6172 -0.84375,-2.1094 -0.55469,-0.48828 -1.3398,-0.73438 -2.3594,-0.73438 z"
         id="path207" />
    </symbol>
    <symbol
       id="m"
       overflow="visible">
      <path
         d="M 2.3594,-15.312 H 7.25 v 15.031 c 0,2.0508 -0.49609,3.6172 -1.4844,4.7031 -0.98047,1.082 -2.4062,1.625 -4.2812,1.625 H -0.9375 V 2.8283 h 0.85938 c 0.92578,0 1.5625,-0.21094 1.9062,-0.625 0.35156,-0.41797 0.53125,-1.2461 0.53125,-2.4844 z m 0,-5.9688 H 7.25 v 4 H 2.3594 Z"
         id="path210" />
    </symbol>
    <symbol
       id="l"
       overflow="visible">
      <path
         d="m 14.719,-14.828 v 3.9844 c -0.65625,-0.45703 -1.3242,-0.79688 -2,-1.0156 -0.66797,-0.21875 -1.3594,-0.32812 -2.0781,-0.32812 -1.3672,0 -2.4336,0.40234 -3.2031,1.2031 -0.76172,0.79297 -1.1406,1.9062 -1.1406,3.3438 0,1.4297 0.37891,2.543 1.1406,3.3438 0.76953,0.79297 1.8359,1.1875 3.2031,1.1875 0.75781,0 1.4844,-0.10938 2.1719,-0.32812 0.6875,-0.22656 1.3203,-0.56641 1.9062,-1.0156 v 4 c -0.76172,0.28125 -1.5391,0.48828 -2.3281,0.625 -0.78125,0.14453 -1.5742,0.21875 -2.375,0.21875 -2.7617,0 -4.9219,-0.70703 -6.4844,-2.125 -1.5547,-1.4141 -2.3281,-3.3828 -2.3281,-5.9062 0,-2.5312 0.77344,-4.5039 2.3281,-5.9219 1.5625,-1.4141 3.7227,-2.125 6.4844,-2.125 0.80078,0 1.5938,0.07422 2.375,0.21875 0.78125,0.13672 1.5547,0.35156 2.3281,0.64062 z"
         id="path213" />
    </symbol>
  </defs>
  <g
     id="g240"
     transform="translate(-75.924242,-6.0152577)">
    <path
       d="m 567.56,135.41 c -1.0586,-3.1016 -3.0078,-5.8281 -5.5977,-7.8398 -1.9609,-1.1523 -4.1328,-1.8945 -6.3867,-2.1836 l -1.7344,-0.33594 v -7 c 0,0 -18.703,-12.375 -30.238,-14.109 -11.535,-1.7344 -37.688,-3.7539 -39.594,0 -1.1719,2.9883 -1.8711,6.1445 -2.0703,9.3516 -8.625,-1.1211 -17.305,-2.1289 -25.93,-3.0781 v -0.004 c -1.1758,-0.92969 -2.5273,-1.6172 -3.9766,-2.0156 -6.5156,-1.6367 -13.172,-2.6484 -19.879,-3.0234 l -15.512,-0.72656 -32.594,-1.457 h -68.039 l -32.535,1.457 -15.512,0.72656 c -6.7266,0.37891 -13.402,1.3906 -19.938,3.0234 -1.4141,0.39453 -2.7305,1.082 -3.8633,2.0156 -8.6797,0.95312 -17.359,1.9609 -26.039,3.0781 v 0.004 c -0.17578,-3.2109 -0.875,-6.3711 -2.0742,-9.3516 -1.8477,-3.7539 -28,-1.7344 -39.535,0 -11.535,1.7344 -30.52,14.113 -30.52,14.113 v 7 l -1.793,0.33594 v -0.004 c -2.2344,0.29688 -4.3867,1.0391 -6.3281,2.1836 -2.5625,2.0391 -4.5,4.7578 -5.5977,7.8398 -35.281,79.746 -58.465,166.99 -50.402,253.91 1.8477,20.383 6.5508,42.504 22.398,55.328 h 0.004 c 10.102,7.2891 22.105,11.492 34.551,12.094 4.1875,0.72656 8.4141,1.2109 12.656,1.457 1.75,0.0859 3.4961,-0.23828 5.0938,-0.95312 3.6406,-2.0156 5.0391,-8.7344 6.6641,-12.266 3.3047,-7.1133 6.6094,-14.223 9.8008,-21.391 6.1602,-14 11.93,-28 16.801,-42.559 2.8438,-9.5391 6.5938,-18.785 11.199,-27.609 1.5547,-2.6992 3.332,-5.2695 5.3203,-7.6719 l 0.61719,-0.72656 c 4.8633,-5.1211 10.785,-9.1172 17.359,-11.703 4.4922,-1.1875 9.1289,-1.7344 13.777,-1.625 h 7.8398 l 9.0703,1.3438 c 16.023,1.2617 32.109,1.4883 48.16,0.67188 h 93.129 c 16.051,0.8125 32.137,0.58984 48.16,-0.67188 3.0234,-0.39062 5.9922,-0.89453 9.0156,-1.3438 h 7.8398 c 4.6641,-0.10547 9.3203,0.44141 13.832,1.625 6.5781,2.5742 12.508,6.5703 17.359,11.703 l 0.67188,0.78516 c 2.0977,2.3594 3.9727,4.9102 5.6016,7.6133 4.6055,8.8242 8.3555,18.07 11.199,27.609 5.0391,14.449 10.809,28.559 16.801,42.559 3.1914,7.168 6.4414,14.281 9.7422,21.391 1.625,3.5273 3.0234,10.246 6.7188,12.266 h 0.004 c 1.582,0.70312 3.3086,1.0312 5.0391,0.95312 4.2422,-0.23828 8.4688,-0.72266 12.656,-1.457 12.445,-0.59375 24.449,-4.7969 34.551,-12.094 16.016,-12.824 20.664,-34.945 22.398,-55.328 8.2891,-86.914 -14.949,-174.16 -50.344,-253.91 z M 246.74,115.59 c 0.66016,-1.0156 1.6836,-1.7383 2.8594,-2.0195 6.0977,-1.4961 12.32,-2.4336 18.59,-2.7969 l 15.566,-0.72656 32.258,-1.457 h 67.93 l 32.367,1.457 15.512,0.72656 c 6.25,0.36328 12.457,1.3008 18.535,2.7969 1.1758,0.28125 2.1992,1.0039 2.8555,2.0195 1.8594,4.5781 2.3281,9.6016 1.3438,14.445 0,1.1211 -1.3438,9.2969 -12.543,60.031 l -0.61719,2.8008 c -0.95312,5.9375 -5.6016,25.258 -22.398,25.984 h -137.59 c -17.359,-0.72656 -21.84,-20.047 -22.848,-26.098 0,0 0,-1.1758 -0.61719,-2.8555 -10.809,-48.832 -12.434,-58.465 -12.488,-60.09 l 0.004,0.004 c -0.98047,-4.7656 -0.53516,-9.7148 1.2852,-14.223 z m 16.801,193.2 c -8.332,0 -16.32,-3.3125 -22.215,-9.2031 -5.8906,-5.8906 -9.1992,-13.883 -9.1992,-22.215 0,-8.332 3.3086,-16.32 9.1992,-22.215 5.8945,-5.8906 13.883,-9.1992 22.215,-9.1992 8.332,0 16.324,3.3086 22.215,9.1992 5.8906,5.8945 9.2031,13.883 9.2031,22.215 0,8.3125 -3.2969,16.289 -9.1641,22.176 -5.8672,5.8867 -13.828,9.2109 -22.141,9.2422 z m 64.066,-71.234 c 0,-1.2656 0.76172,-2.4102 1.9336,-2.8945 1.1719,-0.48828 2.5195,-0.21875 3.418,0.67969 0.89844,0.89453 1.1641,2.2461 0.67969,3.418 -0.48437,1.1719 -1.6289,1.9336 -2.8984,1.9336 -0.83203,0 -1.6289,-0.32812 -2.2148,-0.91797 -0.58984,-0.58984 -0.91797,-1.3867 -0.91797,-2.2188 z m 7.8398,11.703 v 0.004 c -1.3164,0.13672 -2.5781,-0.56641 -3.1523,-1.7578 -0.57422,-1.1914 -0.33984,-2.6133 0.58594,-3.5586 0.92578,-0.94531 2.3438,-1.207 3.5469,-0.65625 1.2031,0.55078 1.9297,1.7969 1.8164,3.1133 -0.14062,1.6016 -1.4727,2.8359 -3.0781,2.8594 z m 22.398,-3.1367 v 0.004 c 0,1.2734 -0.76953,2.418 -1.9492,2.9023 -1.1797,0.48047 -2.5312,0.20312 -3.4258,-0.70703 -0.89062,-0.90625 -1.1445,-2.2656 -0.64062,-3.4375 0.50391,-1.168 1.6641,-1.918 2.9375,-1.8945 0.85938,0.0273 1.6758,0.41016 2.2461,1.0547 0.57422,0.64844 0.85547,1.5 0.77734,2.3594 z m -1.5117,-8.5664 c 0,-1.2656 0.76562,-2.4102 1.9375,-2.8945 1.1719,-0.48828 2.5195,-0.21875 3.4141,0.67969 0.89844,0.89453 1.168,2.2461 0.67969,3.418 -0.48438,1.1719 -1.6289,1.9336 -2.8945,1.9336 -0.84375,0.0156 -1.6562,-0.30859 -2.2539,-0.89844 -0.60156,-0.58984 -0.9375,-1.3945 -0.9375,-2.2383 z m -6.3281,3.25 c -1.2695,0 -2.4102,-0.76562 -2.8984,-1.9375 -0.48437,-1.1719 -0.21484,-2.5195 0.67969,-3.418 0.89844,-0.89453 2.2461,-1.1641 3.418,-0.67969 1.1719,0.48828 1.9375,1.6289 1.9375,2.8984 0,0.83203 -0.33203,1.6289 -0.91797,2.2188 -0.58984,0.58594 -1.3867,0.91797 -2.2188,0.91797 z m -1.5117,5.6016 v -0.004 c 0,1.2695 -0.76562,2.4141 -1.9375,2.8984 -1.17188,0.4843 -2.5195,0.21875 -3.418,-0.67969 -0.89453,-0.89844 -1.1641,-2.2461 -0.67969,-3.418 0.48828,-1.1719 1.6289,-1.9336 2.8984,-1.9336 1.7109,0.0273 3.082,1.4258 3.082,3.1328 z m -7.8398,-5.6016 c -1.2695,0 -2.4141,-0.76562 -2.8984,-1.9375 -0.4843,-1.17188 -0.21484,-2.5195 0.67969,-3.418 0.89844,-0.89453 2.2461,-1.1641 3.418,-0.67969 1.1719,0.48828 1.9375,1.6289 1.9375,2.8984 0,0.83984 -0.33984,1.6484 -0.9375,2.2383 -0.60156,0.58984 -1.4141,0.91406 -2.2539,0.89844 z m 20.551,67.871 h -11.199 -11.199 c -1.0078,0 -1.5117,-1.5664 -1.5117,-2.9102 0,-1.3438 1.1211,-2.5742 1.793,-2.5742 h 21.449 c 0.72656,0 1.793,1.2891 1.793,2.5742 -0.004,1.2852 -0.45312,2.7422 -1.125,2.9102 z m 3.8086,-59.414 c -1.2695,0 -2.4102,-0.76562 -2.8984,-1.9375 -0.48438,-1.1719 -0.21484,-2.5195 0.67969,-3.418 0.89844,-0.89844 2.2461,-1.1641 3.418,-0.67969 1.1719,0.48441 1.9375,1.6289 1.9375,2.8984 0,0.85938 -0.35156,1.6836 -0.97656,2.2773 -0.625,0.5937 -1.4688,0.90234 -2.3281,0.85937 z m 4.5352,-8.457 c -1.2656,0 -2.4102,-0.76562 -2.8945,-1.9375 -0.48828,-1.1719 -0.21875,-2.5195 0.67969,-3.418 0.89453,-0.89453 2.2422,-1.1641 3.4141,-0.67969 1.1719,0.48828 1.9375,1.6289 1.9375,2.8984 0,0.83203 -0.33203,1.6289 -0.91797,2.2188 -0.58984,0.58594 -1.3867,0.91797 -2.2188,0.91797 z m 66.754,67.984 c -8.3398,0.0273 -16.348,-3.2578 -22.262,-9.1367 -5.9141,-5.8789 -9.2461,-13.867 -9.2656,-22.207 -0.0195,-8.3359 3.2734,-16.34 9.1602,-22.246 5.8867,-5.9102 13.879,-9.2344 22.219,-9.2422 8.3359,-0.0117 16.336,3.293 22.238,9.1875 5.8984,5.8906 9.2148,13.891 9.2148,22.227 0,8.3125 -3.2969,16.289 -9.1641,22.176 -5.8672,5.887 -13.828,9.2109 -22.141,9.2422 z m 176.29,79.969 c -1.6797,17.695 -5.6016,39.199 -20.496,51.52 -6.2266,4.7578 -13.508,7.9453 -21.227,9.293 -1.0898,-1.3242 -2.082,-2.7266 -2.9688,-4.1992 -1.3477,-2.7578 -2.4727,-5.625 -3.3594,-8.5664 -1.8477,-4.9297 -3.9766,-9.9688 -5.6016,-15.062 -0.61719,-2.3516 -12.32,-39.199 -13.719,-42 -1.3984,-2.8008 -11.199,-27.215 -13.047,-30.801 -1.8477,-3.5859 -14.785,-32.535 -15.848,-34.664 -10.762,-23.031 -24.039,-44.797 -39.594,-64.906 -9.4062,-11.199 -24.137,-23.406 -27.16,-38.586 -0.61719,-3.0781 -1.5664,-14 -1.5664,-14 v 0.004 c -0.64453,4.8438 -1.8477,9.5977 -3.5859,14.168 -2.6758,3.9297 -5.7344,7.5859 -9.125,10.918 -4.0742,3.3047 -8.8125,5.6914 -13.891,7 h -71.68 -71.734 c -5.0625,-1.3086 -9.7812,-3.6953 -13.832,-7 -3.4297,-3.3125 -6.5078,-6.9727 -9.1836,-10.918 -1.7109,-4.5781 -2.9141,-9.3281 -3.5859,-14.168 0,0 -0.89453,11.199 -1.5664,14 -3.0234,15.176 -17.695,27.16 -27.105,38.586 v -0.004 c -15.57,20.094 -28.852,41.863 -39.59,64.906 -1.1211,2.1289 -14.336,31.078 -15.902,34.664 -1.566,3.586 -11.648,28 -13.047,30.801 -1.399,2.801 -13.047,39.648 -13.664,42 -1.3984,5.0977 -3.5273,10.137 -5.6016,15.062 h -0.004 c -0.91016,2.9336 -2.0312,5.7969 -3.3594,8.5664 -0.88281,1.4727 -1.875,2.875 -2.9688,4.1992 -7.7227,-1.3359 -15.004,-4.5234 -21.223,-9.293 -15.061996,-12.039 -18.870996,-33.602 -20.495996,-51.52 -7,-75.824 9.8008,-160.33 50.397996,-251.11 h 0.004 c 0.62891,-2.1328 1.8086,-4.0625 3.4141,-5.6016 1.375,-0.67578 2.8516,-1.1328 4.3672,-1.3438 31.305,-6.2734 63.223,-11.199 95.199,-14.617 v 0.004 c -0.95703,4.5273 -1.1484,9.1836 -0.55859,13.773 0,1.7344 1.2891,9.9102 12.602,61.098 0.39062,1.625 0.61719,2.6328 0.61719,2.6875 2.9688,18.258 13.719,30.016 28,30.633 h 137.93 c 14.336,-0.61719 25.09,-12.375 28,-30.52 0,0 0,-1.1211 0.61719,-2.6875 11.199,-51.297 12.656,-59.473 12.656,-60.984 0.55859,-4.668 0.37109,-9.3945 -0.5625,-14 31.863,3.4727 63.727,8.3438 95.199,14.617 v -0.004 c 1.5039,0.20312 2.9609,0.65625 4.3125,1.3438 1.6094,1.5469 2.8008,3.4727 3.4727,5.6016 40.207,90.777 57.121,175.28 50.066,251.11 z"
       id="path218" />
    <path
       d="m 496.66,203.28 c 0,10.145 -8.2227,18.367 -18.367,18.367 -10.1443,0 -18.367,-8.2227 -18.367,-18.367 0,-10.1443 8.2227,-18.371 18.367,-18.371 10.1443,0 18.367,8.2266 18.367,18.371"
       id="path220" />
    <path
       d="m 536.43,163.74 c 0,10.117 -8.1992,18.312 -18.312,18.312 -10.1128,0 -18.312,-8.1953 -18.312,-18.312 0,-10.113 8.1992,-18.309 18.312,-18.309 10.1128,0 18.312,8.1953 18.312,18.309"
       id="path222" />
    <path
       d="m 575.62,202.89 c 0,9.9297 -8.0508,17.977 -17.977,17.977 -9.9297,0 -17.977,-8.0469 -17.977,-17.977 0,-9.9258 8.0469,-17.977 17.977,-17.977 9.9258,0 17.977,8.0508 17.977,17.977"
       id="path224" />
    <path
       d="m 536.54,242.59 c 0,10.145 -8.2227,18.367 -18.367,18.367 -10.1443,0 -18.367,-8.2227 -18.367,-18.367 0,-10.1443 8.2227,-18.371 18.367,-18.371 10.1443,0 18.367,8.2266 18.367,18.371"
       id="path226" />
    <path
       d="m 475.55,131.43 c -0.86328,0.13281 -1.6797,0.5 -2.3516,1.0625 -0.78906,0.90234 -1.3984,1.9492 -1.793,3.0781 -1.8281,5.4102 -2.7383,11.09 -2.6875,16.801 1.1211,4.1445 4.2578,3.9766 4.2578,3.9766 1.4805,0.26172 2.9961,0.26172 4.4805,0 1.3164,-0.61719 2.3398,-1.7227 2.8555,-3.0781 0.95703,-3.3906 1.7227,-6.832 2.2969,-10.305 0.60156,-2.6641 0.86719,-5.3906 0.78125,-8.1211 -0.39062,-0.44922 -1.0078,-3.4141 -7.8398,-3.4141 z"
       id="path228" />
    <path
       d="m 224.45,131.43 c 0.86328,0.13281 1.6797,0.5 2.3516,1.0625 0.78906,0.90234 1.3984,1.9492 1.793,3.0781 1.8047,5.418 2.7109,11.094 2.6875,16.801 -1.1211,4.4258 -4.4805,4.4258 -4.4805,4.4258 -1.4844,0.26172 -3,0.26172 -4.4805,0 -1.3164,-0.61719 -2.3398,-1.7227 -2.8555,-3.082 -0.95703,-3.3867 -1.7266,-6.8281 -2.2969,-10.305 -0.63281,-2.6562 -0.89453,-5.3867 -0.78516,-8.1172 0.61719,-0.89844 1.2344,-3.8633 8.0664,-3.8633 z"
       id="path230" />
    <path
       d="m 191.63,157.14 h -9.6328 -9.6328 c -2.8008,0 -6.832,4.8711 -6.832,7.0547 v 17.754 c 0,2.3516 13.215,15.566 13.383,15.734 h 0.004 c 0.5,0.0508 1.0078,0.0508 1.5117,0 h 3.1367 -0.004 c 0.50391,0.0508 1.0117,0.0508 1.5117,0 0,0 13.383,-13.383 13.383,-15.734 l 0.004,-17.754 c 0,-2.1836 -4.0312,-7.1133 -6.832,-7.0547 z"
       id="path232" />
    <path
       d="m 191.63,249.09 h -19.266 c -2.8008,0 -6.832,-4.8711 -6.832,-7.0547 v -17.754 c 0,-2.3516 13.215,-15.625 13.383,-15.734 l 0.004,-0.004 c 0.5,-0.0469 1.0078,-0.0469 1.5117,0 h 3.1367 -0.004 c 0.50391,-0.0469 1.0117,-0.0469 1.5117,0 0,0 13.383,13.383 13.383,15.734 v 17.754 c 0.004,2.1836 -4.0273,7.1133 -6.8281,7.0586 z"
       id="path234" />
    <path
       d="m 227.98,212.8 v -9.6328 -9.6328 c 0,-2.8008 -4.8711,-6.832 -7.0547,-6.832 h -17.754 c -2.3516,0 -15.625,13.215 -15.734,13.383 v 0.004 c 0.004,0.50781 0.0586,1.0117 0.16797,1.5117 v 3.1367 -0.004 c -0.0508,0.50391 -0.0508,1.0117 0,1.5117 0,0 13.383,13.383 15.734,13.383 l 17.863,0.004 c 1.9062,-0.0586 6.832,-4.0898 6.7773,-6.832 z"
       id="path236" />
    <path
       d="m 136.02,212.8 v -9.6328 -9.6328 c 0,-2.8008 4.8711,-6.832 7.0547,-6.832 h 17.754 c 2.3516,0 15.625,13.215 15.734,13.383 v 0.004 c 0.0508,0.5 0.0508,1.0078 0,1.5117 v 3.1367 -0.004 c 0.0508,0.50391 0.0508,1.0117 0,1.5117 0,0 -13.383,13.383 -15.734,13.383 l -17.754,0.004 c -2.1836,-0.0586 -7.1094,-4.0898 -7.0547,-6.832 z"
       id="path238" />
  </g>
</svg>
