<?xml version="1.0" encoding="UTF-8" standalone="no"?>
<svg
   xml:space="preserve"
   version="1.1"
   style="image-rendering:optimizeQuality;shape-rendering:geometricPrecision;text-rendering:geometricPrecision"
   viewBox="0 0 505.45969 356.0828"
   x="0px"
   y="0px"
   fill-rule="evenodd"
   clip-rule="evenodd"
   id="svg56"
 fill="#D0D0D0" 
   sodipodi:docname="nintendo.svg"
   width="505.45969"
   height="356.08279"
   inkscape:version="1.2.2 (b0a8486541, 2022-12-01)"
   xmlns:inkscape="http://www.inkscape.org/namespaces/inkscape"
   xmlns:sodipodi="http://sodipodi.sourceforge.net/DTD/sodipodi-0.dtd"
   xmlns="http://www.w3.org/2000/svg"
   xmlns:svg="http://www.w3.org/2000/svg"><sodipodi:namedview
     id="namedview58"
     pagecolor="#ffffff"
     bordercolor="#000000"
     borderopacity="0.25"
     inkscape:showpageshadow="2"
     inkscape:pageopacity="0.0"
     inkscape:pagecheckerboard="0"
     inkscape:deskcolor="#d1d1d1"
     showgrid="false"
     inkscape:zoom="1.3667815"
     inkscape:cx="96.577251"
     inkscape:cy="224.24945"
     inkscape:window-width="931"
     inkscape:window-height="994"
     inkscape:window-x="0"
     inkscape:window-y="0"
     inkscape:window-maximized="1"
     inkscape:current-layer="svg56" /><defs
     id="defs4"><style
       type="text/css"
       id="style2">
   
  </style></defs><g
     id="g50"
     transform="translate(0.00261486,0.00820179)"><g
       id="g48"><path
         class="fil0"
         d="m 102.47,23.08 c -14.3,3.78 -26.48,9.68 -36.02,15.84 -13.2,8.52 -21.31,17.44 -23.15,22.05 -2.07,5.16 -14.37,56.32 -24.58,109.11 -6.19,31.97 -11.61,64.51 -13.5,87.71 -2.49,30.56 -1.68,52.67 4.59,67.83 6.11,14.79 17.63,23.04 36.63,26.27 22.43,3.81 41.03,-32.78 56.24,-62.74 10.44,-20.56 19.38,-38.17 28.11,-38.93 23.84,-2.07 72.69,-3.09 121.49,-3.09 49.4,0 98.86,1.04 122.42,3.09 8.72,0.76 17.67,18.36 28.11,38.93 15.22,29.97 33.81,66.55 56.24,62.74 19,-3.22 30.52,-11.48 36.63,-26.27 6.27,-15.16 7.08,-37.27 4.59,-67.83 -1.89,-23.19 -7.31,-55.72 -13.5,-87.67 C 476.56,117.33 464.25,66.16 462.19,60.97 460.35,56.36 452.24,47.44 439.04,38.92 429.49,32.76 417.31,26.86 403.02,23.08 378.08,16.47 315.44,13.16 252.75,13.16 c -62.7,0 -125.34,3.31 -150.27,9.92 z M 64.34,35.64 c 9.83,-6.35 22.38,-12.42 37.13,-16.32 25.28,-6.7 88.32,-10.07 151.26,-10.07 62.94,0 125.98,3.36 151.26,10.07 14.76,3.9 27.3,9.97 37.13,16.32 13.91,8.98 22.58,18.72 24.66,23.89 2.11,5.29 14.55,56.87 24.8,109.86 6.21,32.08 11.65,64.75 13.56,88.1 2.54,31.16 1.66,53.81 -4.88,69.62 -6.68,16.16 -19.12,25.15 -39.59,28.63 -25.24,4.3 -44.54,-33.71 -60.35,-64.82 -9.91,-19.52 -18.41,-36.21 -24.97,-36.79 -23.38,-2.02 -72.72,-3.06 -122.09,-3.06 -48.77,0 -97.5,1.01 -121.16,3.06 -6.57,0.58 -15.06,17.28 -24.97,36.79 -15.8,31.12 -35.11,69.12 -60.35,64.82 C 25.31,352.27 12.87,343.27 6.19,327.11 -0.35,311.3 -1.22,288.64 1.31,257.49 3.21,234.14 8.66,201.45 14.87,169.36 25.13,116.38 37.56,64.82 39.67,59.54 41.74,54.36 50.42,44.63 64.33,35.65 Z"
         id="path6" /><path
         class="fil0"
         d="M 55.96,41.95 C 60.04,31.22 67.1,22.8 76.81,16.45 86.41,10.16 98.61,5.87 113.1,3.32 c 14.4,-2.54 25.03,-3.5 32.94,-3.28 8.17,0.22 13.53,1.71 17.15,3.96 1.39,0.87 3.32,1.92 5.46,3.03 l 8.51,4.19 c 0.97,0.46 1.39,1.62 0.93,2.59 -0.32,0.67 -0.97,1.08 -1.67,1.12 -16.7,0.83 -32.05,1.96 -45.01,3.39 -12.06,1.34 -21.99,2.93 -28.94,4.77 -8.46,2.23 -16.17,5.21 -23.02,8.53 -8.04,3.9 -14.93,8.3 -20.48,12.57 -0.84,0.66 -2.07,0.5 -2.73,-0.35 -0.43,-0.55 -0.51,-1.27 -0.29,-1.88 z"
         id="path8" /><path
         class="fil0"
         d="m 428.65,16.44 c 9.71,6.36 16.77,14.78 20.87,25.5 0.22,0.61 0.14,1.33 -0.29,1.88 -0.66,0.85 -1.89,1.01 -2.73,0.35 -5.55,-4.27 -12.42,-8.66 -20.45,-12.56 -6.85,-3.33 -14.58,-6.3 -23.04,-8.54 -6.95,-1.84 -16.88,-3.43 -28.94,-4.77 -12.97,-1.43 -28.32,-2.56 -45.02,-3.39 -0.7,-0.04 -1.36,-0.44 -1.67,-1.12 -0.45,-0.97 -0.04,-2.13 0.93,-2.59 l 8.51,-4.18 c 2.14,-1.11 4.08,-2.17 5.47,-3.04 3.62,-2.26 8.98,-3.74 17.12,-3.96 7.93,-0.21 18.57,0.74 32.97,3.28 14.5,2.55 26.69,6.84 36.29,13.13 z"
         id="path10" /><path
         class="fil0"
         d="m 26.35,116.7 c -0.56,-0.92 -0.27,-2.13 0.64,-2.69 0.92,-0.56 2.13,-0.27 2.68,0.64 15.24,24.76 38.36,58.51 59.46,86.5 17.77,23.57 34.1,43.03 42.96,49.44 0.86,0.63 1.06,1.85 0.43,2.72 -0.63,0.87 -1.86,1.06 -2.72,0.44 -9.21,-6.66 -25.81,-26.41 -43.79,-50.24 C 64.83,175.41 41.62,141.54 26.34,116.7 Z"
         id="path12" /><path
         class="fil0"
         d="m 475.79,114.66 c 0.56,-0.92 1.76,-1.2 2.68,-0.64 0.92,0.56 1.2,1.77 0.64,2.69 -15.28,24.84 -38.48,58.72 -59.66,86.81 -17.97,23.83 -34.57,43.56 -43.8,50.24 -0.86,0.63 -2.08,0.42 -2.71,-0.44 -0.63,-0.87 -0.42,-2.08 0.44,-2.71 8.86,-6.41 25.18,-25.86 42.95,-49.43 21.1,-27.99 44.21,-61.74 59.45,-86.51 z"
         id="path14" /><path
         class="fil0"
         d="m 113.62,76.35 c 8.62,0 16.44,3.5 22.1,9.16 5.65,5.65 9.16,13.48 9.16,22.1 0,8.62 -3.5,16.45 -9.16,22.1 l -0.1,0.1 c -5.65,5.59 -13.42,9.06 -21.99,9.06 -8.62,0 -16.44,-3.51 -22.09,-9.15 -5.65,-5.65 -9.15,-13.48 -9.15,-22.1 0,-8.61 3.5,-16.44 9.15,-22.1 5.65,-5.65 13.47,-9.16 22.09,-9.16 z"
         id="path16" /><path
         class="fil0"
         d="m 113.62,60.6 c 12.97,0 24.72,5.27 33.22,13.77 8.5,8.5 13.77,20.26 13.77,33.23 0,12.97 -5.28,24.73 -13.78,33.22 -8.5,8.51 -20.24,13.77 -33.22,13.77 -12.96,0 -24.72,-5.27 -33.22,-13.77 -8.51,-8.51 -13.77,-20.26 -13.77,-33.22 0,-12.97 5.27,-24.73 13.77,-33.23 l 0.1,-0.1 c 8.49,-8.44 20.21,-13.68 33.12,-13.68 z m 30.47,16.53 c -7.79,-7.79 -18.57,-12.62 -30.47,-12.62 -11.86,0 -22.61,4.8 -30.39,12.54 l -0.08,0.08 c -7.79,7.79 -12.62,18.57 -12.62,30.47 0,11.9 4.83,22.68 12.61,30.47 7.79,7.79 18.57,12.61 30.47,12.61 11.9,0 22.67,-4.82 30.47,-12.61 7.79,-7.79 12.62,-18.56 12.62,-30.47 0,-11.9 -4.83,-22.68 -12.62,-30.47 z"
         id="path18" /><path
         class="fil0"
         d="m 318.77,146.08 c 8.61,0 16.44,3.5 22.1,9.16 5.66,5.66 9.16,13.47 9.16,22.1 0,8.62 -3.5,16.44 -9.15,22.09 l -0.1,0.1 c -5.65,5.59 -13.42,9.05 -22,9.05 -8.61,0 -16.42,-3.5 -22.08,-9.15 -5.67,-5.66 -9.16,-13.47 -9.16,-22.08 0,-8.63 3.5,-16.45 9.15,-22.1 5.65,-5.65 13.46,-9.16 22.09,-9.16 z"
         id="path20" /><path
         class="fil0"
         d="m 318.79,130.32 c 12.97,0 24.72,5.27 33.22,13.77 l 0.1,0.1 c 8.44,8.5 13.67,20.2 13.67,33.13 0,12.97 -5.27,24.73 -13.77,33.23 l -0.1,0.1 c -8.49,8.44 -20.2,13.67 -33.12,13.67 -12.97,0 -24.73,-5.27 -33.24,-13.77 l -0.09,-0.1 c -8.45,-8.5 -13.68,-20.22 -13.68,-33.13 0,-12.96 5.27,-24.72 13.78,-33.22 8.5,-8.51 20.26,-13.77 33.23,-13.77 z m 30.47,16.53 c -7.79,-7.79 -18.57,-12.61 -30.47,-12.61 -11.9,0 -22.68,4.83 -30.47,12.61 -7.8,7.79 -12.63,18.57 -12.63,30.47 0,11.86 4.79,22.61 12.54,30.39 l 0.08,0.08 c 7.79,7.79 18.57,12.62 30.47,12.62 11.86,0 22.6,-4.8 30.38,-12.54 l 0.08,-0.08 c 7.79,-7.79 12.61,-18.57 12.61,-30.47 0,-11.86 -4.79,-22.61 -12.53,-30.39 l -0.08,-0.08 z"
         id="path22" /><path
         class="fil0"
         d="m 165.23,137.87 h 19.62 c 1.53,0 2.93,0.63 3.94,1.64 l 0.1,0.11 c 0.95,0.99 1.54,2.35 1.54,3.83 v 19.21 h 19.99 c 1.31,0 2.53,0.55 3.38,1.4 l 0.15,0.17 c 0.77,0.85 1.26,1.98 1.26,3.2 v 21.22 c 0,1.3 -0.55,2.5 -1.4,3.37 -0.89,0.88 -2.1,1.42 -3.39,1.42 h -19.99 v 19.21 c 0,1.52 -0.63,2.92 -1.64,3.93 -1.02,1.01 -2.42,1.64 -3.95,1.64 h -19.62 c -1.53,0 -2.94,-0.64 -3.94,-1.64 -1.01,-1.01 -1.65,-2.41 -1.65,-3.94 v -19.21 h -19.99 c -1.31,0 -2.5,-0.54 -3.36,-1.4 -0.88,-0.89 -1.42,-2.09 -1.42,-3.39 v -21.22 c 0,-1.31 0.55,-2.52 1.4,-3.37 l 0.19,-0.16 c 0.85,-0.76 1.97,-1.24 3.19,-1.24 h 19.99 v -19.21 c 0,-1.53 0.63,-2.93 1.64,-3.94 l 0.13,-0.12 c 1,-0.93 2.35,-1.52 3.82,-1.52 z"
         id="path24" /><path
         class="fil0"
         d="m 385.86,54.18 c 5.48,0 10.45,2.23 14.04,5.82 l 0.1,0.1 c 3.53,3.58 5.73,8.53 5.73,13.94 0,5.48 -2.23,10.45 -5.81,14.05 l -0.1,0.1 c -3.59,3.54 -8.53,5.73 -13.95,5.73 -5.47,0 -10.45,-2.23 -14.04,-5.83 -3.59,-3.59 -5.82,-8.56 -5.82,-14.04 0,-5.47 2.23,-10.45 5.83,-14.04 3.59,-3.59 8.56,-5.83 14.04,-5.83 z"
         id="path26" /><path
         class="fil0"
         d="m 425.11,87.86 c 5.48,0 10.45,2.23 14.04,5.82 l 0.1,0.1 c 3.53,3.59 5.73,8.53 5.73,13.95 0,5.47 -2.23,10.45 -5.83,14.04 -3.58,3.59 -8.56,5.83 -14.04,5.83 -5.48,0 -10.45,-2.23 -14.04,-5.81 -3.59,-3.59 -5.82,-8.57 -5.82,-14.05 0,-5.48 2.23,-10.45 5.82,-14.05 3.59,-3.59 8.56,-5.82 14.04,-5.82 z"
         id="path28" /><path
         class="fil0"
         d="m 385.86,122.7 c 5.48,0 10.46,2.23 14.05,5.81 l 0.1,0.1 c 3.53,3.59 5.72,8.52 5.72,13.95 0,5.48 -2.23,10.45 -5.81,14.04 -3.59,3.59 -8.57,5.81 -14.05,5.81 -5.48,0 -10.45,-2.23 -14.05,-5.81 -3.59,-3.59 -5.81,-8.56 -5.81,-14.04 0,-5.48 2.23,-10.45 5.81,-14.05 3.59,-3.59 8.57,-5.82 14.05,-5.82 z"
         id="path30" /><circle
         class="fil1"
         cx="346.79001"
         cy="107.73"
         r="17.91"
         id="circle32" /><path
         class="fil0"
         d="m 346.79,87.86 c 5.47,0 10.45,2.23 14.04,5.83 3.59,3.59 5.83,8.56 5.83,14.04 0,5.48 -2.23,10.45 -5.82,14.04 l -0.1,0.1 c -3.59,3.54 -8.53,5.73 -13.95,5.73 -5.48,0 -10.45,-2.23 -14.04,-5.82 l -0.1,-0.1 c -3.54,-3.59 -5.73,-8.53 -5.73,-13.94 0,-5.47 2.23,-10.45 5.83,-14.04 3.59,-3.59 8.56,-5.83 14.04,-5.83 z"
         id="path34" /><path
         class="fil0"
         d="m 288.39,95.96 c 3.51,0 6.71,1.44 9.01,3.74 2.3,2.3 3.74,5.5 3.74,9.02 0,3.52 -1.43,6.72 -3.74,9.02 -2.3,2.3 -5.5,3.74 -9.01,3.74 -3.52,0 -6.72,-1.43 -9.02,-3.74 -2.3,-2.3 -3.74,-5.5 -3.74,-9.02 0,-3.52 1.43,-6.72 3.74,-9.02 2.3,-2.3 5.5,-3.74 9.02,-3.74 z m 6.26,6.5 c -1.59,-1.59 -3.81,-2.59 -6.26,-2.59 -2.44,0 -4.66,1 -6.26,2.59 -1.59,1.59 -2.59,3.81 -2.59,6.26 0,2.45 1,4.67 2.59,6.26 1.59,1.59 3.81,2.59 6.26,2.59 2.44,0 4.66,-0.99 6.26,-2.59 1.59,-1.59 2.59,-3.81 2.59,-6.26 0,-2.45 -0.99,-4.67 -2.59,-6.26 z"
         id="path36" /><path
         class="fil0"
         d="m 314.93,56.9 c 3.52,0 6.72,1.43 9.03,3.74 2.3,2.3 3.74,5.5 3.74,9.02 0,3.51 -1.43,6.71 -3.74,9.01 l -0.1,0.1 c -2.3,2.25 -5.46,3.64 -8.93,3.64 -3.51,0 -6.71,-1.43 -9.01,-3.74 -2.3,-2.3 -3.74,-5.5 -3.74,-9.01 0,-3.52 1.43,-6.72 3.74,-9.02 2.3,-2.3 5.5,-3.74 9.01,-3.74 z m 6.26,6.5 c -1.59,-1.59 -3.81,-2.59 -6.26,-2.59 -2.44,0 -4.66,1 -6.26,2.59 -1.59,1.59 -2.59,3.81 -2.59,6.26 0,2.44 0.99,4.66 2.59,6.26 1.59,1.59 3.81,2.59 6.26,2.59 2.41,0 4.59,-0.96 6.19,-2.51 l 0.08,-0.08 c 1.59,-1.59 2.59,-3.82 2.59,-6.26 0,-2.44 -1,-4.66 -2.59,-6.26 z"
         id="path38" /><path
         class="fil0"
         d="m 190.35,56.9 c 3.52,0 6.72,1.43 9.02,3.74 2.3,2.3 3.74,5.5 3.74,9.02 0,3.51 -1.43,6.71 -3.74,9.01 -2.3,2.3 -5.5,3.74 -9.02,3.74 -3.51,0 -6.71,-1.43 -9.01,-3.74 -2.3,-2.3 -3.74,-5.5 -3.74,-9.01 0,-3.52 1.43,-6.72 3.74,-9.02 2.3,-2.3 5.5,-3.74 9.01,-3.74 z m 6.26,6.5 c -1.59,-1.59 -3.81,-2.59 -6.26,-2.59 -2.45,0 -4.66,1 -6.26,2.59 -1.59,1.59 -2.59,3.81 -2.59,6.26 0,2.44 1,4.66 2.59,6.26 1.59,1.59 3.81,2.59 6.26,2.59 2.45,0 4.67,-1 6.26,-2.59 1.59,-1.59 2.59,-3.82 2.59,-6.26 0,-2.45 -0.99,-4.66 -2.59,-6.26 z"
         id="path40" /><path
         class="fil0"
         d="m 208.33,96.01 h 16.72 c 0.92,0 1.77,0.39 2.38,0.99 0.6,0.6 0.99,1.44 0.99,2.38 v 17.45 c 0,0.92 -0.39,1.77 -0.99,2.38 -0.6,0.61 -1.46,0.99 -2.38,0.99 h -16.72 c -0.93,0 -1.77,-0.38 -2.38,-0.99 -0.6,-0.6 -0.99,-1.46 -0.99,-2.38 V 99.38 c 0,-0.93 0.39,-1.77 0.99,-2.38 0.6,-0.6 1.44,-0.99 2.38,-0.99 z m 16.17,3.91 h -15.63 v 16.36 h 15.63 z"
         id="path42" /><path
         class="fil0"
         d="m 242.26,26.9 h 7.65 c 1.07,0 1.95,0.88 1.95,1.96 v 39.21 c 0,1.07 -0.88,1.95 -1.95,1.95 h -7.65 c -2.85,0 -5.44,-1.16 -7.32,-3.04 -1.87,-1.87 -3.04,-4.47 -3.04,-7.31 V 37.26 c 0,-2.85 1.17,-5.44 3.04,-7.31 1.88,-1.89 4.47,-3.05 7.32,-3.05 z m 5.7,3.91 h -5.7 c -1.78,0 -3.4,0.73 -4.56,1.89 -1.17,1.16 -1.9,2.78 -1.9,4.56 v 22.41 c 0,1.77 0.73,3.39 1.9,4.55 1.16,1.16 2.78,1.89 4.56,1.89 h 5.7 z"
         id="path44" /><path
         class="fil0"
         d="m 255.56,26.9 h 7.66 c 2.85,0 5.44,1.18 7.32,3.04 1.87,1.87 3.04,4.47 3.04,7.32 v 22.41 c 0,2.84 -1.18,5.44 -3.04,7.31 l -0.11,0.1 c -1.87,1.81 -4.42,2.94 -7.21,2.94 h -7.66 c -1.07,0 -1.95,-0.88 -1.95,-1.95 V 28.86 c 0,-1.08 0.88,-1.96 1.95,-1.96 z"
         id="path46" /></g></g></svg>
