<?xml version="1.0" encoding="UTF-8" standalone="no"?>
<!-- Created with Inkscape (http://www.inkscape.org/) -->

<svg
   width="128"
   height="128"
   viewBox="0 0 120 120"
   id="svg8490"
   version="1.1"
   inkscape:version="1.2.2 (b0a8486541, 2022-12-01)"
   sodipodi:docname="usb_drive.svg"
   xmlns:inkscape="http://www.inkscape.org/namespaces/inkscape"
   xmlns:sodipodi="http://sodipodi.sourceforge.net/DTD/sodipodi-0.dtd"
   xmlns="http://www.w3.org/2000/svg"
   xmlns:svg="http://www.w3.org/2000/svg"
   xmlns:rdf="http://www.w3.org/1999/02/22-rdf-syntax-ns#"
   xmlns:cc="http://creativecommons.org/ns#"
   xmlns:dc="http://purl.org/dc/elements/1.1/">
  <defs
     id="defs8492" />
  <sodipodi:namedview
     id="base"
     pagecolor="#ffffff"
     bordercolor="#666666"
     borderopacity="1.0"
     inkscape:pageopacity="0"
     inkscape:pageshadow="2"
     inkscape:zoom="2.8"
     inkscape:cx="116.60714"
     inkscape:cy="69.107143"
     inkscape:document-units="px"
     inkscape:current-layer="layer1"
     showgrid="false"
     fit-margin-top="0"
     fit-margin-left="0"
     fit-margin-right="0"
     fit-margin-bottom="0"
     inkscape:window-width="1920"
     inkscape:window-height="1048"
     inkscape:window-x="0"
     inkscape:window-y="32"
     inkscape:window-maximized="1"
     inkscape:showpageshadow="2"
     inkscape:pagecheckerboard="true"
     inkscape:deskcolor="#d1d1d1" />
  <metadata
     id="metadata8495">
    <rdf:RDF>
      <cc:Work
         rdf:about="">
        <dc:format>image/svg+xml</dc:format>
        <dc:type
           rdf:resource="http://purl.org/dc/dcmitype/StillImage" />
      </cc:Work>
    </rdf:RDF>
  </metadata>
  <g
     inkscape:label="Layer 1"
     inkscape:groupmode="layer"
     id="layer1"
     transform="translate(-261.33864,-68.748218)">
    <g
       id="g8361"
       transform="matrix(1.066514,-0.61575217,0.61575217,1.066514,-335.66918,-85.975397)"
       fill="#d0d0d0">
      <path
         id="rect8284"
         style="fill-opacity:1;fill-rule:nonzero;stroke:none;stroke-width:0.405163;stroke-linecap:round;stroke-linejoin:bevel;stroke-miterlimit:4;stroke-dasharray:none;stroke-opacity:1"
         d="m 345.24139,440.37379 c -3.96814,6.87302 -1.62951,15.60088 5.2435,19.56902 6.87302,3.96814 15.60089,1.62951 19.56902,-5.2435 l 4.46431,-7.73241 3.39285,-5.87658 22.27644,-38.58393 c 1.50731,-2.61074 0.61843,-5.92593 -1.9923,-7.43324 l -15.3867,-8.88351 c -2.61074,-1.50731 -5.92621,-0.61951 -7.43352,1.99122 l -22.27645,38.58394 -3.39284,5.87658 z m 35.31378,-52.19391 17.0431,9.83985 10.12908,-17.54407 -17.04311,-9.83985 z m 7.76083,-6.06217 1.80899,-3.13326 3.13326,1.80898 -1.80899,3.13327 z m 7.51928,4.34126 1.80899,-3.13326 3.13257,1.80859 -1.80899,3.13326 z" />
    </g>
  </g>
</svg>
