<?xml version="1.0" encoding="UTF-8" standalone="no"?>
<!-- Created with Inkscape (http://www.inkscape.org/) -->

<svg
   width="482mm"
   height="482mm"
   viewBox="0 0 482 482"
   version="1.1"
   id="svg168"
   xml:space="preserve"
   sodipodi:docname="video_camera.svg"
   inkscape:version="1.2.2 (b0a8486541, 2022-12-01)"
   xmlns:inkscape="http://www.inkscape.org/namespaces/inkscape"
   xmlns:sodipodi="http://sodipodi.sourceforge.net/DTD/sodipodi-0.dtd"
   xmlns="http://www.w3.org/2000/svg"
   xmlns:svg="http://www.w3.org/2000/svg"><sodipodi:namedview
     id="namedview170"
     pagecolor="#ffffff"
     bordercolor="#000000"
     borderopacity="0.25"
     inkscape:showpageshadow="2"
     inkscape:pageopacity="0.0"
     inkscape:pagecheckerboard="0"
     inkscape:deskcolor="#d1d1d1"
     inkscape:document-units="mm"
     showgrid="false"
     inkscape:zoom="0.39108446"
     inkscape:cx="634.13413"
     inkscape:cy="889.83337"
     inkscape:window-width="1770"
     inkscape:window-height="1032"
     inkscape:window-x="150"
     inkscape:window-y="24"
     inkscape:window-maximized="1"
     inkscape:current-layer="layer1" /><defs
     id="defs165" /><g
     inkscape:label="Layer 1"
     inkscape:groupmode="layer"
     id="layer1"
     style="display:inline"><path
       style="fill:#d1d1d1;stroke-width:0.94105;fill-opacity:1"
       d="m 122.24241,447.73612 c -12.91273,-4.53955 -16.74574,-21.17807 -7.10069,-30.82312 5.35753,-5.35753 7.71118,-5.68912 40.3819,-5.68912 h 29.29864 V 373.63905 336.05424 L 132.3587,335.69197 C 86.643414,335.37631 79.108357,335.12266 73.778324,333.72004 49.426807,327.31183 29.560211,313.63025 16.437211,294.23082 11.481155,286.9044 5.2949865,272.94892 2.9890949,263.89299 0.85468946,255.51055 0.84692604,255.22597 0.84692604,185.37181 c 0,-69.85416 0.007764,-70.13874 2.14216886,-78.52118 C 5.2949865,97.794695 11.481155,83.839216 16.437211,76.512791 30.118589,56.287923 52.271302,41.569412 76.601475,36.538982 81.582503,35.509121 112.33644,35.274287 242.22633,35.274287 h 159.50802 l 8.41293,2.142169 c 4.62712,1.178192 12.30155,3.984219 17.05429,6.235614 27.31528,12.939365 44.75905,34.27263 52.78419,64.55361 1.44286,5.44431 1.65914,13.35941 1.96711,71.99035 0.23508,44.754 0.0117,68.39716 -0.6968,73.74495 -3.48831,26.33096 -18.78008,51.06205 -40.77095,65.93806 -6.90079,4.66814 -20.88071,10.92072 -29.81079,13.33303 -7.80932,2.10955 -9.24258,2.16885 -60.46248,2.50147 l -52.46356,0.3407 v 37.54828 37.5483 l 30.8194,0.27179 c 28.00712,0.247 31.14626,0.43415 34.40146,2.05107 7.37699,3.66427 11.4394,12.88514 9.26254,21.02415 -1.51771,5.67453 -4.71727,9.86055 -9.26254,12.11826 -3.44967,1.71351 -7.91249,1.78543 -120.74282,1.9459 -80.15694,0.114 -118.05242,-0.14684 -119.98392,-0.82587 z m 137.86387,-74.15425 v -37.64201 h -18.821 -18.82101 v 37.64201 37.64201 h 18.82101 18.821 z M 401.644,296.43886 c 10.63049,-2.71883 17.84958,-6.89694 26.0009,-15.04826 8.15131,-8.15132 12.32942,-15.3704 15.04825,-26.00089 1.76003,-6.88167 1.85899,-10.60894 1.85899,-70.0179 0,-59.40896 -0.099,-63.13623 -1.85899,-70.0179 -2.71883,-10.63049 -6.89694,-17.849577 -15.04825,-26.000895 -8.15132,-8.151314 -15.37041,-12.329427 -26.0009,-15.048249 -7.09222,-1.813885 -10.98326,-1.858993 -160.35872,-1.858993 -149.375469,0 -153.266505,0.04511 -160.358728,1.858993 -10.630491,2.718822 -17.849584,6.896935 -26.000898,15.048249 -8.151313,8.151318 -12.329427,15.370405 -15.048248,26.000895 -1.760033,6.88167 -1.858993,10.60894 -1.858993,70.0179 0,59.40896 0.09896,63.13623 1.858993,70.0179 2.718821,10.63049 6.896935,17.84957 15.048248,26.00089 8.03609,8.03609 15.329345,12.30572 25.629844,15.00429 6.623419,1.73523 12.334779,1.80117 160.343982,1.85114 149.84947,0.0506 153.64767,0.008 160.74452,-1.80717 z M 230.93372,278.93348 c -1.29394,-0.2308 -4.89346,-0.87794 -7.99892,-1.43809 -22.81173,-4.11472 -46.07705,-19.59834 -59.69374,-39.72759 -5.00726,-7.40211 -11.15903,-21.33362 -13.39636,-30.33783 -2.97502,-11.97312 -2.97502,-32.1432 0,-44.11632 2.23733,-9.00422 8.3891,-22.93572 13.39636,-30.33784 13.55879,-20.04366 35.16182,-34.497433 59.69374,-39.938846 9.26906,-2.055966 30.35823,-1.584955 40.40864,0.902497 16.13726,3.993935 32.54985,13.267089 44.32847,25.045709 24.67372,24.67373 33.70842,61.09533 23.32251,94.02012 -6.47363,20.52235 -19.8552,38.60108 -37.31315,50.41074 -7.12141,4.81736 -21.05436,10.98133 -29.81079,13.18835 -7.70647,1.94237 -27.32652,3.32979 -32.93676,2.3291 z m 23.90643,-38.95764 c 10.63049,-2.71883 17.84958,-6.89694 26.0009,-15.04825 8.15132,-8.15132 12.32943,-15.37041 15.04826,-26.0009 3.39563,-13.27682 1.63275,-27.71352 -4.90886,-40.19973 -3.99952,-7.63405 -15.41628,-19.0508 -23.05032,-23.05032 -12.48622,-6.54161 -26.92292,-8.3045 -40.19973,-4.90886 -10.63049,2.71883 -17.84958,6.89694 -26.0009,15.04825 -8.15131,8.15132 -12.32943,15.37041 -15.04825,26.0009 -3.39564,13.27682 -1.63275,27.71352 4.90885,40.19973 4.00345,7.64154 15.41585,19.05054 23.06506,23.05818 12.48384,6.54065 26.89966,8.29881 40.18499,4.901 z m -20.09784,-37.01102 c -7.34166,-2.34048 -13.25506,-12.1488 -11.99731,-19.89943 1.33746,-8.24179 6.12763,-13.58507 14.08733,-15.71396 13.87986,-3.7123 26.23903,9.24484 22.28587,23.36413 -2.8379,10.13598 -13.77101,15.63004 -24.37589,12.24926 z M 385.31036,146.5018 c -7.34166,-2.34048 -13.25506,-12.1488 -11.99731,-19.89943 1.33746,-8.24178 6.12763,-13.58507 14.08733,-15.71396 13.87986,-3.7123 26.23903,9.24484 22.28586,23.36414 -2.83789,10.13597 -13.77101,15.63003 -24.37588,12.24925 z"
       id="path3202" /></g></svg>
