<?xml version="1.0" encoding="UTF-8" standalone="no"?>
<svg
   version="1.1"
   x="0px"
   y="0px"
   viewBox="0 0 90.044762 60.210842"
   xml:space="preserve"
   fill="#D0D0D0"
   id="svg20"
   sodipodi:docname="xbox.svg"
   width="90.044762"
   height="60.210842"
   inkscape:version="1.2.2 (b0a8486541, 2022-12-01)"
   xmlns:inkscape="http://www.inkscape.org/namespaces/inkscape"
   xmlns:sodipodi="http://sodipodi.sourceforge.net/DTD/sodipodi-0.dtd"
   xmlns="http://www.w3.org/2000/svg"
   xmlns:svg="http://www.w3.org/2000/svg"><defs
     id="defs24" /><sodipodi:namedview
     id="namedview22"
     pagecolor="#ffffff"
     bordercolor="#000000"
     borderopacity="0.25"
     inkscape:showpageshadow="2"
     inkscape:pageopacity="0.0"
     inkscape:pagecheckerboard="0"
     inkscape:deskcolor="#d1d1d1"
     showgrid="false"
     inkscape:zoom="6.968"
     inkscape:cx="11.122273"
     inkscape:cy="45.995982"
     inkscape:window-width="1920"
     inkscape:window-height="1080"
     inkscape:window-x="0"
     inkscape:window-y="0"
     inkscape:window-maximized="1"
     inkscape:current-layer="svg20" /><g
     id="g14"
     transform="translate(-4.9458719,-19.19072)"><g
       id="g12"><path
         d="m 61.6,46 c -2.7,0 -5,2.2 -5,5 0,2.8 2.2,5 5,5 2.7,0 5,-2.2 5,-5 0,-2.8 -2.2,-5 -5,-5 z m 0,8.2 c -1.8,0 -3.2,-1.5 -3.2,-3.2 0,-1.7 1.5,-3.2 3.2,-3.2 1.7,0 3.2,1.5 3.2,3.2 0,1.7 -1.4,3.2 -3.2,3.2 z"
         id="path2" /><path
         d="m 27.2,32.3 c -2.7,0 -5,2.2 -5,5 0,2.8 2.2,5 5,5 2.8,0 5,-2.2 5,-5 0,-2.8 -2.3,-5 -5,-5 z m 0,8.2 C 25.4,40.5 24,39 24,37.3 c 0,-1.7 1.5,-3.2 3.2,-3.2 1.7,0 3.2,1.5 3.2,3.2 0,1.7 -1.4,3.2 -3.2,3.2 z"
         id="path4" /><path
         d="m 40.4,50.1 c -0.1,0 -0.3,-0.1 -0.3,-0.3 v -3.3 c 0,-0.2 -0.2,-0.4 -0.4,-0.4 h -2.6 c -0.2,0 -0.4,0.2 -0.4,0.4 v 3.3 c 0,0.1 -0.1,0.3 -0.3,0.3 h -3.3 c -0.2,0 -0.4,0.2 -0.4,0.4 v 2.6 c 0,0.2 0.2,0.4 0.4,0.4 h 3.3 c 0.1,0 0.3,0.1 0.3,0.3 v 3.3 c 0,0.2 0.2,0.4 0.4,0.4 h 2.6 c 0.2,0 0.4,-0.2 0.4,-0.4 v -3.3 c 0,-0.1 0.1,-0.3 0.3,-0.3 h 3.3 c 0.2,0 0.4,-0.2 0.4,-0.4 v -2.6 c 0,-0.2 -0.2,-0.4 -0.4,-0.4 z"
         id="path6" /><path
         d="m 93.3,54.4 c 0,0 -7.5,-22.4 -8.5,-24.8 -1,-2.4 -2.9,-3 -2.9,-3 -1,-1.6 -1.4,-2.9 -1.4,-2.9 -4.8,-3.2 -13.6,-5.6 -15.7,-4 -2.1,1.6 -3.6,1.7 -3.6,1.7 H 50 38.7 c 0,0 -1.5,-0.1 -3.6,-1.7 -2.1,-1.6 -10.9,0.9 -15.7,4 0,0 -0.4,1.3 -1.4,2.9 0,0 -1.9,0.6 -2.9,3 -1,2.4 -8.5,24.8 -8.5,24.8 0,0 -7,23.4 7.8,25 0,0 0.4,0.1 2,-1.3 0,0 11.7,-11.4 12.8,-12.1 1.1,-0.6 2.3,-2 5.1,-2 2.8,0 15.5,0 15.5,0 h 15.5 c 2.9,0 4,1.4 5.1,2 1.4,0.6 13.1,12 13.1,12 1.7,1.5 2,1.3 2,1.3 14.9,-1.5 7.8,-24.9 7.8,-24.9 z M 27.2,44.3 c -3.8,0 -6.9,-3.1 -6.9,-6.9 0,-3.8 3.1,-6.9 6.9,-6.9 3.8,0 6.9,3.1 6.9,6.9 0,3.8 -3.1,6.9 -6.9,6.9 z m 11.3,15 c -4.1,0 -7.4,-3.3 -7.4,-7.4 0,-4.1 3.3,-7.4 7.4,-7.4 4.1,0 7.4,3.3 7.4,7.4 0,4.1 -3.4,7.4 -7.4,7.4 z m 3.1,-21.9 c 0,-1.1 0.9,-2 2,-2 1.1,0 2,0.9 2,2 0,1.1 -0.9,2 -2,2 -1.1,0 -2,-0.9 -2,-2 z m 1.1,-5.2 c 0,0 -1.4,-0.2 -2.1,-1.1 -0.7,-0.9 -6.6,-7.3 -6.6,-7.3 0,0 -0.6,-1.1 -3,-0.7 -2.5,0.4 -8.5,1.8 -12.3,3.8 0,0 1.8,-0.9 2.1,-2.8 0,0 5.7,-3.1 12.1,-3.5 0,0 1.4,-0.4 2.5,0.7 1.1,1.1 3.5,1.4 5,1.4 h 19.3 c 1.5,0 3.9,-0.4 5,-1.4 1.1,-1.1 2.5,-0.7 2.5,-0.7 6.4,0.4 12.1,3.5 12.1,3.5 0.4,1.9 2.1,2.8 2.1,2.8 -3.7,-2 -9.8,-3.4 -12.3,-3.8 -2.5,-0.4 -3,0.7 -3,0.7 0,0 -5.9,6.3 -6.6,7.2 -0.7,0.9 -2.1,1.1 -2.1,1.1 L 50,32.3 Z m 33.5,-0.8 c 0,1.7 -1.3,3 -3,3 -1.7,0 -3,-1.3 -3,-3 0,-1.7 1.3,-3 3,-3 1.7,0 3,1.4 3,3 z m -19.7,4 c 1.1,0 2,0.9 2,2 0,1.1 -0.9,2 -2,2 -1.1,0 -2,-0.9 -2,-2 0,-1.1 0.9,-2 2,-2 z M 66.6,56 c -2.7,2.7 -7.1,2.7 -9.7,0 -2.7,-2.7 -2.7,-7.1 0,-9.7 2.7,-2.7 7.1,-2.7 9.7,0 2.7,2.6 2.7,7 0,9.7 z M 67,40.4 c -1.7,0 -3,-1.3 -3,-3 0,-1.7 1.3,-3 3,-3 1.7,0 3,1.3 3,3 0,1.7 -1.3,3 -3,3 z m 6,6 c -1.7,0 -3,-1.3 -3,-3 0,-1.7 1.3,-3 3,-3 1.7,0 3,1.3 3,3 0,1.7 -1.3,3 -3,3 z m 6.2,-6 c -1.7,0 -3,-1.3 -3,-3 0,-1.7 1.3,-3 3,-3 1.7,0 3,1.3 3,3 0,1.7 -1.3,3 -3,3 z"
         id="path8" /><circle
         cx="50"
         cy="27.299999"
         r="3.8"
         id="circle10" /></g></g></svg>
