<?xml version="1.0" encoding="UTF-8" standalone="no"?>
<!-- Created with Inkscape (http://www.inkscape.org/) -->

<svg
   width="548mm"
   height="370mm"
   viewBox="0 0 548 370"
   version="1.1"
   id="svg4502"
   inkscape:version="1.2.2 (b0a8486541, 2022-12-01)"
   sodipodi:docname="xbox.svg"
   xmlns:inkscape="http://www.inkscape.org/namespaces/inkscape"
   xmlns:sodipodi="http://sodipodi.sourceforge.net/DTD/sodipodi-0.dtd"
   xmlns="http://www.w3.org/2000/svg"
   xmlns:svg="http://www.w3.org/2000/svg">
  <sodipodi:namedview
     id="namedview4504"
     pagecolor="#ffffff"
     bordercolor="#000000"
     borderopacity="0.25"
     inkscape:showpageshadow="2"
     inkscape:pageopacity="0.0"
     inkscape:pagecheckerboard="0"
     inkscape:deskcolor="#d1d1d1"
     inkscape:document-units="mm"
     showgrid="false"
     inkscape:zoom="0.13826924"
     inkscape:cx="1526.0083"
     inkscape:cy="1149.9304"
     inkscape:window-width="950"
     inkscape:window-height="1022"
     inkscape:window-x="960"
     inkscape:window-y="24"
     inkscape:window-maximized="1"
     inkscape:current-layer="layer1" />
  <defs
     id="defs4499" />
  <g
     inkscape:label="Layer 1"
     inkscape:groupmode="layer"
     id="layer1">
    <path
       style="fill:#a0a0a0;fill-opacity:0.705882;stroke:#ffffff;stroke-width:1.17508;stroke-linecap:square;paint-order:fill markers stroke"
       d="m 77.361988,50.04447 54.327782,-20.983223 19.87286,-4.266131 10.46971,-0.746695 6.19235,0.810915 12.56946,10.075274 40.66649,46.138132 5.4266,2.73419 92.08499,0.09712 7.04666,-3.624574 47.35304,-52.4232 5.27788,-3.552095 15.7362,-0.456502 74.33138,26.324258 -5.03512,-15.389363 -5.21182,-7.204144 -12.59862,-7.772242 -31.14424,-9.615602 -38.11235,-7.8613029 -7.98222,0.6371733 -6.60333,2.0653356 -14.21279,9.150602 -1.51331,2.319731 L 200.89061,16.041681 180.59952,5.1004805 172.85173,3.5500946 156.94462,4.003518 141.11167,6.4604546 116.54315,13.271399 86.223339,30.456603 84.761541,31.494141 Z"
       id="path3421" />
    <path
       style="fill:#d0d0d0;fill-opacity:1;stroke:#ffffff;stroke-width:0.751172;stroke-linecap:square;paint-order:fill markers stroke"
       d="M 50.04819,367.41101 C 35.957204,363.73746 22.155969,354.81464 15.390437,345.00395 8.3914176,334.85465 6.0517372,329.18568 2.9783224,314.92946 1.2373549,306.85388 1.223279,306.68875 1.2181124,294.26932 1.2086377,271.31542 1.8230441,264.55679 6.0624673,240.98713 9.7842029,220.29567 9.8038599,220.21356 16.252855,198.42081 24.450106,170.7203 32.560549,146.84664 48.417838,103.74092 l 12.612392,-34.284942 5.025367,-7.603627 5.025363,-7.603633 4.757408,-2.284453 c 2.616582,-1.256445 16.250326,-6.722044 30.297212,-12.145781 24.63233,-9.510936 25.89521,-9.938641 35.54285,-12.0375 10.43084,-2.269244 18.31952,-3.105732 23.35541,-2.476544 2.54043,0.317405 3.23392,0.732791 9.10363,5.452925 6.62335,5.326177 5.65122,4.277322 36.9074,39.820402 8.0922,9.202064 10.24463,11.357557 12.5896,12.607418 l 2.82857,1.507601 46.50235,-0.02369 46.50234,-0.02369 3.5764,-1.853162 c 3.44485,-1.784973 4.45053,-2.821031 27.3429,-28.169084 16.30637,-18.055537 24.53668,-26.800287 26.22004,-27.858936 2.36716,-1.488686 2.71435,-1.55452 9.86585,-1.870901 l 7.41232,-0.327911 37.09687,13.138979 c 20.40328,7.22644 37.35399,13.396095 37.66825,13.710335 0.31424,0.314243 1.13007,0.866422 1.81295,1.227056 2.39796,1.266355 8.97213,6.622084 10.66105,8.685163 2.44456,2.986063 3.97058,6.261391 6.09013,13.071335 1.02347,3.288258 5.30455,14.893842 9.51357,25.79018 7.65179,19.80902 11.62113,30.71534 21.7966,59.88973 15.57269,44.64888 22.93418,73.57187 26.58501,104.45153 1.31725,11.14153 1.83546,31.18629 0.99544,38.50546 -2.35292,20.50179 -7.89109,35.08598 -17.91286,47.17182 -3.88474,4.68482 -7.88058,7.76196 -14.17139,10.91307 -10.76065,5.39004 -20.47473,7.90723 -25.42319,6.5877 -6.05871,-1.61553 -16.88121,-7.7869 -26.84048,-15.3054 -17.5882,-13.27769 -39.90629,-36.09225 -60.54004,-61.8867 l -7.0103,-8.76364 -4.81883,-2.38606 c -4.68672,-2.32062 -5.05229,-2.41356 -13.33211,-3.38996 -4.68231,-0.55216 -9.75598,-1.20385 -11.27486,-1.4482 -1.59962,-0.2573 -23.19681,-0.26766 -51.32996,-0.0237 -26.71259,0.23065 -70.76238,0.58189 -97.88864,0.78018 l -49.32049,0.36054 -6.34332,3.64489 c -15.98191,9.18323 -22.66761,14.83761 -50.52714,42.73283 -22.947235,22.97658 -42.367057,41.8041 -44.882269,43.51322 -2.494045,1.6947 -6.311337,3.10832 -8.311857,3.07794 -0.892194,-0.0148 -3.650328,-0.55338 -6.129184,-1.19961 z m 162.75359,-124.88946 4.00624,-0.83415 0.1338,-12.6447 0.1338,-12.64469 h 12.20615 12.20614 l 0.82516,-2.06228 c 2.90128,-7.25099 2.9767,-14.65235 0.22524,-22.10038 l -1.06376,-2.87948 h -11.88528 -11.88525 l -0.31924,-3.38028 c -0.17558,-1.85914 -0.32085,-7.56427 -0.32281,-12.67806 l -0.003,-9.29778 -4.88261,-0.9594 c -5.99761,-1.17848 -13.30111,-1.1285 -18.90445,0.12939 l -4.00625,0.89935 -0.13362,12.56736 -0.13362,12.56735 -11.38432,-0.0491 -11.38437,-0.0491 -1.2328,3.50546 c -1.07032,3.04345 -1.23532,4.39644 -1.25195,10.26598 -0.016,5.67591 0.16394,7.34304 1.12201,10.3912 l 1.14118,3.63067 7.62248,0.003 c 4.19237,0.002 9.4777,0.14745 11.74518,0.32395 l 4.12271,0.32095 0.13392,12.07035 0.13395,12.07038 3.25507,0.84221 c 4.34458,1.12408 14.36306,1.12003 19.78082,-0.009 z m 141.54538,-17.59258 c 5.35347,-1.65354 10.39667,-5.11086 14.27031,-9.78292 4.72613,-5.70027 6.93308,-12.5238 6.55972,-20.28159 -0.64958,-13.49668 -9.44044,-24.16246 -22.7128,-27.55695 -15.64074,-4.00024 -31.92291,5.72873 -35.99446,21.5075 -1.06469,4.12605 -1.06469,10.97747 0,15.10356 2.95439,11.44934 12.96781,20.32091 25.03212,22.17768 2.84128,0.43729 9.65474,-0.18179 12.84511,-1.16728 z m 67.42205,-57.28543 c 3.50443,-1.79812 6.42,-4.79121 8.04648,-8.2604 1.14267,-2.43724 1.32604,-3.48627 1.32604,-7.58579 0,-3.95077 -0.19512,-5.15329 -1.15017,-7.09223 -2.59041,-5.25842 -7.11292,-8.77111 -12.77977,-9.92619 -3.70072,-0.75434 -6.9851,-0.30287 -10.69444,1.47009 -10.51635,5.02644 -13.24533,18.84209 -5.43045,27.49222 3.76533,4.1678 7.52898,5.64733 13.77949,5.41695 3.44559,-0.12702 4.7608,-0.41559 6.90282,-1.51465 z M 145.80878,142.2995 c 8.96526,-3.16834 16.16118,-10.86709 18.97282,-20.29859 1.21281,-4.06832 1.21317,-11.9621 5e-4,-16.00359 -3.99025,-13.301762 -15.24118,-21.805331 -28.85009,-21.805331 -5.1983,0 -9.09936,0.927366 -13.80576,3.281887 -6.84642,3.425162 -11.86823,9.293729 -14.56316,17.018834 -1.92991,5.53213 -2.00529,13.18087 -0.18482,18.75291 3.12215,9.55618 11.03461,16.98943 21.04204,19.76768 4.04767,1.1237 13.25897,0.74557 17.38847,-0.7138 z m 237.23759,-10.56873 c 8.02282,-3.0017 12.71984,-12.11467 10.57382,-20.51482 -2.4074,-9.42317 -11.67102,-15.112758 -20.83773,-12.798297 -8.53794,2.155697 -14.00736,9.647227 -13.38579,18.334657 0.52066,7.27672 5.41701,13.41448 12.40258,15.54709 2.59947,0.7936 8.38854,0.50092 11.24712,-0.56863 z m 75.4719,-0.57523 c 3.42045,-1.56593 6.41798,-4.46356 8.28695,-8.01077 1.26861,-2.40775 1.39426,-3.12004 1.39426,-7.90438 0,-4.7844 -0.12554,-5.49666 -1.39432,-7.9045 -1.79587,-3.40849 -4.72808,-6.23092 -8.29095,-7.980598 -2.4617,-1.208882 -3.42667,-1.391833 -7.34126,-1.391833 -3.91536,0 -4.87935,0.18298 -7.34327,1.39281 -3.44867,1.693601 -6.56297,4.714491 -8.34955,8.099181 -1.19932,2.27215 -1.33371,3.05656 -1.33371,7.78494 0,4.7255 0.13472,5.51356 1.33075,7.77911 3.47277,6.57861 9.15558,9.88788 16.45687,9.58342 2.73472,-0.114 4.53743,-0.5103 6.58423,-1.44738 z m -219.85542,-5.47919 c 2.63407,-0.78918 5.62021,-3.45293 6.94979,-6.1995 0.90381,-1.86699 1.06609,-2.93017 0.91226,-5.97646 -0.15861,-3.14077 -0.41696,-4.03249 -1.69531,-5.85136 -5.28988,-7.52658 -15.69863,-7.52658 -20.98852,0 -1.27835,1.81887 -1.53671,2.71059 -1.69531,5.85136 -0.1542,3.05343 0.008,4.10805 0.92042,5.99334 1.24339,2.5685 4.05279,5.16347 6.58038,6.07819 2.18464,0.79058 6.55711,0.84124 9.01629,0.10452 z m 80.49949,-0.65135 c 4.9913,-1.76102 8.06747,-6.10846 8.06747,-11.40138 0,-3.47686 -0.97246,-6.04038 -3.15525,-8.31754 -7.83516,-8.173877 -21.50815,-2.94758 -21.50815,8.22117 0,8.61004 8.3616,14.40298 16.59593,11.49775 z M 422.13488,93.70485 c 3.18154,-1.538246 6.70059,-5.051493 8.27451,-8.260898 1.7628,-3.594551 1.98892,-9.897311 0.49769,-13.872426 -1.4729,-3.926246 -4.80926,-7.496722 -8.87583,-9.498699 -2.89248,-1.423952 -3.77363,-1.61694 -7.35388,-1.610586 -5.40427,0.0095 -9.31182,1.695781 -12.81668,5.530667 -7.12039,7.790817 -5.78679,20.345189 2.78781,26.244697 3.42312,2.355172 5.81568,2.983789 10.72583,2.818189 3.2735,-0.11044 4.8437,-0.42417 6.76055,-1.350944 z"
       id="path4479" />
  </g>
</svg>
