<!DOCTYPE svg PUBLIC "-//W3C//DTD SVG 1.1//EN" "http://www.w3.org/Graphics/SVG/1.1/DTD/svg11.dtd">
<!-- Uploaded to: SVG Repo, www.svgrepo.com, Transformed by: SVG Repo Mixer Tools -->
<svg fill="#d0d0d0" xmlns="http://www.w3.org/2000/svg" width="800px" height="800px" viewBox="0 0 52.00 52.00" enable-background="new 0 0 52 52" xml:space="preserve" style="--darkreader-inline-fill: #333739;" data-darkreader-inline-fill="">
<g id="SVGRepo_bgCarrier" stroke-width="0"/>
<g id="SVGRepo_tracerCarrier" stroke-linecap="round" stroke-linejoin="round" stroke="#CCCCCC" stroke-width="0.10400000000000001" style="--darkreader-inline-stroke: #c8c3bc;" data-darkreader-inline-stroke=""> <g> <g> <path d="M38.5,14.1h-37c-0.8,0-1.5,0.7-1.5,1.5v21c0,0.8,0.7,1.5,1.5,1.5h37c0.8,0,1.5-0.7,1.5-1.5v-21 C40,14.8,39.3,14.1,38.5,14.1z M21,32.2c-3.4,0-6.1-2.7-6.1-6.1S17.6,20,21,20s6.1,2.7,6.1,6.1S24.4,32.2,21,32.2z"/> <circle cx="21" cy="26.1" r="1.2"/> </g> <path d="M50.5,18H36c-0.8,0-1.5,0.7-1.5,1.5v13c0,0.8,0.7,1.5,1.5,1.5h14.5c0.8,0,1.5-0.7,1.5-1.5v-13 C52,18.7,51.3,18,50.5,18z M47.1,22c0.6,0,1,0.4,1,1v1.9H40V22H47.1z M47.1,30H40v-2.7h8.1V29C48.1,29.6,47.7,30,47.1,30z"/> </g> </g>
<g id="SVGRepo_iconCarrier"> <g> <g> <path d="M38.5,14.1h-37c-0.8,0-1.5,0.7-1.5,1.5v21c0,0.8,0.7,1.5,1.5,1.5h37c0.8,0,1.5-0.7,1.5-1.5v-21 C40,14.8,39.3,14.1,38.5,14.1z M21,32.2c-3.4,0-6.1-2.7-6.1-6.1S17.6,20,21,20s6.1,2.7,6.1,6.1S24.4,32.2,21,32.2z"/> <circle cx="21" cy="26.1" r="1.2"/> </g> <path d="M50.5,18H36c-0.8,0-1.5,0.7-1.5,1.5v13c0,0.8,0.7,1.5,1.5,1.5h14.5c0.8,0,1.5-0.7,1.5-1.5v-13 C52,18.7,51.3,18,50.5,18z M47.1,22c0.6,0,1,0.4,1,1v1.9H40V22H47.1z M47.1,30H40v-2.7h8.1V29C48.1,29.6,47.7,30,47.1,30z"/> </g> </g>
</svg>