<?xml version="1.0" encoding="UTF-8" standalone="no"?>
<!-- Uploaded to: SVG Repo, www.svgrepo.com, Transformed by: SVG Repo Mixer Tools -->

<svg
   fill="#d0d0d0"
   width="801.59998"
   height="801.59998"
   viewBox="0 0 52.103998 52.103999"
   enable-background="new 0 0 52 52"
   xml:space="preserve"
   data-darkreader-inline-fill=""
   version="1.1"
   id="svg25"
   sodipodi:docname="yubikey.svg"
   inkscape:version="1.2.2 (b0a8486541, 2022-12-01)"
   xmlns:inkscape="http://www.inkscape.org/namespaces/inkscape"
   xmlns:sodipodi="http://sodipodi.sourceforge.net/DTD/sodipodi-0.dtd"
   xmlns="http://www.w3.org/2000/svg"
   xmlns:svg="http://www.w3.org/2000/svg"><defs
   id="defs29" /><sodipodi:namedview
   id="namedview27"
   pagecolor="#ffffff"
   bordercolor="#000000"
   borderopacity="0.25"
   inkscape:showpageshadow="2"
   inkscape:pageopacity="0.0"
   inkscape:pagecheckerboard="0"
   inkscape:deskcolor="#d1d1d1"
   showgrid="false"
   inkscape:zoom="1.08875"
   inkscape:cx="-35.361653"
   inkscape:cy="159.35706"
   inkscape:window-width="1876"
   inkscape:window-height="1036"
   inkscape:window-x="0"
   inkscape:window-y="0"
   inkscape:window-maximized="1"
   inkscape:current-layer="svg25" />

<g
   id="SVGRepo_bgCarrier"
   stroke-width="0"
   transform="translate(0.052,-14.048)" />

<g
   id="SVGRepo_tracerCarrier"
   stroke-linecap="round"
   stroke-linejoin="round"
   stroke="#cccccc"
   stroke-width="0.104"
   data-darkreader-inline-stroke=""
   transform="translate(0.05199925,-0.04800075)"> <g
   id="g11"> <g
   id="g7"> <path
   d="M 38.5,14.1 H 1.5 C 0.7,14.1 0,14.8 0,15.6 v 21 c 0,0.8 0.7,1.5 1.5,1.5 h 37 c 0.8,0 1.5,-0.7 1.5,-1.5 v -21 c 0,-0.8 -0.7,-1.5 -1.5,-1.5 z M 21,32.2 c -3.4,0 -6.1,-2.7 -6.1,-6.1 0,-3.4 2.7,-6.1 6.1,-6.1 3.4,0 6.1,2.7 6.1,6.1 0,3.4 -2.7,6.1 -6.1,6.1 z"
   id="path3" /> <circle
   cx="21"
   cy="26.1"
   r="1.2"
   id="circle5" /> </g> <path
   d="M 50.5,18 H 36 c -0.8,0 -1.5,0.7 -1.5,1.5 v 13 c 0,0.8 0.7,1.5 1.5,1.5 h 14.5 c 0.8,0 1.5,-0.7 1.5,-1.5 v -13 C 52,18.7 51.3,18 50.5,18 Z m -3.4,4 c 0.6,0 1,0.4 1,1 v 1.9 H 40 V 22 Z m 0,8 H 40 v -2.7 h 8.1 V 29 c 0,0.6 -0.4,1 -1,1 z"
   id="path9" /> </g> </g>

<g
   id="SVGRepo_iconCarrier"
   transform="translate(0.05199925,-0.04800075)"> <g
   id="g22"> <g
   id="g18"> <path
   d="M 38.5,14.1 H 1.5 C 0.7,14.1 0,14.8 0,15.6 v 21 c 0,0.8 0.7,1.5 1.5,1.5 h 37 c 0.8,0 1.5,-0.7 1.5,-1.5 v -21 c 0,-0.8 -0.7,-1.5 -1.5,-1.5 z M 21,32.2 c -3.4,0 -6.1,-2.7 -6.1,-6.1 0,-3.4 2.7,-6.1 6.1,-6.1 3.4,0 6.1,2.7 6.1,6.1 0,3.4 -2.7,6.1 -6.1,6.1 z"
   id="path14" /> <circle
   cx="21"
   cy="26.1"
   r="1.2"
   id="circle16" /> </g> <path
   d="M 50.5,18 H 36 c -0.8,0 -1.5,0.7 -1.5,1.5 v 13 c 0,0.8 0.7,1.5 1.5,1.5 h 14.5 c 0.8,0 1.5,-0.7 1.5,-1.5 v -13 C 52,18.7 51.3,18 50.5,18 Z m -3.4,4 c 0.6,0 1,0.4 1,1 v 1.9 H 40 V 22 Z m 0,8 H 40 v -2.7 h 8.1 V 29 c 0,0.6 -0.4,1 -1,1 z"
   id="path20" /> </g> </g>

</svg>
